<?xml version="1.0" encoding="utf-8"?>
<!-- Generator: Adobe Illustrator 16.0.0, SVG Export Plug-In . SVG Version: 6.00 Build 0)  -->
<!DOCTYPE svg PUBLIC "-//W3C//DTD SVG 1.1//EN" "http://www.w3.org/Graphics/SVG/1.1/DTD/svg11.dtd">
<svg version="1.1" xmlns="http://www.w3.org/2000/svg" xmlns:xlink="http://www.w3.org/1999/xlink" x="0px" y="0px"
	 width="777.268px" height="449.883px" viewBox="0 0 777.268 449.883" enable-background="new 0 0 777.268 449.883"
	 xml:space="preserve">
<g id="Capa_1" display="none">
	<path display="inline" fill="#006633" d="M881.583,554.301c-69.194,78.375-66.534,193.78,5.942,257.766
		c56.098,49.525,177.846,59.758,203.609,16.723c25.765-43.033-52.854-136.147-52.854-136.147s113.027,68.53,141.642,35.588
		c28.615-32.941,14.278-150.453-41.825-199.984C1065.621,464.261,950.775,475.927,881.583,554.301z"/>
</g>
<g id="Capa_2" display="none">
	<g display="inline">
		<g id="XMLID_3_">
			<g>
				<path fill="#C096B3" d="M1024.415,440.979c5.049,4.019,0.866,18.537-9.74,37.722c-13.155,7.455-28.51,17.991-44.127,30.633
					c-0.25,0.199-0.509,0.409-0.749,0.617c0.146-0.292,0.272-0.582,0.418-0.873c8.743-18.126,15.494-35.491,19.743-50.041
					C1006.196,444.348,1019.356,436.971,1024.415,440.979z"/>
				<path fill="#C096B3" d="M1014.675,478.701c19.093-10.815,33.582-15.175,37.661-10.185c4.08,4.99-3.148,18.226-17.67,34.611
					c-14.513,4.43-31.823,11.375-49.864,20.326c-0.293,0.143-0.576,0.295-0.86,0.428c0.198-0.246,0.396-0.491,0.603-0.747
					C997.018,507.388,1007.377,491.93,1014.675,478.701z"/>
				<path fill="#C096B3" d="M991.299,419.999c5.788,2.845,4.838,17.971-1.339,39.038c-11.195,10.135-23.856,23.761-36.337,39.519
					c-0.207,0.255-0.395,0.51-0.602,0.766c0.076-0.317,0.151-0.634,0.227-0.951c4.595-19.633,7.414-38.095,8.43-53.253
					C974.291,427.212,985.511,417.154,991.299,419.999z"/>
				<path fill="#C096B3" d="M1034.666,503.127c21.036-6.434,36.183-7.563,39.112-1.817c2.928,5.727-7.009,17.046-24.776,29.872
					c-15.171,1.2-33.646,4.25-53.269,9.082c-0.308,0.075-0.616,0.15-0.924,0.226c0.25-0.199,0.5-0.398,0.75-0.598
					C1011.177,527.23,1024.649,514.431,1034.666,503.127z"/>
				<path fill="#C096B3" d="M954.545,406.547c6.245,1.55,8.586,16.585,7.132,38.571c-8.721,12.338-18.117,28.408-26.851,46.524
					c-0.137,0.281-0.283,0.572-0.409,0.863c-0.004-0.333,0.002-0.655,0.009-0.979c0.238-20.229-1.002-38.931-3.288-54.008
					C939.565,417.268,948.3,404.997,954.545,406.547z"/>
				<path fill="#C096B3" d="M1049.002,531.182c22.004-1.725,37.078,0.424,38.709,6.631c1.631,6.208-10.552,15.086-30.736,23.751
					c-15.13-2.106-33.881-3.099-54.142-2.611c-0.323,0.008-0.625,0.014-0.948,0.022c0.284-0.133,0.568-0.265,0.842-0.407
					C1020.769,549.617,1036.749,540.035,1049.002,531.182z"/>
				<path fill="#C096B3" d="M915.881,401.252c6.413,0.182,11.937,14.411,15.258,36.266c-5.816,13.97-11.483,31.726-16.088,51.369
					c-0.075,0.317-0.142,0.624-0.217,0.94c-0.071-0.319-0.124-0.639-0.195-0.958c-4.131-19.885-9.378-37.96-14.848-52.251
					C903.627,414.964,909.478,401.061,915.881,401.252z"/>
				<path fill="#C096B3" d="M1056.976,561.564c21.938,3.04,36.27,8.386,36.534,14.774c0.265,6.389-13.608,12.406-35.258,16.507
					c-14.376-5.295-32.539-10.297-52.5-14.167c-0.317-0.061-0.654-0.121-0.972-0.182c0.317-0.085,0.635-0.151,0.952-0.237
					C1025.334,573.428,1043.062,567.545,1056.976,561.564z"/>
				<path fill="#975C87" d="M953.623,498.556c12.481-15.757,25.143-29.383,36.337-39.519c-4.249,14.55-11,31.915-19.743,50.041
					c-0.146,0.292-0.272,0.582-0.418,0.873c-9.848,8-18.83,16.07-26.606,23.763c3.546-10.368,6.894-22.005,9.828-34.393
					C953.228,499.066,953.416,498.811,953.623,498.556z"/>
				<path fill="#C096B3" d="M877.125,404.37c6.266-1.208,14.72,11.553,22.667,32.249c-2.656,14.934-4.347,33.57-4.583,53.818
					c-0.007,0.323-0.013,0.646-0.011,0.958c-0.129-0.296-0.257-0.592-0.386-0.888c-8.317-18.594-17.314-35.177-25.733-47.998
					C868.15,420.466,870.849,405.569,877.125,404.37z"/>
				<path fill="#975C87" d="M970.548,509.334c15.617-12.642,30.972-23.178,44.127-30.633c-7.297,13.229-17.657,28.687-30.13,44.433
					c-0.207,0.256-0.405,0.501-0.603,0.747c-11.381,5.678-21.924,11.604-31.201,17.422c5.712-9.332,11.502-19.928,17.058-31.352
					C970.039,509.743,970.298,509.533,970.548,509.334z"/>
				<path fill="#975C87" d="M984.802,523.453c18.041-8.951,35.351-15.896,49.864-20.326c-10.017,11.304-23.489,24.104-39.105,36.765
					c-0.25,0.199-0.5,0.398-0.75,0.598c-12.376,3.083-23.99,6.583-34.339,10.25c7.607-7.859,15.57-16.921,23.471-26.859
					C984.227,523.748,984.509,523.596,984.802,523.453z"/>
				<path fill="#C096B3" d="M1058.251,592.846c20.855,7.673,33.748,15.931,32.625,22.209c-1.123,6.278-16,9.163-38.093,8.507
					c-12.949-8.236-29.686-17.021-48.425-25.071c-0.282-0.122-0.576-0.252-0.867-0.364c0.312-0.017,0.634-0.025,0.938-0.031
					C1024.688,597.589,1043.323,595.685,1058.251,592.846z"/>
				<path fill="#975C87" d="M961.677,445.118c-1.016,15.158-3.835,33.62-8.43,53.253c-0.075,0.317-0.151,0.634-0.227,0.951
					c-7.85,9.964-14.858,19.796-20.755,29.02c1.206-10.936,1.965-23.069,2.152-35.836c0.126-0.291,0.272-0.582,0.409-0.863
					C943.56,473.525,952.957,457.456,961.677,445.118z"/>
				<path fill="#975C87" d="M995.734,540.264c19.622-4.832,38.098-7.882,53.269-9.082c-12.254,8.853-28.233,18.436-46.273,27.386
					c-0.274,0.142-0.558,0.274-0.842,0.407c-12.805,0.349-24.953,1.258-35.896,2.611c9.167-6.008,18.939-13.124,28.819-21.097
					C995.118,540.414,995.426,540.339,995.734,540.264z"/>
				<path fill="#975C87" d="M931.139,437.518c2.286,15.078,3.526,33.78,3.288,54.008c-0.007,0.323-0.013,0.646-0.009,0.979
					c-5.496,11.44-10.181,22.574-13.947,32.875c-1.184-10.963-3.05-23.003-5.637-35.553c0.076-0.317,0.142-0.624,0.217-0.94
					C919.655,469.244,925.322,451.488,931.139,437.518z"/>
				<path fill="#975C87" d="M1002.834,558.953c20.261-0.487,39.011,0.505,54.142,2.611c-13.915,5.981-31.642,11.864-51.245,16.696
					c-0.317,0.085-0.635,0.151-0.952,0.237c-12.608-2.418-24.678-4.143-35.682-5.181c10.276-3.878,21.375-8.71,32.789-14.341
					C1002.209,558.967,1002.512,558.96,1002.834,558.953z"/>
				<path fill="#C096B3" d="M840.085,415.744c5.85-2.525,16.8,8.166,28.992,26.766c0.651,15.205,3.031,33.836,7.161,53.702
					c0.071,0.319,0.132,0.628,0.204,0.947c-0.194-0.263-0.379-0.518-0.573-0.781c-12.099-16.435-24.43-30.755-35.375-41.514
					C834.816,433.448,834.235,418.269,840.085,415.744z"/>
				<path fill="#7B4170" d="M983.942,523.881c-7.901,9.938-15.864,19-23.471,26.859c-6.969,2.468-13.376,5.013-19.037,7.577
					c3.668-5.017,7.464-10.726,11.307-17.013C962.018,535.484,972.561,529.559,983.942,523.881z"/>
				<path fill="#975C87" d="M899.791,436.619c5.469,14.291,10.716,32.366,14.848,52.251c0.071,0.319,0.124,0.639,0.195,0.958
					c-2.874,12.404-5.038,24.32-6.482,35.209c-3.52-10.504-7.933-21.89-13.155-33.642c-0.002-0.313,0.004-0.636,0.011-0.958
					C895.444,470.188,897.135,451.553,899.791,436.619z"/>
				<path fill="#975C87" d="M1005.751,578.679c19.961,3.87,38.124,8.872,52.5,14.167c-14.929,2.839-33.563,4.744-53.823,5.25
					c-0.303,0.006-0.625,0.014-0.938,0.031c-11.846-5.07-23.332-9.348-33.904-12.727c10.898-1.576,22.811-3.88,35.192-6.904
					C1005.097,578.558,1005.434,578.618,1005.751,578.679z"/>
				<path fill="#C096B3" d="M1052.783,623.563c18.759,11.94,29.609,22.743,27.156,28.614c-2.454,5.871-17.659,5.469-39.176,0.081
					c-10.917-10.79-25.424-22.92-42.044-34.781c-0.258-0.191-0.536-0.382-0.803-0.563c0.317,0.061,0.635,0.122,0.952,0.183
					C1018.841,620.976,1037.535,623.104,1052.783,623.563z"/>
				<path fill="#7B4170" d="M969.799,509.951c-5.556,11.424-11.346,22.021-17.058,31.352c-6.242,3.915-11.899,7.778-16.863,11.487
					c2.475-5.706,4.93-12.104,7.315-19.076C950.969,526.021,959.951,517.951,969.799,509.951z"/>
				<path fill="#975C87" d="M869.078,442.509c8.419,12.821,17.417,29.403,25.733,47.998c0.128,0.296,0.257,0.592,0.386,0.888
					c-0.126,12.784,0.348,24.929,1.299,35.924c-5.673-9.538-12.44-19.75-20.053-30.161c-0.071-0.319-0.132-0.628-0.204-0.947
					C872.108,476.345,869.729,457.714,869.078,442.509z"/>
				<path fill="#7B4170" d="M953.021,499.321c-2.934,12.388-6.282,24.025-9.828,34.393c-5.233,5.17-9.919,10.184-13.951,14.898
					c1.184-6.115,2.21-12.935,3.024-20.271C938.162,519.117,945.17,509.286,953.021,499.321z"/>
				<path fill="#7B4170" d="M960.471,550.74c10.349-3.667,21.963-7.168,34.339-10.25c-9.879,7.973-19.652,15.089-28.819,21.097
					c-7.354,0.905-14.166,1.996-20.281,3.265C950.394,560.766,955.354,556.031,960.471,550.74z"/>
				<path fill="#7B4170" d="M934.417,492.505c-0.187,12.767-0.946,24.9-2.152,35.836c-3.968,6.177-7.437,12.083-10.348,17.568
					c-0.177-6.256-0.652-13.142-1.447-20.529C924.236,515.079,928.922,503.945,934.417,492.505z"/>
				<path fill="#7B4170" d="M965.991,561.586c10.943-1.353,23.091-2.263,35.896-2.611c-11.415,5.631-22.513,10.462-32.789,14.341
					c-7.408-0.695-14.315-1.095-20.574-1.177C953.97,569.166,959.846,565.623,965.991,561.586z"/>
				<path fill="#975C87" d="M1004.358,598.491c18.739,8.051,35.476,16.835,48.425,25.071c-15.249-0.458-33.942-2.587-53.915-6.466
					c-0.317-0.061-0.635-0.122-0.952-0.183c-10.518-7.478-20.849-14.096-30.468-19.647c11.037,0.812,23.233,1.131,36.042,0.861
					C1003.783,598.239,1004.076,598.369,1004.358,598.491z"/>
				<path fill="#7B4170" d="M914.833,489.827c2.587,12.549,4.454,24.59,5.637,35.553c-2.526,6.92-4.648,13.467-6.29,19.47
					c-1.506-6.097-3.463-12.756-5.829-19.813C909.795,514.147,911.96,502.231,914.833,489.827z"/>
				<path fill="#C096B3" d="M806.487,434.85c5.149-3.729,18.13,4.408,34.006,20.013c3.898,14.766,10.227,32.5,18.534,51.084
					c0.128,0.296,0.267,0.601,0.405,0.887c-0.24-0.212-0.49-0.433-0.73-0.645c-15.318-13.524-30.397-24.9-43.383-33.095
					C805.188,453.337,801.349,438.588,806.487,434.85z"/>
				<path fill="#7B4170" d="M969.098,573.315c11.004,1.039,23.074,2.763,35.682,5.181c-12.381,3.024-24.294,5.329-35.192,6.904
					c-7.098-2.266-13.786-4.134-19.905-5.573C955.668,578.116,962.196,575.917,969.098,573.315z"/>
				<path fill="#663662" d="M929.242,548.612c4.032-4.714,8.718-9.728,13.951-14.898c-2.385,6.972-4.841,13.37-7.315,19.076
					c-3.468,2.583-6.599,5.097-9.344,7.514C927.519,556.79,928.417,552.87,929.242,548.612z"/>
				<path fill="#975C87" d="M840.494,454.863c10.945,10.759,23.277,25.08,35.375,41.514c0.194,0.263,0.379,0.518,0.573,0.781
					c2.626,12.547,5.708,24.346,8.997,34.902c-7.598-8.114-16.363-16.674-26.007-25.225c-0.138-0.286-0.276-0.591-0.405-0.887
					C850.721,487.363,844.392,469.629,840.494,454.863z"/>
				<path fill="#7B4170" d="M895.197,491.395c5.222,11.752,9.635,23.137,13.155,33.642c-0.971,7.326-1.604,14.183-1.927,20.418
					c-2.785-5.637-6.111-11.733-9.929-18.136C895.544,516.324,895.07,504.179,895.197,491.395z"/>
				<path fill="#663662" d="M935.877,552.79c4.964-3.708,10.622-7.572,16.863-11.487c-3.843,6.288-7.639,11.996-11.307,17.013
					c-3.947,1.758-7.551,3.526-10.734,5.282C932.41,560.377,934.141,556.755,935.877,552.79z"/>
				<path fill="#663662" d="M941.434,558.316c5.661-2.563,12.068-5.108,19.037-7.577c-5.117,5.291-10.077,10.026-14.76,14.111
					c-4.244,0.874-8.141,1.818-11.66,2.838C936.42,564.941,938.889,561.788,941.434,558.316z"/>
				<path fill="#663662" d="M932.266,528.341c-0.814,7.336-1.84,14.157-3.024,20.271c-2.804,3.26-5.293,6.396-7.446,9.317
					c0.193-3.647,0.231-7.687,0.122-12.021C924.829,540.424,928.297,534.518,932.266,528.341z"/>
				<path fill="#7B4170" d="M969.587,585.401c10.572,3.379,22.058,7.657,33.904,12.727c-12.81,0.271-25.005-0.049-36.042-0.861
					c-6.467-3.737-12.606-6.984-18.297-9.688C955.387,587.184,962.264,586.461,969.587,585.401z"/>
				<path fill="#663662" d="M945.71,564.851c6.115-1.269,12.927-2.359,20.281-3.265c-6.145,4.037-12.021,7.58-17.467,10.552
					c-4.349-0.059-8.395,0.022-12.057,0.259C939.376,570.217,942.476,567.694,945.71,564.851z"/>
				<path fill="#663662" d="M920.471,525.38c0.794,7.387,1.27,14.272,1.447,20.529c-2.031,3.814-3.792,7.429-5.249,10.782
					c-0.6-3.653-1.436-7.606-2.488-11.841C915.822,538.847,917.944,532.3,920.471,525.38z"/>
				<path fill="#975C87" d="M998.719,617.477c16.62,11.86,31.126,23.991,42.044,34.781c-14.842-3.715-32.69-9.811-51.43-17.861
					c-0.293-0.131-0.605-0.26-0.898-0.391c-8.706-9.531-17.389-18.183-25.635-25.646c10.635,3.161,22.504,6.078,35.117,8.555
					C998.184,617.095,998.461,617.285,998.719,617.477z"/>
				<path fill="#663662" d="M948.524,572.138c6.259,0.083,13.166,0.482,20.574,1.177c-6.901,2.601-13.43,4.801-19.416,6.512
					c-4.268-0.992-8.247-1.764-11.887-2.331C941.134,576.007,944.726,574.21,948.524,572.138z"/>
				<path fill="#7B4170" d="M876.442,497.158c7.613,10.411,14.38,20.623,20.053,30.161c0.637,7.375,1.483,14.241,2.535,20.412
					c-3.929-4.93-8.489-10.197-13.591-15.67C882.151,521.504,879.069,509.705,876.442,497.158z"/>
				<path fill="#663662" d="M908.352,525.037c2.366,7.058,4.323,13.717,5.829,19.813c-1.146,4.158-2.084,8.06-2.77,11.655
					c-1.376-3.425-3.046-7.128-4.986-11.051C906.748,539.22,907.38,532.362,908.352,525.037z"/>
				<path fill="#58325A" d="M935.877,552.79c-1.736,3.965-3.468,7.587-5.178,10.808c-2.356,1.28-4.498,2.55-6.406,3.806
					c0.789-2.135,1.532-4.511,2.24-7.101C929.279,557.887,932.409,555.373,935.877,552.79z"/>
				<path fill="#663662" d="M949.682,579.828c6.12,1.439,12.808,3.307,19.905,5.573c-7.323,1.06-14.2,1.783-20.436,2.178
					c-3.968-1.878-7.694-3.505-11.144-4.834C941.606,582.013,945.511,581.04,949.682,579.828z"/>
				<path fill="#58325A" d="M930.699,563.598c3.184-1.756,6.788-3.524,10.734-5.282c-2.544,3.471-5.013,6.625-7.383,9.373
					c-2.57,0.745-4.942,1.518-7.067,2.327C928.208,568.102,929.447,565.963,930.699,563.598z"/>
				<path fill="#58325A" d="M929.242,548.612c-0.825,4.258-1.723,8.178-2.708,11.691c-2,1.76-3.798,3.46-5.385,5.09
					c0.299-2.274,0.515-4.769,0.648-7.464C923.948,555.008,926.438,551.873,929.242,548.612z"/>
				<path fill="#58325A" d="M934.05,567.689c3.52-1.021,7.416-1.964,11.66-2.838c-3.234,2.843-6.334,5.367-9.244,7.547
					c-2.689,0.165-5.177,0.417-7.444,0.734C930.633,571.54,932.314,569.718,934.05,567.689z"/>
				<path fill="#58325A" d="M921.917,545.909c0.11,4.334,0.072,8.374-0.122,12.021c-1.56,2.166-2.951,4.226-4.145,6.167
					c-0.2-2.277-0.531-4.761-0.982-7.406C918.125,553.337,919.887,549.723,921.917,545.909z"/>
				<path fill="#7B4170" d="M967.449,597.267c9.619,5.551,19.95,12.169,30.468,19.647c-12.612-2.477-24.482-5.395-35.117-8.555
					c-5.531-5.029-10.857-9.512-15.846-13.368C953.158,595.956,960.042,596.718,967.449,597.267z"/>
				<path fill="#4E3053" d="M934.05,567.689c-1.736,2.029-3.417,3.851-5.028,5.443c-1.753,0.261-3.366,0.553-4.859,0.897
					c0.924-1.194,1.867-2.535,2.819-4.014C929.108,569.207,931.48,568.434,934.05,567.689z"/>
				<path fill="#663662" d="M896.496,527.319c3.817,6.402,7.144,12.499,9.929,18.136c-0.222,4.352-0.279,8.393-0.167,12.072
					c-2.076-3.075-4.509-6.355-7.227-9.796C897.979,541.56,897.133,534.694,896.496,527.319z"/>
				<path fill="#58325A" d="M936.467,572.397c3.663-0.237,7.708-0.318,12.057-0.259c-3.798,2.072-7.39,3.869-10.729,5.359
					c-2.681-0.413-5.168-0.708-7.45-0.878C932.266,575.41,934.318,573.99,936.467,572.397z"/>
				<path fill="#58325A" d="M914.181,544.85c1.052,4.235,1.888,8.188,2.488,11.841c-1.07,2.453-1.974,4.76-2.712,6.921
					c-0.693-2.201-1.546-4.58-2.546-7.106C912.097,552.91,913.035,549.008,914.181,544.85z"/>
				<path fill="#975C87" d="M858.702,506.19c0.24,0.212,0.491,0.433,0.73,0.645c5.132,11.454,10.533,22.121,15.888,31.598
					c-9.161-6.407-19.577-12.991-30.82-19.374c-0.122-0.072-0.245-0.143-0.367-0.215c-11.982-16.314-21.87-32.204-28.814-45.749
					C828.304,481.29,843.383,492.666,858.702,506.19z"/>
				<path fill="#C096B3" d="M1040.763,652.257c15.821,15.647,24.124,28.494,20.449,33.688c-3.667,5.183-18.494,1.536-38.409-8.338
					c-8.373-12.853-19.973-27.77-33.709-42.875c-0.213-0.243-0.445-0.484-0.658-0.727c0.293,0.131,0.605,0.26,0.898,0.391
					C1008.073,642.447,1025.921,648.542,1040.763,652.257z"/>
				<path fill="#58325A" d="M937.795,577.497c3.641,0.566,7.619,1.339,11.887,2.331c-4.171,1.212-8.076,2.186-11.674,2.917
					c-2.544-0.967-4.932-1.797-7.14-2.45C933.026,579.534,935.338,578.598,937.795,577.497z"/>
				<path fill="#663662" d="M949.152,587.579c5.69,2.704,11.83,5.95,18.297,9.688c-7.407-0.549-14.291-1.311-20.495-2.276
					c-3.467-2.677-6.775-5.05-9.864-7.083C940.773,587.962,944.807,587.853,949.152,587.579z"/>
				<path fill="#4E3053" d="M924.293,567.404c1.908-1.256,4.049-2.526,6.406-3.806c-1.252,2.365-2.491,4.504-3.716,6.417
					c-1.668,0.628-3.188,1.277-4.562,1.928C923.069,570.579,923.686,569.06,924.293,567.404z"/>
				<path fill="#4E3053" d="M926.533,560.304c-0.708,2.589-1.451,4.966-2.24,7.101c-1.479,0.959-2.801,1.911-3.987,2.854
					c0.336-1.475,0.604-3.102,0.841-4.865C922.735,563.764,924.534,562.063,926.533,560.304z"/>
				<path fill="#7B4170" d="M859.432,506.835c9.645,8.551,18.409,17.111,26.007,25.225c2.163,6.951,4.415,13.36,6.707,19.072
					c-4.945-4.074-10.6-8.353-16.826-12.7C869.965,528.956,864.564,518.289,859.432,506.835z"/>
				<path fill="#58325A" d="M906.424,545.455c1.94,3.923,3.61,7.625,4.986,11.051c-0.509,2.638-0.901,5.122-1.151,7.404
					c-1.14-2.011-2.474-4.139-4.002-6.383C906.145,553.847,906.203,549.807,906.424,545.455z"/>
				<path fill="#4E3053" d="M921.796,557.93c-0.133,2.695-0.349,5.19-0.648,7.464c-1.223,1.258-2.321,2.481-3.265,3.656
					c0-1.515-0.077-3.173-0.232-4.954C918.845,562.155,920.236,560.096,921.796,557.93z"/>
				<path fill="#4E3053" d="M929.022,573.132c2.268-0.318,4.755-0.569,7.444-0.734c-2.148,1.592-4.201,3.013-6.122,4.221
					c-1.78-0.129-3.438-0.186-4.954-0.172C926.556,575.484,927.779,574.372,929.022,573.132z"/>
				<path fill="#4E3053" d="M916.669,556.691c0.451,2.645,0.782,5.129,0.982,7.406c-0.921,1.506-1.73,2.948-2.407,4.304
					c-0.32-1.488-0.746-3.088-1.287-4.789C914.695,561.451,915.599,559.144,916.669,556.691z"/>
				<path fill="#46304D" d="M917.883,569.05c0.944-1.175,2.042-2.398,3.265-3.656c-0.238,1.763-0.505,3.39-0.841,4.865
					c-0.964,0.756-1.822,1.496-2.583,2.231C917.835,571.438,917.882,570.292,917.883,569.05z"/>
				<path fill="#663662" d="M885.439,532.06c5.102,5.473,9.662,10.74,13.591,15.67c0.697,4.195,1.478,8.063,2.352,11.574
					c-2.709-2.61-5.808-5.347-9.236-8.172C889.854,545.42,887.603,539.011,885.439,532.06z"/>
				<path fill="#58325A" d="M938.008,582.745c3.45,1.329,7.175,2.956,11.144,4.834c-4.345,0.273-8.378,0.383-12.062,0.328
					c-2.268-1.491-4.435-2.801-6.46-3.914C932.909,583.705,935.375,583.288,938.008,582.745z"/>
				<path fill="#4E3053" d="M930.345,576.619c2.282,0.17,4.769,0.466,7.45,0.878c-2.457,1.101-4.769,2.037-6.927,2.798
					c-1.7-0.515-3.304-0.926-4.803-1.227C927.416,578.38,928.845,577.56,930.345,576.619z"/>
				<path fill="#C096B3" d="M777.922,460.791c4.196-4.752,18.583,0.425,37.396,12.304c6.944,13.545,16.832,29.435,28.814,45.749
					c-18.306-10.372-35.879-18.544-50.481-23.836C780.273,478.466,773.826,465.431,777.922,460.791z"/>
				<path fill="#58325A" d="M899.03,547.73c2.718,3.441,5.151,6.721,7.227,9.796c0.067,2.616,0.208,5.043,0.444,7.278
					c-1.552-1.754-3.335-3.583-5.319-5.5C900.508,555.793,899.727,551.926,899.03,547.73z"/>
				<path fill="#4E3053" d="M911.411,556.505c1,2.527,1.853,4.905,2.546,7.106c-0.567,1.673-1.043,3.243-1.399,4.719
					c-0.646-1.392-1.406-2.866-2.298-4.421C910.51,561.627,910.902,559.143,911.411,556.505z"/>
				<path fill="#46304D" d="M920.307,570.259c1.186-0.944,2.508-1.895,3.987-2.854c-0.607,1.655-1.224,3.175-1.872,4.539
					c-1.098,0.528-2.088,1.061-2.989,1.598C919.753,572.547,920.048,571.456,920.307,570.259z"/>
				<path fill="#46304D" d="M922.421,571.943c1.373-0.651,2.893-1.3,4.562-1.928c-0.953,1.479-1.896,2.82-2.819,4.014
					c-1.203,0.29-2.326,0.595-3.319,0.941C921.387,574.062,921.914,573.065,922.421,571.943z"/>
				<path fill="#46304D" d="M924.164,574.029c1.493-0.345,3.106-0.637,4.859-0.897c-1.243,1.24-2.466,2.352-3.632,3.314
					c-1.222,0.017-2.372,0.079-3.421,0.194C922.688,575.869,923.42,574.998,924.164,574.029z"/>
				<path fill="#46304D" d="M917.651,564.097c0.155,1.781,0.232,3.438,0.232,4.954c-0.775,0.941-1.455,1.857-2.028,2.739
					c-0.133-1.049-0.34-2.181-0.611-3.389C915.921,567.044,916.729,565.603,917.651,564.097z"/>
				<path fill="#663662" d="M946.954,594.99c4.988,3.856,10.314,8.339,15.846,13.368c-7.146-2.126-13.723-4.353-19.597-6.616
					c-2.83-3.357-5.548-6.377-8.151-9.023C938.644,593.571,942.631,594.334,946.954,594.99z"/>
				<path fill="#4E3053" d="M930.868,580.295c2.208,0.653,4.596,1.482,7.14,2.45c-2.633,0.543-5.1,0.959-7.379,1.249
					c-1.558-0.864-3.049-1.615-4.453-2.233C927.627,581.379,929.208,580.893,930.868,580.295z"/>
				<path fill="#46304D" d="M925.391,576.446c1.516-0.014,3.174,0.043,4.954,0.172c-1.5,0.941-2.929,1.761-4.28,2.45
					c-1.202-0.258-2.33-0.432-3.386-0.561C923.557,577.914,924.458,577.229,925.391,576.446z"/>
				<path fill="#413049" d="M924.164,574.029c-0.744,0.969-1.475,1.839-2.194,2.611c-0.01-0.009-0.01-0.009-0.009,0.01
					c-0.895,0.087-1.717,0.22-2.469,0.377c0.465-0.612,0.906-1.3,1.352-2.058C921.837,574.624,922.961,574.319,924.164,574.029z"/>
				<path fill="#4E3053" d="M906.257,557.526c1.528,2.244,2.862,4.372,4.002,6.383c-0.192,1.711-0.315,3.302-0.347,4.789
					c-0.929-1.24-2.009-2.541-3.21-3.894C906.466,562.569,906.324,560.143,906.257,557.526z"/>
				<path fill="#46304D" d="M913.957,563.612c0.541,1.701,0.966,3.301,1.287,4.789c-0.55,1.085-1.014,2.137-1.385,3.125
					c-0.354-1.007-0.792-2.069-1.301-3.195C912.914,566.855,913.39,565.285,913.957,563.612z"/>
				<path fill="#58325A" d="M937.09,587.907c3.089,2.033,6.397,4.406,9.864,7.083c-4.323-0.656-8.31-1.419-11.903-2.271
					c-1.889-1.941-3.723-3.67-5.464-5.189C931.883,587.748,934.387,587.877,937.09,587.907z"/>
				<path fill="#413049" d="M920.307,570.259c-0.258,1.197-0.553,2.288-0.875,3.283c-0.76,0.461-1.442,0.918-2.055,1.382
					c0.153-0.741,0.272-1.549,0.347-2.433C918.484,571.755,919.342,571.015,920.307,570.259z"/>
				<path fill="#7B4170" d="M962.8,608.358c8.247,7.463,16.93,16.116,25.635,25.646c-11.829-5.11-22.827-10.509-32.568-15.858
					c-4.343-6.081-8.597-11.589-12.664-16.404C949.077,604.006,955.653,606.232,962.8,608.358z"/>
				<path fill="#46304D" d="M926.065,579.069c1.499,0.3,3.104,0.712,4.803,1.227c-1.661,0.598-3.241,1.084-4.692,1.465
					c-1.131-0.506-2.208-0.927-3.221-1.273C923.946,580.102,924.979,579.626,926.065,579.069z"/>
				<path fill="#975C87" d="M988.435,634.005c0.213,0.243,0.445,0.484,0.658,0.727c13.737,15.105,25.337,30.022,33.709,42.875
					c-13.758-6.795-29.927-16.558-46.547-28.418c-0.278-0.19-0.536-0.382-0.805-0.582c-6.47-11.137-13.126-21.434-19.584-30.46
					C965.608,623.496,976.606,628.895,988.435,634.005z"/>
				<path fill="#413049" d="M919.432,573.542c0.901-0.537,1.892-1.07,2.989-1.598c-0.508,1.122-1.035,2.119-1.577,3.027
					c-0.841,0.28-1.604,0.576-2.295,0.896C918.872,575.166,919.16,574.397,919.432,573.542z"/>
				<path fill="#413049" d="M917.883,569.05c-0.001,1.242-0.047,2.388-0.159,3.44c-0.643,0.602-1.207,1.199-1.703,1.802
					c-0.005-0.772-0.064-1.609-0.167-2.503C916.428,570.908,917.107,569.992,917.883,569.05z"/>
				<path fill="#413049" d="M921.97,576.641c1.049-0.115,2.199-0.178,3.421-0.194c-0.933,0.783-1.834,1.467-2.712,2.062
					c-0.887-0.089-1.713-0.142-2.486-0.149c0.572-0.5,1.167-1.07,1.769-1.708C921.959,576.631,921.959,576.631,921.97,576.641z"/>
				<path fill="#4E3053" d="M930.629,583.994c2.026,1.113,4.193,2.423,6.46,3.914c-2.703-0.03-5.207-0.159-7.502-0.377
					c-1.345-1.169-2.643-2.223-3.881-3.134C927.22,584.344,928.864,584.206,930.629,583.994z"/>
				<path fill="#46304D" d="M910.259,563.909c0.893,1.555,1.652,3.029,2.298,4.421c-0.3,1.16-0.516,2.267-0.669,3.282
					c-0.555-0.928-1.22-1.899-1.977-2.914C909.944,567.211,910.067,565.621,910.259,563.909z"/>
				<path fill="#413049" d="M915.244,568.401c0.271,1.208,0.478,2.34,0.611,3.389c-0.506,0.741-0.935,1.458-1.287,2.151
					c-0.172-0.772-0.414-1.571-0.708-2.416C914.23,570.538,914.694,569.486,915.244,568.401z"/>
				<path fill="#3C3044" d="M916.021,574.292c0.496-0.604,1.06-1.201,1.703-1.802c-0.075,0.884-0.194,1.692-0.347,2.433
					c-0.538,0.42-1.018,0.837-1.448,1.261C916.006,575.613,916.03,574.977,916.021,574.292z"/>
				<path fill="#58325A" d="M892.146,551.132c3.428,2.826,6.527,5.562,9.236,8.172c0.657,2.663,1.349,5.118,2.092,7.327
					c-1.898-1.384-4.024-2.804-6.376-4.241C895.442,559.029,893.777,555.257,892.146,551.132z"/>
				<path fill="#3C3044" d="M920.844,574.971c-0.446,0.757-0.887,1.446-1.352,2.058c-0.02,0.001-0.009,0.01-0.009,0.01
					c-0.665,0.144-1.271,0.303-1.814,0.499c0.317-0.506,0.611-1.049,0.88-1.67C919.241,575.546,920.003,575.251,920.844,574.971z"/>
				<path fill="#413049" d="M922.679,578.508c1.056,0.129,2.184,0.303,3.386,0.561c-1.086,0.557-2.119,1.033-3.11,1.419
					c-0.842-0.287-1.65-0.507-2.415-0.671C921.229,579.457,921.941,579.008,922.679,578.508z"/>
				<path fill="#46304D" d="M926.176,581.761c1.404,0.618,2.896,1.369,4.453,2.233c-1.766,0.212-3.41,0.35-4.923,0.402
					c-1.01-0.728-1.976-1.379-2.896-1.936C923.876,582.305,924.984,582.06,926.176,581.761z"/>
				<path fill="#4E3053" d="M901.382,559.305c1.984,1.917,3.767,3.746,5.319,5.5c0.185,1.789,0.429,3.447,0.711,4.957
					c-1.158-1.022-2.484-2.065-3.939-3.13C902.731,564.423,902.04,561.967,901.382,559.305z"/>
				<path fill="#3C3044" d="M917.377,574.923c0.613-0.463,1.295-0.92,2.055-1.382c-0.272,0.855-0.561,1.624-0.883,2.326
					c-0.616,0.277-1.163,0.581-1.659,0.891C917.085,576.2,917.248,575.595,917.377,574.923z"/>
				<path fill="#413049" d="M912.558,568.331c0.51,1.126,0.947,2.188,1.301,3.195c-0.315,0.799-0.565,1.565-0.758,2.29
					c-0.324-0.706-0.728-1.447-1.212-2.203C912.042,570.597,912.258,569.491,912.558,568.331z"/>
				<path fill="#3C3044" d="M919.492,577.028c0.752-0.158,1.574-0.29,2.469-0.377c-0.601,0.638-1.197,1.208-1.769,1.708l-0.009,0.01
					c-0.676-0.012-1.32,0.022-1.911,0.104c0.411-0.423,0.808-0.894,1.21-1.434C919.483,577.039,919.473,577.029,919.492,577.028z"/>
				<path fill="#3C3044" d="M915.854,571.79c0.102,0.894,0.161,1.731,0.167,2.503c-0.424,0.502-0.8,1.011-1.118,1.498
					c-0.061-0.583-0.173-1.212-0.336-1.849C914.92,573.248,915.349,572.53,915.854,571.79z"/>
				<path fill="#46304D" d="M906.702,564.805c1.201,1.353,2.281,2.653,3.21,3.894c-0.041,1.224-0.028,2.387,0.048,3.458
					c-0.74-0.781-1.589-1.586-2.547-2.395C907.131,568.252,906.887,566.594,906.702,564.805z"/>
				<path fill="#3D3045" d="M919.483,577.039c-0.402,0.54-0.8,1.011-1.21,1.434c-0.523,0.067-1.007,0.152-1.458,0.284
					c0.298-0.358,0.583-0.765,0.854-1.219C918.212,577.342,918.818,577.182,919.483,577.039z"/>
				<path fill="#663662" d="M875.32,538.433c6.227,4.347,11.881,8.626,16.826,12.7c1.631,4.125,3.296,7.896,4.952,11.258
					c-3.192-1.979-6.809-4.002-10.769-6.037C882.755,551.042,879.043,545.026,875.32,538.433z"/>
				<path fill="#413049" d="M922.955,580.488c1.013,0.346,2.09,0.767,3.221,1.273c-1.192,0.299-2.3,0.544-3.366,0.7
					c-0.766-0.457-1.498-0.848-2.196-1.172C921.353,581.083,922.146,580.815,922.955,580.488z"/>
				<path fill="#3C3044" d="M920.192,578.359c0.773,0.007,1.6,0.061,2.486,0.149c-0.738,0.5-1.45,0.948-2.139,1.308
					c-0.657-0.16-1.291-0.263-1.881-0.309c0.497-0.31,1.008-0.7,1.525-1.138L920.192,578.359z"/>
				<path fill="#3C3044" d="M913.859,571.525c0.294,0.845,0.537,1.643,0.708,2.416c-0.293,0.563-0.547,1.125-0.735,1.653
					c-0.187-0.567-0.435-1.169-0.732-1.779C913.294,573.091,913.543,572.325,913.859,571.525z"/>
				<path fill="#413049" d="M909.912,568.698c0.756,1.015,1.422,1.986,1.977,2.914c-0.133,0.887-0.221,1.723-0.244,2.506
					c-0.486-0.648-1.041-1.303-1.685-1.962C909.884,571.085,909.871,569.922,909.912,568.698z"/>
				<path fill="#3D3045" d="M916.89,576.758c0.497-0.311,1.043-0.614,1.659-0.891c-0.269,0.621-0.563,1.164-0.88,1.67
					c-0.496,0.183-0.953,0.364-1.357,0.591C916.526,577.716,916.72,577.266,916.89,576.758z"/>
				<path fill="#4E3053" d="M929.587,587.53c1.741,1.519,3.575,3.248,5.464,5.189c-2.636-0.61-5.061-1.271-7.254-1.984
					c-1.06-1.429-2.11-2.721-3.129-3.859C926.174,587.147,927.814,587.372,929.587,587.53z"/>
				<path fill="#3D3045" d="M917.377,574.923c-0.129,0.672-0.292,1.277-0.487,1.835c-0.459,0.289-0.869,0.584-1.229,0.887
					c0.126-0.437,0.219-0.921,0.269-1.461C916.359,575.76,916.839,575.343,917.377,574.923z"/>
				<path fill="#3C3044" d="M920.54,579.816c0.765,0.164,1.573,0.384,2.415,0.671c-0.809,0.327-1.602,0.595-2.341,0.801
					c-0.626-0.279-1.211-0.521-1.781-0.696C919.386,580.387,919.946,580.132,920.54,579.816z"/>
				<path fill="#46304D" d="M925.707,584.396c1.238,0.911,2.536,1.965,3.881,3.134c-1.773-0.158-3.413-0.383-4.919-0.653
					c-0.82-0.943-1.623-1.779-2.417-2.499C923.312,584.438,924.468,584.453,925.707,584.396z"/>
				<path fill="#3D3045" d="M916.021,574.292c0.009,0.684-0.015,1.321-0.092,1.892c-0.365,0.372-0.691,0.741-0.968,1.118
					c0.025-0.471,0.009-0.978-0.058-1.512C915.221,575.304,915.597,574.794,916.021,574.292z"/>
				<path fill="#3D3045" d="M918.272,578.473c0.591-0.081,1.235-0.116,1.911-0.104c-0.517,0.438-1.028,0.828-1.525,1.138
					c-0.532-0.049-1.032-0.071-1.5-0.046C917.53,579.187,917.898,578.854,918.272,578.473z"/>
				<path fill="#3C3044" d="M911.889,571.612c0.484,0.756,0.888,1.497,1.212,2.203c-0.169,0.654-0.302,1.268-0.368,1.867
					c-0.31-0.511-0.66-1.04-1.088-1.564C911.667,573.335,911.755,572.5,911.889,571.612z"/>
				<path fill="#3D3045" d="M914.567,573.941c0.163,0.637,0.275,1.266,0.336,1.849c-0.274,0.416-0.499,0.838-0.695,1.25
					c-0.081-0.455-0.213-0.937-0.376-1.446C914.021,575.065,914.274,574.504,914.567,573.941z"/>
				<path fill="#413049" d="M922.811,582.46c0.92,0.557,1.886,1.208,2.896,1.936c-1.239,0.057-2.395,0.042-3.456-0.019
					c-0.641-0.621-1.287-1.172-1.916-1.637C921.115,582.699,921.951,582.614,922.811,582.46z"/>
				<path fill="#3D3045" d="M914.961,577.302c0.277-0.377,0.603-0.746,0.968-1.118c-0.05,0.54-0.143,1.024-0.269,1.461
					c-0.322,0.281-0.624,0.581-0.857,0.887C914.894,578.156,914.943,577.743,914.961,577.302z"/>
				<path fill="#3D3045" d="M918.659,579.507c0.59,0.046,1.224,0.149,1.881,0.309c-0.594,0.315-1.154,0.571-1.707,0.776
					c-0.501-0.168-0.989-0.289-1.444-0.362C917.805,580.032,918.219,579.795,918.659,579.507z"/>
				<path fill="#3C3044" d="M920.614,581.289c0.698,0.324,1.43,0.715,2.196,1.172c-0.86,0.154-1.696,0.238-2.476,0.28
					c-0.528-0.412-1.061-0.754-1.572-1.059C919.354,581.601,919.971,581.47,920.614,581.289z"/>
				<path fill="#3D3045" d="M913.101,573.815c0.297,0.609,0.545,1.212,0.732,1.779c-0.189,0.509-0.33,1.005-0.425,1.47
					c-0.178-0.45-0.406-0.907-0.675-1.381C912.798,575.083,912.931,574.469,913.101,573.815z"/>
				<path fill="#3D3045" d="M916.89,576.758c-0.17,0.508-0.363,0.958-0.579,1.37c-0.378,0.197-0.724,0.42-1.031,0.643
					c0.152-0.341,0.282-0.719,0.38-1.125C916.021,577.343,916.43,577.047,916.89,576.758z"/>
				<path fill="#3D3045" d="M916.311,578.128c0.405-0.227,0.862-0.408,1.357-0.591c-0.271,0.455-0.556,0.861-0.854,1.219
					c-0.413,0.11-0.794,0.248-1.155,0.405C915.903,578.864,916.113,578.521,916.311,578.128z"/>
				<path fill="#413049" d="M907.413,569.762c0.958,0.809,1.807,1.613,2.547,2.395c0.063,0.896,0.163,1.751,0.295,2.526
					c-0.604-0.515-1.286-1.025-2.037-1.542C907.921,572.11,907.656,570.98,907.413,569.762z"/>
				<path fill="#3D3045" d="M916.815,578.756c0.451-0.132,0.934-0.216,1.458-0.284c-0.374,0.382-0.742,0.714-1.114,0.989
					c-0.409,0.022-0.807,0.073-1.173,0.151C916.261,579.363,916.534,579.075,916.815,578.756z"/>
				<path fill="#46304D" d="M903.474,566.631c1.455,1.065,2.781,2.108,3.939,3.13c0.243,1.219,0.508,2.348,0.806,3.378
					c-0.883-0.597-1.895-1.198-2.984-1.794C904.626,569.932,904.036,568.351,903.474,566.631z"/>
				<path fill="#58325A" d="M935.051,592.719c2.604,2.646,5.321,5.666,8.151,9.023c-4.084-1.578-7.807-3.167-11.149-4.765
					c-1.444-2.298-2.864-4.391-4.256-6.242C929.991,591.448,932.415,592.109,935.051,592.719z"/>
				<path fill="#3C3044" d="M909.96,572.156c0.644,0.659,1.198,1.314,1.685,1.962c-0.032,0.667-0.025,1.312,0.026,1.905
					c-0.403-0.447-0.875-0.901-1.416-1.341C910.123,573.907,910.023,573.052,909.96,572.156z"/>
				<path fill="#3D3045" d="M918.833,580.593c0.57,0.175,1.155,0.417,1.781,0.696c-0.643,0.181-1.26,0.313-1.851,0.393
					c-0.469-0.268-0.905-0.489-1.348-0.66C917.877,580.918,918.337,580.776,918.833,580.593z"/>
				<path fill="#3D3045" d="M914.208,577.04c0.196-0.411,0.421-0.834,0.695-1.25c0.067,0.534,0.083,1.042,0.058,1.512
					c-0.251,0.326-0.472,0.661-0.633,1.012c0.001-0.401-0.048-0.829-0.128-1.264L914.208,577.04z"/>
				<path fill="#3D3045" d="M916.815,578.756c-0.281,0.318-0.554,0.607-0.83,0.856c0,0-0.009,0.01-0.02,0.001
					c-0.356,0.087-0.691,0.193-1.005,0.318c0.249-0.219,0.475-0.475,0.69-0.76c0.009-0.01,0.009-0.01,0.009-0.01
					C916.021,579.004,916.402,578.867,916.815,578.756z"/>
				<path fill="#3D3045" d="M918.659,579.507c-0.439,0.288-0.854,0.525-1.27,0.724c-0.436-0.074-0.869-0.109-1.26-0.108
					c0.34-0.175,0.687-0.399,1.03-0.662C917.626,579.436,918.127,579.458,918.659,579.507z"/>
				<path fill="#3D3045" d="M911.645,574.118c0.428,0.524,0.778,1.053,1.088,1.564c-0.081,0.513-0.114,1.013-0.11,1.492
					c-0.272-0.386-0.583-0.771-0.942-1.142l-0.01-0.009C911.619,575.43,911.613,574.785,911.645,574.118z"/>
				<path fill="#3D3045" d="M913.833,575.594c0.163,0.509,0.295,0.991,0.376,1.446l-0.009,0.01c-0.168,0.4-0.307,0.789-0.407,1.176
					c-0.086-0.387-0.211-0.771-0.385-1.162C913.502,576.599,913.644,576.103,913.833,575.594z"/>
				<path fill="#3D3045" d="M914.803,578.533c0.233-0.306,0.535-0.606,0.857-0.887c-0.098,0.406-0.228,0.785-0.38,1.125
					c-0.009,0.01-0.009,0.01-0.009,0.01c-0.288,0.221-0.535,0.459-0.752,0.705C914.634,579.187,914.739,578.878,914.803,578.533z"/>
				<path fill="#3D3045" d="M915.28,578.771c0.307-0.222,0.653-0.446,1.031-0.643c-0.198,0.392-0.408,0.736-0.651,1.033
					c0,0,0,0-0.009,0.01c-0.341,0.155-0.651,0.338-0.93,0.548c0.215-0.285,0.398-0.598,0.55-0.938
					C915.271,578.781,915.271,578.781,915.28,578.771z"/>
				<path fill="#3C3044" d="M920.335,582.741c0.629,0.464,1.275,1.016,1.916,1.637c-0.895-0.06-1.723-0.151-2.486-0.276
					c-0.448-0.523-0.9-0.978-1.34-1.384C919.026,582.772,919.652,582.777,920.335,582.741z"/>
				<path fill="#3D3045" d="M917.389,580.231c0.456,0.073,0.943,0.193,1.444,0.362c-0.496,0.183-0.956,0.325-1.418,0.429
					c-0.413-0.164-0.813-0.298-1.2-0.366C916.6,580.557,916.99,580.409,917.389,580.231z"/>
				<path fill="#4E3053" d="M897.098,562.391c2.352,1.437,4.478,2.857,6.376,4.241c0.562,1.719,1.152,3.3,1.761,4.714
					c-1.364-0.748-2.875-1.497-4.531-2.229C899.505,567.109,898.3,564.857,897.098,562.391z"/>
				<path fill="#3D3045" d="M912.733,575.682c0.269,0.475,0.497,0.932,0.675,1.381c-0.097,0.425-0.146,0.839-0.147,1.24
					c-0.164-0.382-0.376-0.752-0.637-1.129C912.619,576.695,912.652,576.195,912.733,575.682z"/>
				<path fill="#413049" d="M922.251,584.377c0.794,0.72,1.597,1.556,2.417,2.499c-1.219-0.218-2.354-0.489-3.382-0.775
					c-0.502-0.735-1.02-1.412-1.521-2C920.528,584.226,921.356,584.318,922.251,584.377z"/>
				<path fill="#3D3045" d="M918.763,581.682c0.511,0.305,1.043,0.647,1.572,1.059c-0.683,0.037-1.309,0.031-1.91-0.024
					c-0.377-0.351-0.771-0.663-1.16-0.915C917.734,581.796,918.23,581.759,918.763,581.682z"/>
				<path fill="#3D3045" d="M914.961,577.302c-0.018,0.441-0.067,0.854-0.158,1.23c-0.236,0.267-0.431,0.551-0.577,0.842
					c0.074-0.336,0.108-0.69,0.101-1.061C914.489,577.963,914.71,577.628,914.961,577.302z"/>
				<path fill="#3D3045" d="M915.65,579.171c-0.215,0.285-0.441,0.542-0.69,0.76c-0.009,0.01-0.009,0.01-0.009,0.01
					c-0.341,0.155-0.642,0.328-0.93,0.549c0.259-0.209,0.495-0.476,0.69-0.761l0.009-0.01
					C914.999,579.509,915.309,579.327,915.65,579.171z"/>
				<path fill="#3D3045" d="M917.415,581.021c0.443,0.171,0.879,0.392,1.348,0.66c-0.533,0.078-1.029,0.114-1.499,0.12
					c-0.37-0.254-0.727-0.459-1.09-0.616C916.575,581.174,916.981,581.113,917.415,581.021z"/>
				<path fill="#3D3045" d="M915.985,579.613c0.366-0.079,0.764-0.129,1.173-0.151c-0.343,0.263-0.689,0.487-1.03,0.662
					c-0.361,0.01-0.702,0.038-1.03,0.095c0.292-0.163,0.581-0.364,0.867-0.604C915.976,579.623,915.985,579.613,915.985,579.613z"/>
				<path fill="#3D3045" d="M914.2,577.05c0.08,0.436,0.129,0.863,0.128,1.264c-0.182,0.333-0.314,0.672-0.408,1.009
					c0.005-0.342-0.041-0.711-0.126-1.098C913.893,577.839,914.032,577.45,914.2,577.05z"/>
				<path fill="#3D3045" d="M910.255,574.682c0.54,0.44,1.012,0.894,1.416,1.341l0.01,0.009c0.037,0.526,0.112,1.03,0.23,1.464
					c-0.354-0.313-0.75-0.644-1.212-0.961C910.521,575.958,910.38,575.34,910.255,574.682z"/>
				<path fill="#3D3045" d="M913.408,577.063c0.174,0.391,0.299,0.775,0.385,1.162c-0.103,0.348-0.156,0.702-0.17,1.055
					c-0.082-0.328-0.203-0.654-0.362-0.978C913.261,577.902,913.311,577.489,913.408,577.063z"/>
				<path fill="#3D3045" d="M916.128,580.123c0.392-0.001,0.825,0.034,1.26,0.108c-0.398,0.178-0.789,0.326-1.174,0.425
					c-0.368-0.087-0.723-0.127-1.075-0.127C915.465,580.433,915.808,580.297,916.128,580.123z"/>
				<path fill="#3C3044" d="M908.219,573.14c0.751,0.517,1.433,1.027,2.037,1.542c0.125,0.658,0.266,1.276,0.444,1.853
					c-0.494-0.345-1.057-0.696-1.667-1.015C908.747,574.793,908.465,573.997,908.219,573.14z"/>
				<path fill="#46304D" d="M924.668,586.876c1.02,1.138,2.07,2.43,3.129,3.859c-1.701-0.534-3.248-1.096-4.659-1.684
					c-0.625-1.081-1.232-2.075-1.852-2.95C922.314,586.388,923.449,586.659,924.668,586.876z"/>
				<path fill="#3D3045" d="M914.518,579.486c0.217-0.246,0.465-0.484,0.752-0.705c-0.152,0.34-0.335,0.653-0.55,0.938l-0.009,0.01
					c-0.232,0.179-0.454,0.367-0.644,0.583c0.159-0.243,0.306-0.515,0.433-0.806C914.509,579.497,914.509,579.497,914.518,579.486z"
					/>
				<path fill="#3D3045" d="M911.681,576.032c0.359,0.372,0.67,0.756,0.942,1.142c0.001,0.439,0.041,0.858,0.127,1.244
					c-0.247-0.309-0.513-0.617-0.838-0.922C911.793,577.063,911.718,576.558,911.681,576.032z"/>
				<path fill="#3D3045" d="M914.227,579.375c0.146-0.292,0.341-0.576,0.577-0.842c-0.064,0.346-0.169,0.654-0.285,0.954
					c-0.009,0.01-0.009,0.01-0.018,0.021c-0.208,0.236-0.376,0.49-0.525,0.742C914.092,579.969,914.179,579.681,914.227,579.375z"/>
				<path fill="#3D3045" d="M916.215,580.656c0.387,0.067,0.788,0.202,1.2,0.366c-0.434,0.092-0.84,0.153-1.241,0.165
					c-0.354-0.167-0.695-0.285-1.043-0.354C915.482,580.813,915.85,580.754,916.215,580.656z"/>
				<path fill="#3D3045" d="M914.96,579.932c0.314-0.125,0.649-0.23,1.005-0.318c-0.286,0.24-0.576,0.441-0.867,0.604
					c0,0-0.02,0.001-0.029,0.011c-0.299,0.065-0.587,0.139-0.862,0.262c0.264-0.151,0.515-0.331,0.744-0.549
					C914.951,579.942,914.951,579.942,914.96,579.932z"/>
				<path fill="#3D3045" d="M912.623,577.174c0.261,0.377,0.473,0.747,0.637,1.129c-0.014,0.353,0,0.694,0.053,1.033
					c-0.149-0.314-0.347-0.617-0.563-0.918C912.664,578.032,912.625,577.614,912.623,577.174z"/>
				<path fill="#3D3045" d="M917.265,581.802c0.39,0.252,0.783,0.564,1.16,0.915c-0.53-0.03-1.024-0.101-1.472-0.204
					c-0.307-0.326-0.62-0.602-0.958-0.828C916.391,581.761,916.824,581.796,917.265,581.802z"/>
				<path fill="#3D3045" d="M916.128,580.123c-0.32,0.174-0.663,0.31-0.989,0.405c-0.305-0.013-0.606,0.013-0.896,0.068
					c0.276-0.103,0.562-0.216,0.825-0.367c0.009-0.01,0.029-0.011,0.029-0.011C915.427,580.161,915.767,580.133,916.128,580.123z"/>
				<path fill="#413049" d="M905.235,571.346c1.089,0.596,2.101,1.197,2.984,1.794c0.247,0.857,0.528,1.653,0.814,2.381
					c-0.701-0.363-1.459-0.704-2.295-1.04C906.231,573.541,905.727,572.492,905.235,571.346z"/>
				<path fill="#3D3045" d="M918.425,582.717c0.44,0.406,0.893,0.861,1.34,1.384c-0.663-0.111-1.28-0.254-1.859-0.418
					c-0.305-0.433-0.626-0.827-0.954-1.17C917.4,582.616,917.895,582.687,918.425,582.717z"/>
				<path fill="#3D3045" d="M914.328,578.314c0.007,0.371-0.027,0.725-0.101,1.061c-0.182,0.333-0.315,0.672-0.397,1.038
					c0.073-0.356,0.107-0.709,0.1-1.081l-0.01-0.009C914.013,578.986,914.146,578.646,914.328,578.314z"/>
				<path fill="#3D3045" d="M913.793,578.226c0.086,0.386,0.132,0.755,0.126,1.098l0.01,0.009c-0.098,0.279-0.145,0.584-0.173,0.87
					c-0.012-0.303-0.062-0.603-0.132-0.902c0,0-0.01-0.009-0.001-0.02C913.637,578.928,913.69,578.573,913.793,578.226z"/>
				<path fill="#3D3045" d="M913.26,578.303c0.16,0.324,0.281,0.649,0.362,0.978c-0.009,0.01,0.001,0.02,0.001,0.02
					c-0.026,0.324-0.013,0.646,0.028,0.956c-0.071-0.318-0.191-0.625-0.339-0.92C913.26,578.997,913.246,578.656,913.26,578.303z"/>
				<path fill="#3D3045" d="M916.174,581.186c0.363,0.156,0.72,0.362,1.09,0.616c-0.441-0.005-0.874-0.041-1.271-0.117
					c-0.281-0.229-0.597-0.417-0.9-0.558C915.431,581.187,915.793,581.197,916.174,581.186z"/>
				<path fill="#3D3045" d="M914.711,579.73c-0.195,0.285-0.431,0.551-0.69,0.761c-0.093,0.064-0.176,0.137-0.259,0.209
					c0.098-0.132,0.196-0.265,0.305-0.388C914.258,580.097,914.479,579.909,914.711,579.73z"/>
				<path fill="#3D3045" d="M915.14,580.528c0.352,0,0.707,0.04,1.075,0.127c-0.365,0.098-0.732,0.157-1.083,0.176
					c-0.01-0.009-0.03-0.008-0.03-0.008c-0.349-0.089-0.685-0.129-1.026-0.121C914.437,580.693,914.785,580.635,915.14,580.528z"/>
				<path fill="#3D3045" d="M910.699,576.535c0.462,0.317,0.858,0.647,1.212,0.961c0.08,0.436,0.215,0.829,0.367,1.183
					c-0.312-0.257-0.652-0.502-1.04-0.736c0,0,0,0-0.011-0.009C911.032,577.504,910.852,577.035,910.699,576.535z"/>
				<path fill="#3D3045" d="M911.912,577.496c0.325,0.305,0.591,0.613,0.838,0.922c0.047,0.389,0.16,0.744,0.3,1.069
					c-0.216-0.282-0.479-0.551-0.771-0.809C912.127,578.325,911.991,577.932,911.912,577.496z"/>
				<path fill="#3C3044" d="M919.765,584.101c0.501,0.588,1.019,1.265,1.521,2c-0.868-0.237-1.65-0.507-2.365-0.792
					c-0.317-0.608-0.658-1.147-1.015-1.626C918.485,583.847,919.102,583.99,919.765,584.101z"/>
				<path fill="#3D3045" d="M914.5,579.507c-0.126,0.291-0.273,0.563-0.433,0.806c-0.109,0.123-0.207,0.255-0.305,0.388
					c0.077-0.151,0.146-0.291,0.212-0.451C914.124,579.997,914.292,579.743,914.5,579.507z"/>
				<path fill="#3D3045" d="M915.131,580.832c0.348,0.069,0.688,0.188,1.043,0.354c-0.381,0.011-0.744,0.001-1.081-0.059
					c-0.274-0.132-0.555-0.234-0.844-0.306c0.276,0.024,0.561,0.038,0.852,0.003C915.102,580.824,915.121,580.822,915.131,580.832z"
					/>
				<path fill="#3D3045" d="M914.227,579.375c-0.047,0.306-0.134,0.594-0.252,0.874c-0.067,0.16-0.135,0.3-0.212,0.451
					c0.021-0.108,0.044-0.198,0.067-0.287C913.912,580.047,914.044,579.708,914.227,579.375z"/>
				<path fill="#3D3045" d="M914.951,579.942c-0.229,0.218-0.48,0.397-0.744,0.549c-0.152,0.067-0.304,0.133-0.445,0.209
					c0.083-0.073,0.166-0.146,0.259-0.209C914.309,580.27,914.61,580.097,914.951,579.942z"/>
				<path fill="#3D3045" d="M912.75,578.418c0.217,0.301,0.414,0.604,0.563,0.918c0.055,0.359,0.157,0.705,0.289,1.04
					c-0.13-0.315-0.327-0.618-0.552-0.889C912.91,579.163,912.797,578.807,912.75,578.418z"/>
				<path fill="#7B4170" d="M844.5,519.059c11.244,6.383,21.66,12.967,30.82,19.374c3.723,6.593,7.436,12.61,11.01,17.921
					c-5.687-2.938-12.091-5.907-19.088-8.833c-7.448-8.347-15.197-17.91-22.859-28.328c-0.086-0.112-0.172-0.225-0.25-0.348
					C844.255,518.916,844.377,518.987,844.5,519.059z"/>
				<path fill="#3D3045" d="M913.756,580.202c0.029-0.285,0.076-0.591,0.173-0.87c0.007,0.371-0.027,0.725-0.1,1.081
					c-0.023,0.089-0.046,0.179-0.067,0.287C913.769,580.524,913.767,580.358,913.756,580.202z"/>
				<path fill="#3D3045" d="M915.994,581.685c0.339,0.226,0.652,0.502,0.958,0.828c-0.448-0.103-0.847-0.218-1.221-0.384
					c-0.235-0.281-0.498-0.53-0.766-0.731C915.298,581.526,915.638,581.625,915.994,581.685z"/>
				<path fill="#3D3045" d="M909.033,575.521c0.609,0.319,1.172,0.669,1.667,1.015c0.152,0.5,0.333,0.969,0.529,1.398
					c-0.408-0.232-0.865-0.471-1.358-0.669C909.578,576.732,909.292,576.151,909.033,575.521z"/>
				<path fill="#58325A" d="M897.098,562.391c1.202,2.467,2.407,4.719,3.605,6.727c-2.141-0.94-4.516-1.868-7.104-2.784
					c-2.341-2.943-4.769-6.292-7.27-9.979C890.289,558.388,893.906,560.412,897.098,562.391z"/>
				<path fill="#3D3045" d="M915.069,580.229c-0.263,0.151-0.549,0.264-0.825,0.367c-0.155,0.028-0.318,0.066-0.482,0.104
					c0.141-0.076,0.293-0.143,0.445-0.209C914.482,580.368,914.771,580.294,915.069,580.229z"/>
				<path fill="#3D3045" d="M914.244,580.596c0.29-0.055,0.591-0.081,0.896-0.068c-0.355,0.107-0.703,0.165-1.064,0.175
					c-0.108-0.004-0.216-0.008-0.322,0.007l0.009-0.01C913.926,580.662,914.089,580.624,914.244,580.596z"/>
				<path fill="#3D3045" d="M916.953,582.513c0.328,0.344,0.649,0.737,0.954,1.17c-0.51-0.158-1.002-0.337-1.428-0.549
					c-0.223-0.379-0.471-0.708-0.746-1.005C916.105,582.294,916.505,582.41,916.953,582.513z"/>
				<path fill="#46304D" d="M900.704,569.117c1.657,0.731,3.167,1.481,4.531,2.229c0.492,1.146,0.997,2.195,1.503,3.135
					c-0.997-0.406-2.1-0.776-3.29-1.133C902.538,572.087,901.626,570.68,900.704,569.117z"/>
				<path fill="#3D3045" d="M915.094,581.127c0.303,0.14,0.62,0.328,0.9,0.558c-0.356-0.059-0.696-0.158-1.028-0.287
					c-0.249-0.202-0.504-0.354-0.769-0.496C914.478,581.004,914.777,581.085,915.094,581.127z"/>
				<path fill="#3D3045" d="M912.279,578.679c0.292,0.258,0.556,0.527,0.771,0.809c0.134,0.374,0.313,0.697,0.541,1.007
					c-0.217-0.301-0.471-0.581-0.792-0.828C912.601,579.365,912.422,579.042,912.279,578.679z"/>
				<path fill="#3D3045" d="M915.102,580.824c-0.291,0.035-0.576,0.021-0.852-0.003c-0.16-0.05-0.329-0.09-0.497-0.11
					c0.106-0.016,0.214-0.011,0.322-0.007C914.417,580.694,914.753,580.735,915.102,580.824z"/>
				<path fill="#3D3045" d="M913.624,579.3c0.07,0.299,0.121,0.599,0.132,0.902c0.011,0.156,0.013,0.322,0.006,0.498l-0.009,0.01
					c-0.001-0.02-0.001-0.02-0.012-0.028c-0.02-0.146-0.04-0.292-0.089-0.426C913.611,579.946,913.598,579.624,913.624,579.3z"/>
				<path fill="#3D3045" d="M913.313,579.336c0.148,0.295,0.268,0.602,0.339,0.92c0.049,0.134,0.069,0.28,0.089,0.426
					c-0.037-0.106-0.083-0.201-0.139-0.306C913.471,580.042,913.368,579.695,913.313,579.336z"/>
				<path fill="#663662" d="M932.054,596.977c3.342,1.599,7.064,3.187,11.149,4.765c4.067,4.815,8.321,10.324,12.664,16.404
					c-6.546-3.606-12.523-7.184-17.778-10.654C936.045,603.624,934.026,600.106,932.054,596.977z"/>
				<path fill="#3D3045" d="M911.239,577.943c0.388,0.233,0.729,0.479,1.04,0.736c0.143,0.364,0.322,0.687,0.52,0.988
					c-0.271-0.239-0.589-0.447-0.935-0.624C911.635,578.713,911.423,578.343,911.239,577.943z"/>
				<path fill="#3D3045" d="M911.228,577.934c0.011,0.009,0.011,0.009,0.011,0.009c0.185,0.4,0.396,0.771,0.625,1.1
					c-0.347-0.196-0.729-0.352-1.16-0.495c-0.292-0.385-0.566-0.81-0.834-1.284C910.363,577.462,910.82,577.702,911.228,577.934z"/>
				<path fill="#3D3045" d="M914.25,580.821c0.289,0.072,0.57,0.174,0.844,0.306c-0.316-0.042-0.616-0.123-0.897-0.225
					c-0.121-0.052-0.252-0.114-0.374-0.166l-0.02,0.001c-0.01-0.009-0.031-0.028-0.051-0.027
					C913.921,580.731,914.09,580.771,914.25,580.821z"/>
				<path fill="#3D3045" d="M914.966,581.398c0.269,0.201,0.531,0.45,0.766,0.731c-0.343-0.138-0.658-0.307-0.946-0.506
					c-0.182-0.215-0.381-0.41-0.59-0.594C914.441,581.172,914.704,581.294,914.966,581.398z"/>
				<path fill="#975C87" d="M844.132,518.844c0.077,0.123,0.164,0.236,0.25,0.348c7.663,10.418,15.412,19.981,22.859,28.328
					c-10.294-4.303-21.854-8.518-34.171-12.36c-0.13-0.042-0.28-0.083-0.41-0.125c-15.759-13.95-29.231-27.925-39.008-40.028
					C808.253,500.3,825.826,508.472,844.132,518.844z"/>
				<path fill="#3D3045" d="M913.05,579.487c0.225,0.271,0.422,0.574,0.552,0.889c0.057,0.104,0.102,0.2,0.139,0.306
					c-0.043-0.057-0.097-0.122-0.15-0.188C913.364,580.184,913.184,579.861,913.05,579.487z"/>
				<path fill="#3C3044" d="M909.033,575.521c0.26,0.631,0.545,1.212,0.837,1.744c-0.544-0.225-1.146-0.427-1.804-0.606
					c-0.447-0.65-0.889-1.37-1.328-2.177C907.574,574.817,908.332,575.157,909.033,575.521z"/>
				<path fill="#3D3045" d="M914.197,580.902c0.265,0.142,0.52,0.294,0.769,0.496c-0.262-0.104-0.525-0.226-0.77-0.369
					c-0.031-0.028-0.082-0.054-0.114-0.082c-0.031-0.027-0.052-0.046-0.092-0.063c-0.052-0.046-0.115-0.101-0.176-0.137l0.009-0.01
					C913.944,580.788,914.076,580.85,914.197,580.902z"/>
				<path fill="#413049" d="M921.286,586.101c0.62,0.875,1.228,1.869,1.852,2.95c-1.159-0.475-2.201-0.957-3.146-1.463
					c-0.333-0.842-0.69-1.595-1.071-2.279C919.636,585.594,920.418,585.864,921.286,586.101z"/>
				<path fill="#3D3045" d="M912.799,579.667c0.321,0.247,0.575,0.526,0.792,0.828c0.054,0.065,0.107,0.131,0.15,0.188l-0.009,0.01
					c-0.021-0.019-0.042-0.037-0.073-0.065c-0.054-0.065-0.116-0.121-0.179-0.176l-0.011-0.009
					C913.219,580.221,912.995,579.95,912.799,579.667z"/>
				<path fill="#3D3045" d="M917.906,583.683c0.356,0.479,0.698,1.018,1.015,1.626c-0.634-0.249-1.211-0.521-1.731-0.815
					c-0.211-0.497-0.458-0.953-0.712-1.36C916.904,583.346,917.396,583.525,917.906,583.683z"/>
				<path fill="#3D3045" d="M915.732,582.129c0.275,0.298,0.523,0.626,0.746,1.005c-0.395-0.184-0.761-0.379-1.071-0.617
					c-0.179-0.322-0.387-0.634-0.621-0.895C915.074,581.822,915.389,581.991,915.732,582.129z"/>
				<path fill="#3D3045" d="M911.864,579.043c0.345,0.177,0.663,0.385,0.935,0.624c0.196,0.283,0.42,0.554,0.671,0.775
					c-0.28-0.229-0.578-0.418-0.912-0.586C912.306,579.616,912.081,579.344,911.864,579.043z"/>
				<path fill="#3D3045" d="M914.083,580.947c0.032,0.028,0.083,0.054,0.114,0.082c0.208,0.184,0.408,0.379,0.59,0.594
					c-0.266-0.162-0.515-0.363-0.727-0.586c-0.085-0.093-0.169-0.187-0.264-0.269l0.009-0.01l0.009-0.01
					c0.062,0.036,0.124,0.091,0.176,0.137C914.021,580.911,914.042,580.93,914.083,580.947z"/>
				<path fill="#4E3053" d="M923.138,589.051c1.411,0.588,2.958,1.15,4.659,1.684c1.393,1.851,2.813,3.944,4.256,6.242
					c-2.46-1.167-4.706-2.347-6.715-3.499C924.618,591.855,923.869,590.39,923.138,589.051z"/>
				<path fill="#3D3045" d="M913.99,580.883c0.041,0.018,0.061,0.036,0.092,0.063C914.042,580.93,914.021,580.911,913.99,580.883z"
					/>
				<polygon fill="#3D3045" points="913.804,580.737 913.823,580.736 913.814,580.747 				"/>
				<path fill="#3D3045" d="M913.741,580.682c0.01,0.009,0.01,0.009,0.012,0.028c-0.01-0.009-0.01-0.009-0.021-0.018
					L913.741,580.682z"/>
				
					<rect x="913.798" y="580.74" transform="matrix(-0.7415 -0.6709 0.6709 -0.7415 1201.7922 1624.4753)" fill="#3D3045" width="0.014" height="0.014"/>
				<path fill="#3D3045" d="M913.753,580.71c0.02-0.001,0.041,0.018,0.051,0.027l-0.009,0.01
					C913.784,580.738,913.763,580.72,913.753,580.71z"/>
				<path fill="#3D3045" d="M913.48,580.452c0.063,0.055,0.125,0.11,0.179,0.176C913.587,580.583,913.534,580.517,913.48,580.452z"
					/>
				<path fill="#3D3045" d="M913.47,580.442l0.011,0.009c0.053,0.065,0.107,0.131,0.179,0.176c0.031,0.028,0.052,0.046,0.073,0.065
					l-0.009,0.01c-0.154-0.1-0.317-0.188-0.479-0.277c-0.237-0.173-0.466-0.356-0.686-0.569
					C912.892,580.024,913.189,580.213,913.47,580.442z"/>
				
					<rect x="913.788" y="580.75" transform="matrix(-0.7568 -0.6536 0.6536 -0.7568 1225.7817 1617.5625)" fill="#3D3045" width="0.014" height="0.014"/>
				<path fill="#3D3045" d="M913.753,580.71c0.01,0.009,0.031,0.028,0.042,0.037l-0.009,0.01
					C913.775,580.749,913.763,580.72,913.753,580.71z"/>
				<path fill="#3D3045" d="M913.732,580.692c0.011,0.009,0.011,0.009,0.021,0.018c-0.01-0.009-0.02,0.001-0.03-0.008
					L913.732,580.692z"/>
				<path fill="#3D3045" d="M913.723,580.703c0.01,0.009,0.02-0.001,0.03,0.008l-0.009,0.01c-0.127-0.003-0.253,0.014-0.369,0.04
					c-0.35,0.039-0.712,0.029-1.087-0.01c0.337-0.067,0.659-0.094,1.002-0.083C913.428,580.679,913.575,580.681,913.723,580.703z"/>
				<path fill="#3D3045" d="M913.753,580.71c0.01,0.009,0.022,0.038,0.033,0.047l-0.009,0.01
					C913.775,580.749,913.754,580.73,913.753,580.71z"/>
				<path fill="#3D3045" d="M913.753,580.71c0.001,0.02,0.022,0.038,0.023,0.058l0.001,0.02c0.022,0.038,0.036,0.086,0.047,0.115
					c0.125,0.384,0.193,0.791,0.211,1.191c-0.132-0.354-0.216-0.702-0.251-1.062C913.788,580.924,913.77,580.817,913.753,580.71z"/>
				<path fill="#3D3045" d="M913.753,580.71c0.017,0.107,0.035,0.213,0.032,0.321c0.025,0.351,0.021,0.713-0.062,1.059
					c-0.04-0.291-0.042-0.584-0.032-0.868c-0.001-0.02-0.002-0.039,0.005-0.069c0.014-0.079,0.019-0.147,0.033-0.227
					c0.005-0.068,0.021-0.128,0.015-0.206L913.753,580.71z"/>
				<path fill="#3D3045" d="M913.244,580.425c0.163,0.089,0.326,0.178,0.479,0.277c-0.081-0.035-0.151-0.061-0.23-0.076
					c-0.37-0.107-0.713-0.265-1.051-0.471C912.72,580.219,912.991,580.312,913.244,580.425z"/>
				<path fill="#3D3045" d="M913.375,580.76c0.115-0.026,0.241-0.042,0.369-0.04c-0.172,0.048-0.354,0.107-0.515,0.185
					c-0.279,0.064-0.569,0.119-0.871,0.145C912.69,580.905,913.026,580.818,913.375,580.76z"/>
				<path fill="#3D3045" d="M913.229,580.905c0.161-0.077,0.343-0.136,0.515-0.185c-0.141,0.076-0.281,0.172-0.421,0.267
					c-0.274,0.142-0.558,0.275-0.864,0.37C912.709,581.177,912.953,581.027,913.229,580.905z"/>
				<path fill="#3D3045" d="M913.744,580.721c0.006,0.078-0.01,0.138-0.015,0.206c-0.024,0.07-0.019,0.148-0.033,0.227
					c-0.008,0.03-0.006,0.049-0.005,0.069c-0.059,0.277-0.146,0.565-0.254,0.835c0.024-0.343,0.09-0.669,0.185-0.987
					C913.672,580.95,913.713,580.84,913.744,580.721z"/>
				
					<rect x="913.779" y="580.761" transform="matrix(-0.7415 -0.6709 0.6709 -0.7415 1201.7471 1624.499)" fill="#3D3045" width="0.014" height="0.014"/>
				<path fill="#3D3045" d="M913.796,580.767c0.094,0.083,0.179,0.176,0.264,0.269c0.204,0.253,0.379,0.517,0.517,0.803
					c-0.232-0.242-0.435-0.475-0.601-0.75c-0.057-0.104-0.123-0.218-0.188-0.312L913.796,580.767z"/>
				<path fill="#3D3045" d="M913.493,580.627c0.079,0.015,0.149,0.041,0.23,0.076c-0.148-0.021-0.295-0.023-0.433-0.036
					c-0.297-0.042-0.605-0.114-0.906-0.215C912.775,580.451,913.143,580.519,913.493,580.627z"/>
				<path fill="#3D3045" d="M913.744,580.721c-0.031,0.119-0.072,0.229-0.122,0.349c-0.114,0.319-0.278,0.631-0.493,0.916
					c0.104-0.328,0.238-0.648,0.413-0.951C913.623,580.942,913.683,580.832,913.744,580.721z"/>
				<path fill="#3D3045" d="M913.744,580.721c-0.061,0.111-0.121,0.222-0.203,0.314c-0.185,0.293-0.402,0.54-0.66,0.769
					c0.147-0.272,0.316-0.506,0.516-0.732C913.505,580.949,913.625,580.835,913.744,580.721z"/>
				<path fill="#3D3045" d="M913.744,580.721c-0.119,0.114-0.238,0.228-0.347,0.351c-0.231,0.198-0.473,0.368-0.746,0.529
					c0.199-0.226,0.429-0.443,0.671-0.613C913.462,580.893,913.603,580.797,913.744,580.721z"/>
				<path fill="#3D3045" d="M913.787,580.777c0.065,0.094,0.132,0.208,0.188,0.312c0.148,0.295,0.267,0.602,0.358,0.919
					c-0.23-0.349-0.393-0.712-0.508-1.106c-0.012-0.029-0.025-0.077-0.047-0.115L913.787,580.777z"/>
				<polygon fill="#3D3045" points="913.776,580.768 913.787,580.777 913.778,580.788 				"/>
				<path fill="#3D3045" d="M914.06,581.036c0.211,0.223,0.46,0.425,0.727,0.586c0.233,0.261,0.441,0.573,0.621,0.895
					c-0.327-0.197-0.588-0.428-0.831-0.678C914.438,581.553,914.263,581.289,914.06,581.036z"/>
				<path fill="#3D3045" d="M912.558,579.856c0.22,0.213,0.449,0.396,0.686,0.569c-0.253-0.113-0.523-0.207-0.802-0.27
					c-0.308-0.199-0.607-0.427-0.891-0.695C911.921,579.568,912.253,579.697,912.558,579.856z"/>
				<path fill="#3D3045" d="M911.864,579.043c0.217,0.301,0.441,0.573,0.693,0.813c-0.305-0.159-0.637-0.288-1.006-0.395
					c-0.292-0.258-0.578-0.565-0.847-0.913C911.135,578.691,911.518,578.847,911.864,579.043z"/>
				<path fill="#3D3045" d="M913.696,581.153c0.014-0.079,0.008-0.157,0.033-0.227C913.715,581.006,913.71,581.075,913.696,581.153z
					"/>
				<path fill="#3D3045" d="M915.407,582.518c0.311,0.238,0.676,0.433,1.071,0.617c0.253,0.407,0.501,0.863,0.712,1.36
					c-0.467-0.249-0.897-0.519-1.26-0.802C915.783,583.27,915.608,582.878,915.407,582.518z"/>
				<path fill="#3D3045" d="M914.576,581.839c0.243,0.25,0.503,0.481,0.831,0.678c0.202,0.361,0.376,0.752,0.523,1.174
					c-0.361-0.264-0.685-0.549-0.941-0.849C914.885,582.478,914.745,582.153,914.576,581.839z"/>
				<path fill="#3D3045" d="M913.976,581.089c0.166,0.275,0.368,0.508,0.601,0.75c0.169,0.313,0.309,0.638,0.413,1.004
					c-0.264-0.269-0.479-0.551-0.656-0.834C914.243,581.691,914.124,581.385,913.976,581.089z"/>
				<path fill="#3D3045" d="M909.87,577.264c0.269,0.474,0.543,0.899,0.834,1.284c-0.441-0.152-0.92-0.283-1.444-0.362
					c-0.404-0.447-0.802-0.963-1.194-1.529C908.724,576.837,909.326,577.039,909.87,577.264z"/>
				<path fill="#3D3045" d="M913.825,580.902c0.116,0.395,0.278,0.757,0.508,1.106c0.082,0.328,0.146,0.676,0.161,1.037
					c-0.188-0.313-0.348-0.636-0.458-0.953C914.018,581.693,913.95,581.287,913.825,580.902z"/>
				<path fill="#3D3045" d="M912.442,580.156c0.337,0.207,0.681,0.364,1.051,0.471c-0.35-0.108-0.717-0.176-1.108-0.175
					c-0.01-0.009-0.021-0.019-0.041-0.018c-0.331-0.109-0.655-0.268-0.982-0.465C911.746,579.998,912.102,580.057,912.442,580.156z"
					/>
				<path fill="#3D3045" d="M912.881,581.804c0.258-0.229,0.475-0.476,0.66-0.769c-0.174,0.303-0.309,0.623-0.413,0.951
					c0,0,0.001,0.02-0.008,0.03c-0.196,0.265-0.423,0.521-0.68,0.77c0.123-0.349,0.266-0.679,0.431-0.971
					C912.872,581.814,912.872,581.814,912.881,581.804z"/>
				<path fill="#3D3045" d="M910.704,578.548c0.269,0.347,0.555,0.654,0.847,0.913c-0.379-0.097-0.786-0.183-1.219-0.218
					c-0.364-0.303-0.721-0.655-1.072-1.057C909.784,578.266,910.263,578.396,910.704,578.548z"/>
				<path fill="#3D3045" d="M911.551,579.461c0.283,0.268,0.583,0.496,0.891,0.695c-0.34-0.099-0.696-0.158-1.08-0.186
					c-0.02,0.001-0.028,0.011-0.03-0.008c-0.327-0.197-0.667-0.443-1-0.718C910.765,579.278,911.172,579.364,911.551,579.461z"/>
				<path fill="#3D3045" d="M912.384,580.452c0.301,0.101,0.609,0.172,0.906,0.215c-0.343-0.011-0.665,0.017-1.002,0.083
					c-0.327-0.051-0.655-0.121-0.996-0.24c0.347-0.077,0.698-0.096,1.051-0.076C912.363,580.434,912.374,580.443,912.384,580.452z"
					/>
				<path fill="#3C3044" d="M917.19,584.494c0.52,0.294,1.097,0.566,1.731,0.815c0.381,0.684,0.737,1.437,1.071,2.279
					c-0.793-0.426-1.509-0.857-2.166-1.291C917.643,585.643,917.425,585.048,917.19,584.494z"/>
				<path fill="#413049" d="M906.738,574.481c0.438,0.807,0.881,1.526,1.328,2.177c-0.75-0.224-1.574-0.404-2.475-0.541
					c-0.713-0.812-1.423-1.732-2.143-2.769C904.638,573.705,905.741,574.075,906.738,574.481z"/>
				<path fill="#3D3045" d="M913.785,581.031c0.035,0.36,0.119,0.708,0.251,1.062c0.025,0.351,0.011,0.703-0.052,1.068
					c-0.133-0.354-0.216-0.702-0.26-1.052c0,0,0.02-0.001-0.001-0.02C913.806,581.744,913.81,581.382,913.785,581.031z"/>
				<path fill="#3D3045" d="M915.93,583.692c0.362,0.284,0.792,0.554,1.26,0.802c0.235,0.554,0.453,1.148,0.636,1.803
					c-0.555-0.38-1.072-0.763-1.521-1.159C916.21,584.615,916.089,584.143,915.93,583.692z"/>
				<path fill="#3D3045" d="M914.333,582.009c0.177,0.284,0.392,0.565,0.656,0.834c0.115,0.375,0.193,0.792,0.253,1.228
					c-0.287-0.327-0.537-0.675-0.746-1.006c0,0,0.018-0.021-0.001-0.02C914.479,582.685,914.416,582.337,914.333,582.009z"/>
				<path fill="#3D3045" d="M914.989,582.843c0.256,0.299,0.58,0.584,0.941,0.849c0.159,0.451,0.28,0.923,0.375,1.446
					c-0.396-0.35-0.754-0.703-1.063-1.067C915.182,583.635,915.104,583.218,914.989,582.843z"/>
				<path fill="#3D3045" d="M913.375,580.76c-0.349,0.058-0.685,0.145-1.017,0.29c-0.35,0.039-0.702,0.038-1.067-0.011
					c0.343-0.136,0.668-0.232,0.998-0.289C912.663,580.789,913.025,580.799,913.375,580.76z"/>
				<path fill="#46304D" d="M919.992,587.588c0.946,0.506,1.987,0.988,3.146,1.463c0.73,1.339,1.479,2.804,2.201,4.427
					c-1.54-0.885-2.933-1.768-4.188-2.638C920.783,589.657,920.403,588.573,919.992,587.588z"/>
				<path fill="#3D3045" d="M912.358,581.05c0.302-0.026,0.591-0.081,0.871-0.145c-0.275,0.122-0.519,0.272-0.771,0.452
					c-0.326,0.096-0.664,0.163-1.033,0.202C911.734,581.357,912.044,581.174,912.358,581.05z"/>
				<path fill="#3D3045" d="M912.458,581.357c0.306-0.095,0.59-0.228,0.864-0.37c-0.242,0.17-0.472,0.387-0.671,0.613l-0.009,0.01
					c-0.301,0.172-0.614,0.316-0.958,0.433C911.929,581.767,912.178,581.548,912.458,581.357z"/>
				<path fill="#3D3045" d="M913.128,581.986c0.215-0.285,0.379-0.597,0.493-0.916c-0.095,0.318-0.16,0.644-0.185,0.987
					c-0.134,0.32-0.297,0.651-0.509,0.976c0.034-0.354,0.098-0.699,0.192-1.017C913.13,582.005,913.128,581.986,913.128,581.986z"/>
				<path fill="#3D3045" d="M913.397,581.072c-0.2,0.226-0.369,0.46-0.516,0.732c-0.009,0.01-0.009,0.01-0.009,0.01
					c-0.258,0.229-0.537,0.439-0.836,0.631c0.183-0.313,0.378-0.597,0.606-0.834l0.009-0.01
					C912.924,581.439,913.166,581.27,913.397,581.072z"/>
				<path fill="#3D3045" d="M911.362,579.97c0.327,0.197,0.651,0.356,0.982,0.465c-0.354-0.02-0.705-0.001-1.051,0.076
					c-0.38-0.116-0.773-0.281-1.16-0.494c0.407-0.061,0.807-0.073,1.2-0.055C911.333,579.981,911.342,579.971,911.362,579.97z"/>
				<path fill="#3C3044" d="M908.065,576.658c0.392,0.565,0.791,1.082,1.194,1.529c-0.585-0.115-1.218-0.198-1.904-0.22
					c-0.586-0.536-1.168-1.159-1.765-1.85C906.491,576.254,907.316,576.434,908.065,576.658z"/>
				<path fill="#3D3045" d="M913.691,581.222c-0.009,0.284-0.008,0.577,0.032,0.868c0.021,0.019,0.001,0.02,0.001,0.02
					c-0.044,0.345-0.138,0.682-0.271,1.021c-0.045-0.369-0.061-0.729-0.017-1.074C913.545,581.787,913.632,581.499,913.691,581.222z
					"/>
				<path fill="#4E3053" d="M900.704,569.117c0.922,1.563,1.834,2.97,2.745,4.231c-1.479-0.428-3.111-0.829-4.878-1.183
					c-1.599-1.722-3.262-3.666-4.971-5.832C896.188,567.249,898.563,568.177,900.704,569.117z"/>
				<path fill="#3D3045" d="M909.26,578.187c0.351,0.401,0.708,0.753,1.072,1.057c-0.464-0.063-0.984-0.084-1.521-0.064
					c-0.475-0.346-0.962-0.74-1.456-1.212C908.042,577.988,908.674,578.071,909.26,578.187z"/>
				<path fill="#3D3045" d="M910.332,579.243c0.333,0.275,0.673,0.521,1,0.718c-0.393-0.018-0.793-0.006-1.2,0.055l-0.009,0.01
					c-0.427-0.231-0.868-0.511-1.312-0.848C909.348,579.159,909.868,579.18,910.332,579.243z"/>
				<path fill="#3D3045" d="M914.036,582.093c0.11,0.316,0.271,0.64,0.458,0.953c0.02-0.001,0.001,0.02,0.001,0.02
					c0.047,0.389,0.037,0.8,0,1.242c-0.222-0.379-0.386-0.761-0.511-1.146C914.047,582.796,914.061,582.444,914.036,582.093z"/>
				<path fill="#3D3045" d="M911.292,580.511c0.341,0.119,0.669,0.189,0.996,0.24c-0.329,0.057-0.655,0.153-0.998,0.289
					c-0.394-0.038-0.791-0.114-1.22-0.237C910.48,580.652,910.884,580.553,911.292,580.511z"/>
				<path fill="#413049" d="M917.826,586.297c0.657,0.434,1.372,0.865,2.166,1.291c0.412,0.984,0.792,2.069,1.159,3.251
					c-1.028-0.707-1.949-1.41-2.772-2.119C918.229,587.84,918.044,587.039,917.826,586.297z"/>
				<path fill="#3D3045" d="M912.642,581.611c-0.228,0.237-0.423,0.521-0.606,0.834l-0.009,0.011
					c-0.338,0.194-0.698,0.37-1.098,0.528c0.239-0.355,0.481-0.671,0.755-0.94C912.028,581.928,912.341,581.784,912.642,581.611z"/>
				<path fill="#3D3045" d="M912.441,582.785c0.257-0.248,0.483-0.505,0.68-0.77c-0.095,0.318-0.159,0.664-0.192,1.017
					c0,0-0.01-0.009-0.009,0.01c-0.213,0.305-0.455,0.621-0.747,0.93C912.231,583.549,912.32,583.154,912.441,582.785z"/>
				<path fill="#3D3045" d="M913.454,583.131c0.133-0.339,0.227-0.677,0.271-1.021c0.044,0.35,0.127,0.697,0.26,1.052
					c-0.05,0.394-0.149,0.8-0.287,1.208C913.57,583.946,913.492,583.53,913.454,583.131z"/>
				<path fill="#3D3045" d="M914.496,583.065c0.209,0.331,0.459,0.679,0.746,1.006c0.053,0.466,0.078,0.963,0.057,1.493
					c-0.314-0.423-0.578-0.839-0.803-1.257C914.533,583.865,914.543,583.454,914.496,583.065z"/>
				<path fill="#3D3045" d="M915.242,584.071c0.31,0.364,0.667,0.717,1.063,1.067c0.119,0.58,0.193,1.211,0.241,1.893
					c-0.466-0.503-0.892-0.988-1.248-1.467C915.32,585.035,915.295,584.538,915.242,584.071z"/>
				<path fill="#3C3044" d="M916.306,585.138c0.449,0.396,0.965,0.779,1.521,1.159c0.218,0.741,0.402,1.542,0.552,2.424
					c-0.686-0.569-1.303-1.132-1.832-1.69C916.499,586.35,916.425,585.718,916.306,585.138z"/>
				<path fill="#3D3045" d="M910.132,580.017c0.387,0.213,0.78,0.378,1.16,0.494c-0.408,0.042-0.812,0.142-1.222,0.291
					c-0.458-0.112-0.931-0.292-1.426-0.51c0.499-0.144,0.991-0.239,1.479-0.265L910.132,580.017z"/>
				<path fill="#58325A" d="M925.339,593.478c2.009,1.152,4.254,2.332,6.715,3.499c1.972,3.129,3.991,6.647,6.035,10.516
					c-3.664-2.413-6.99-4.765-9.918-7.021C927.247,597.921,926.309,595.576,925.339,593.478z"/>
				<path fill="#3D3045" d="M911.291,581.039c0.366,0.049,0.718,0.049,1.067,0.011c-0.314,0.125-0.624,0.308-0.933,0.51
					c-0.398,0.051-0.818,0.063-1.26,0.039C910.551,581.372,910.928,581.176,911.291,581.039z"/>
				<path fill="#46304D" d="M903.448,573.348c0.719,1.037,1.43,1.957,2.143,2.769c-1.05-0.178-2.205-0.321-3.453-0.4
					c-1.149-1.033-2.339-2.229-3.568-3.551C900.337,572.519,901.97,572.92,903.448,573.348z"/>
				<path fill="#3D3045" d="M911.425,581.56c0.369-0.04,0.707-0.106,1.033-0.202c-0.28,0.191-0.529,0.41-0.774,0.687
					c-0.373,0.128-0.776,0.228-1.203,0.29C910.783,582.034,911.107,581.772,911.425,581.56z"/>
				<path fill="#3D3045" d="M912.928,583.033c0.212-0.324,0.375-0.656,0.509-0.976c-0.044,0.345-0.029,0.706,0.017,1.074
					c-0.13,0.378-0.309,0.75-0.547,1.125c-0.03-0.428-0.019-0.82,0.012-1.213C912.918,583.023,912.928,583.033,912.928,583.033z"/>
				<path fill="#3D3045" d="M912.036,582.445c0.299-0.192,0.578-0.402,0.836-0.631c-0.165,0.292-0.308,0.623-0.431,0.971
					c-0.274,0.269-0.589,0.521-0.934,0.764c0.137-0.408,0.327-0.771,0.52-1.093L912.036,582.445z"/>
				<path fill="#3D3045" d="M913.984,583.162c0.125,0.384,0.289,0.767,0.511,1.146c-0.055,0.462-0.138,0.956-0.269,1.461
					c-0.229-0.477-0.4-0.956-0.529-1.399C913.835,583.961,913.934,583.555,913.984,583.162z"/>
				<path fill="#3D3045" d="M908.811,579.179c0.444,0.337,0.885,0.617,1.312,0.848c-0.487,0.026-0.979,0.121-1.479,0.265
					c-0.545-0.244-1.134-0.545-1.718-0.914C907.594,579.273,908.226,579.21,908.811,579.179z"/>
				<path fill="#413049" d="M905.591,576.117c0.597,0.691,1.179,1.314,1.765,1.85c-0.787-0.055-1.628-0.049-2.535-0.01
					c-0.858-0.648-1.762-1.391-2.683-2.241C903.386,575.795,904.541,575.938,905.591,576.117z"/>
				<path fill="#3C3044" d="M907.355,577.967c0.493,0.472,0.981,0.866,1.456,1.212c-0.585,0.031-1.217,0.095-1.885,0.199
					c-0.693-0.393-1.382-0.874-2.106-1.421C905.728,577.917,906.569,577.912,907.355,577.967z"/>
				<path fill="#663662" d="M886.33,556.354c2.5,3.688,4.929,7.036,7.27,9.979c-3.542-1.246-7.483-2.46-11.771-3.598
					c-4.628-4.433-9.538-9.535-14.586-15.215C874.239,550.446,880.643,553.415,886.33,556.354z"/>
				<path fill="#3D3045" d="M911.684,582.044c-0.274,0.269-0.516,0.585-0.755,0.94c-0.429,0.169-0.917,0.323-1.427,0.438
					c0.313-0.417,0.65-0.778,0.98-1.089C910.908,582.272,911.312,582.172,911.684,582.044z"/>
				<path fill="#3D3045" d="M910.07,580.802c0.429,0.124,0.826,0.2,1.22,0.237c-0.362,0.137-0.74,0.333-1.125,0.559
					c-0.472-0.033-0.956-0.095-1.481-0.194C909.146,581.155,909.61,580.944,910.07,580.802z"/>
				<path fill="#3D3045" d="M914.496,584.307c0.225,0.418,0.489,0.833,0.803,1.257c-0.007,0.597-0.07,1.235-0.18,1.887
					c-0.354-0.587-0.648-1.138-0.892-1.682C914.357,585.263,914.44,584.77,914.496,584.307z"/>
				<path fill="#4E3053" d="M921.15,590.84c1.255,0.871,2.648,1.753,4.188,2.638c0.97,2.098,1.908,4.443,2.832,6.993
					c-2.153-1.663-4.087-3.279-5.792-4.839C922.001,593.893,921.595,592.292,921.15,590.84z"/>
				<path fill="#3D3045" d="M910.166,581.598c0.442,0.025,0.862,0.012,1.26-0.039c-0.318,0.213-0.642,0.475-0.944,0.774
					c-0.473,0.094-0.989,0.131-1.527,0.131C909.361,582.13,909.771,581.834,910.166,581.598z"/>
				<path fill="#3D3045" d="M913.454,583.131c0.038,0.399,0.116,0.815,0.244,1.238c-0.154,0.448-0.337,0.908-0.579,1.371
					c-0.104-0.513-0.179-1.017-0.212-1.484C913.145,583.881,913.324,583.51,913.454,583.131z"/>
				<path fill="#3D3045" d="M912.172,583.973c0.292-0.309,0.533-0.625,0.747-0.93c-0.031,0.393-0.042,0.785-0.012,1.213
					c-0.226,0.403-0.51,0.81-0.844,1.209c-0.009-0.537,0.026-1.018,0.101-1.481L912.172,583.973z"/>
				<path fill="#3C3044" d="M915.299,585.564c0.356,0.479,0.782,0.964,1.248,1.467c0.055,0.779,0.064,1.609,0.009,2.492
					c-0.54-0.714-1.028-1.401-1.427-2.064l-0.01-0.009C915.229,586.799,915.292,586.161,915.299,585.564z"/>
				<path fill="#46304D" d="M918.378,588.721c0.823,0.708,1.744,1.412,2.772,2.119c0.445,1.452,0.851,3.053,1.228,4.792
					c-1.337-1.199-2.524-2.356-3.563-3.493C918.709,590.913,918.57,589.767,918.378,588.721z"/>
				<path fill="#413049" d="M916.547,587.031c0.529,0.558,1.146,1.121,1.832,1.69c0.191,1.045,0.331,2.191,0.437,3.417
					c-0.846-0.893-1.592-1.771-2.259-2.615C916.611,588.641,916.602,587.811,916.547,587.031z"/>
				<path fill="#3D3045" d="M908.645,580.292c0.495,0.218,0.968,0.397,1.426,0.51c-0.46,0.142-0.924,0.353-1.386,0.603
					c-0.577-0.125-1.195-0.287-1.847-0.516C907.455,580.63,908.058,580.431,908.645,580.292z"/>
				<path fill="#3D3045" d="M912.441,582.785c-0.121,0.369-0.21,0.764-0.269,1.188l-0.009,0.01
					c-0.319,0.339-0.678,0.662-1.086,0.977c0.101-0.514,0.243-0.99,0.429-1.411C911.852,583.306,912.167,583.054,912.441,582.785z"
					/>
				<path fill="#3D3045" d="M913.698,584.37c0.129,0.443,0.3,0.922,0.529,1.399c-0.136,0.574-0.338,1.181-0.577,1.81
					c-0.231-0.643-0.401-1.249-0.531-1.838C913.36,585.277,913.543,584.818,913.698,584.37z"/>
				<path fill="#3C3044" d="M906.926,579.378c0.584,0.369,1.173,0.67,1.718,0.914c-0.587,0.139-1.189,0.338-1.807,0.596
					c-0.751-0.243-1.538-0.572-2.378-0.966C905.334,579.689,906.163,579.507,906.926,579.378z"/>
				<path fill="#3D3045" d="M910.929,582.984c0.4-0.159,0.759-0.334,1.098-0.528c-0.192,0.323-0.382,0.685-0.52,1.093
					c-0.402,0.266-0.825,0.514-1.308,0.745C910.419,583.813,910.662,583.37,910.929,582.984z"/>
				<path fill="#3D3045" d="M910.481,582.334c-0.33,0.311-0.667,0.671-0.98,1.089c-0.578,0.129-1.188,0.23-1.858,0.296
					c0.436-0.473,0.876-0.888,1.311-1.253C909.493,582.465,910.009,582.428,910.481,582.334z"/>
				<path fill="#58325A" d="M893.599,566.333c1.708,2.166,3.372,4.11,4.971,5.832c-2.285-0.483-4.808-0.884-7.533-1.226
					c-2.917-2.375-5.998-5.131-9.209-8.204C886.116,563.873,890.057,565.087,893.599,566.333z"/>
				<path fill="#3D3045" d="M908.684,581.404c0.525,0.099,1.009,0.161,1.481,0.194c-0.395,0.236-0.804,0.532-1.211,0.867
					c-0.606,0.013-1.225-0.022-1.905-0.093C907.599,581.981,908.144,581.658,908.684,581.404z"/>
				<path fill="#413049" d="M904.82,577.957c0.724,0.547,1.413,1.028,2.106,1.421c-0.764,0.129-1.592,0.311-2.467,0.544
					c-0.98-0.446-2.016-0.977-3.088-1.613C902.602,578.135,903.748,578.015,904.82,577.957z"/>
				<path fill="#4E3053" d="M898.57,572.165c1.229,1.322,2.418,2.519,3.568,3.551c-1.535-0.113-3.21-0.149-5.01-0.13
					c-1.924-1.333-3.961-2.895-6.091-4.647C893.762,571.281,896.285,571.682,898.57,572.165z"/>
				<path fill="#46304D" d="M902.138,575.716c0.921,0.85,1.825,1.593,2.683,2.241c-1.072,0.058-2.219,0.178-3.449,0.352
					c-1.346-0.768-2.761-1.689-4.243-2.723C898.927,575.567,900.603,575.604,902.138,575.716z"/>
				<path fill="#7B4170" d="M938.089,607.493c5.255,3.47,11.231,7.048,17.778,10.654c6.458,9.026,13.114,19.323,19.584,30.46
					c-10.491-7.509-20.119-15.132-28.502-22.442C944.01,619.314,941.035,613.052,938.089,607.493z"/>
				<path fill="#3D3045" d="M912.907,584.256c0.033,0.467,0.108,0.972,0.212,1.484c-0.257,0.522-0.571,1.067-0.943,1.615
					c-0.086-0.66-0.131-1.303-0.114-1.89C912.396,585.065,912.681,584.659,912.907,584.256z"/>
				<path fill="#3C3044" d="M914.227,585.769c0.244,0.544,0.537,1.095,0.892,1.682l0.01,0.009c-0.122,0.77-0.291,1.57-0.524,2.423
					c-0.389-0.8-0.698-1.565-0.955-2.304C913.889,586.95,914.091,586.343,914.227,585.769z"/>
				<path fill="#3D3045" d="M911.078,584.96c0.408-0.315,0.767-0.638,1.086-0.977c-0.075,0.463-0.11,0.944-0.101,1.481
					c-0.369,0.46-0.797,0.903-1.283,1.369c0.051-0.667,0.154-1.289,0.289-1.863C911.068,584.971,911.068,584.971,911.078,584.96z"/>
				<path fill="#3C3044" d="M906.837,580.888c0.652,0.229,1.27,0.391,1.847,0.516c-0.54,0.254-1.085,0.577-1.635,0.968
					c-0.779-0.085-1.611-0.236-2.496-0.432C905.346,581.526,906.104,581.172,906.837,580.888z"/>
				<path fill="#3D3045" d="M909.501,583.423c0.51-0.115,0.999-0.269,1.427-0.438c-0.267,0.386-0.509,0.829-0.73,1.31
					c-0.531,0.244-1.12,0.491-1.761,0.691C908.788,584.4,909.133,583.883,909.501,583.423z"/>
				<path fill="#3D3045" d="M911.507,583.549c-0.186,0.421-0.329,0.897-0.429,1.411c-0.009,0.011-0.009,0.011-0.009,0.011
					c-0.464,0.357-0.986,0.718-1.56,1.052c0.201-0.626,0.434-1.206,0.69-1.729C910.682,584.063,911.104,583.815,911.507,583.549z"/>
				<path fill="#3C3044" d="M910.779,586.834c0.486-0.466,0.914-0.909,1.283-1.369c-0.018,0.587,0.028,1.23,0.114,1.89
					c-0.435,0.64-0.926,1.301-1.505,1.978C910.667,588.434,910.696,587.601,910.779,586.834z"/>
				<path fill="#413049" d="M915.129,587.459c0.399,0.663,0.888,1.35,1.427,2.064c-0.032,1.067-0.147,2.208-0.317,3.409
					c-0.633-1.07-1.174-2.077-1.634-3.05C914.838,589.03,915.007,588.229,915.129,587.459z"/>
				<path fill="#3C3044" d="M913.119,585.74c0.129,0.589,0.299,1.196,0.531,1.838c-0.282,0.719-0.63,1.471-1.045,2.256
					c-0.189-0.879-0.335-1.703-0.429-2.479C912.548,586.807,912.862,586.262,913.119,585.74z"/>
				<path fill="#46304D" d="M916.556,589.523c0.667,0.844,1.413,1.723,2.259,2.615c0.128,1.538,0.187,3.196,0.165,4.967
					c-1.033-1.46-1.953-2.857-2.741-4.173C916.409,591.731,916.524,590.591,916.556,589.523z"/>
				<path fill="#663662" d="M928.17,600.471c2.928,2.256,6.255,4.609,9.918,7.021c2.946,5.56,5.921,11.822,8.86,18.672
					c-5.648-4.896-10.71-9.657-15.128-14.16C930.653,607.796,929.433,603.942,928.17,600.471z"/>
				<path fill="#3C3044" d="M907.049,582.373c0.68,0.071,1.299,0.106,1.905,0.093c-0.435,0.365-0.875,0.78-1.311,1.253
					c-0.767,0.09-1.606,0.116-2.497,0.115C905.792,583.271,906.423,582.788,907.049,582.373z"/>
				<path fill="#413049" d="M904.459,579.922c0.84,0.395,1.626,0.724,2.378,0.966c-0.734,0.284-1.492,0.638-2.284,1.052
					c-1.063-0.227-2.181-0.538-3.363-0.923C902.343,580.574,903.443,580.211,904.459,579.922z"/>
				<path fill="#4E3053" d="M918.815,592.139c1.039,1.137,2.227,2.294,3.563,3.493c0.492,2.261,0.913,4.75,1.268,7.439
					c-1.752-2.095-3.312-4.093-4.667-5.965C919.001,595.335,918.943,593.676,918.815,592.139z"/>
				<path fill="#58325A" d="M922.378,595.632c1.705,1.56,3.639,3.176,5.792,4.839c1.262,3.471,2.483,7.325,3.65,11.534
					c-3.058-3.12-5.783-6.11-8.174-8.934C923.291,600.382,922.871,597.893,922.378,595.632z"/>
				<path fill="#413049" d="M913.65,587.579c0.257,0.739,0.566,1.504,0.955,2.304c-0.271,1.021-0.615,2.106-1.043,3.243
					c-0.385-1.162-0.708-2.269-0.957-3.292C913.02,589.05,913.368,588.298,913.65,587.579z"/>
				<path fill="#3C3044" d="M907.644,583.719c0.67-0.065,1.28-0.167,1.858-0.296c-0.369,0.46-0.714,0.977-1.064,1.563
					c-0.717,0.244-1.523,0.463-2.391,0.647C906.573,584.911,907.115,584.275,907.644,583.719z"/>
				<path fill="#3C3044" d="M909.508,586.023c0.574-0.334,1.096-0.694,1.56-1.052c-0.135,0.574-0.238,1.195-0.289,1.863
					c-0.549,0.538-1.187,1.071-1.903,1.608C909.059,587.563,909.267,586.759,909.508,586.023z"/>
				<path fill="#46304D" d="M901.371,578.309c1.072,0.636,2.108,1.167,3.088,1.613c-1.017,0.289-2.116,0.652-3.269,1.095
					c-1.481-0.468-3.059-1.057-4.724-1.759C898.219,578.851,899.851,578.538,901.371,578.309z"/>
				<path fill="#413049" d="M907.644,583.719c-0.528,0.557-1.071,1.192-1.597,1.914c-1.032,0.222-2.183,0.411-3.405,0.555
					c0.848-0.876,1.682-1.674,2.496-2.344l0.009-0.01C906.037,583.835,906.877,583.809,907.644,583.719z"/>
				<path fill="#3C3044" d="M908.438,584.986c0.641-0.201,1.23-0.448,1.761-0.691c-0.256,0.522-0.49,1.102-0.69,1.729
					c-0.656,0.407-1.392,0.798-2.207,1.175C907.665,586.386,908.043,585.643,908.438,584.986z"/>
				<path fill="#413049" d="M904.553,581.94c0.885,0.196,1.717,0.347,2.496,0.432c-0.626,0.415-1.257,0.899-1.903,1.461l-0.009,0.01
					c-1.067-0.011-2.207-0.067-3.42-0.207C902.699,582.988,903.647,582.419,904.553,581.94z"/>
				<path fill="#4E3053" d="M897.128,575.586c1.482,1.034,2.897,1.955,4.243,2.723c-1.52,0.229-3.152,0.542-4.904,0.949
					c-2.157-0.9-4.455-1.979-6.902-3.245C892.277,575.76,894.812,575.623,897.128,575.586z"/>
				<path fill="#413049" d="M912.176,587.355c0.094,0.777,0.24,1.6,0.429,2.479c-0.472,0.935-1.059,1.915-1.721,2.938
					c-0.125-1.225-0.206-2.374-0.213-3.439C911.25,588.656,911.742,587.995,912.176,587.355z"/>
				<path fill="#46304D" d="M914.605,589.883c0.46,0.973,1,1.979,1.634,3.05c-0.197,1.506-0.503,3.136-0.891,4.858
					c-0.703-1.644-1.312-3.204-1.787-4.665C913.99,591.989,914.334,590.904,914.605,589.883z"/>
				<path fill="#7B4170" d="M867.241,547.52c5.049,5.681,9.958,10.783,14.586,15.215c-6.165-1.662-13.054-3.196-20.5-4.563
					c-9.037-6.59-18.651-14.292-28.345-22.851c-0.104-0.092-0.219-0.193-0.324-0.286c0.13,0.042,0.28,0.083,0.41,0.125
					C845.387,539.002,856.947,543.217,867.241,547.52z"/>
				<path fill="#58325A" d="M891.037,570.939c2.13,1.752,4.167,3.314,6.091,4.647c-2.316,0.037-4.851,0.174-7.563,0.428
					c-3.359-1.706-6.967-3.74-10.752-6.077C883.231,570.148,887.315,570.485,891.037,570.939z"/>
				<path fill="#663662" d="M881.828,562.735c3.211,3.072,6.292,5.829,9.209,8.204c-3.721-0.454-7.806-0.791-12.224-1.002
					c-5.461-3.342-11.347-7.296-17.484-11.765C868.773,559.54,875.663,561.074,881.828,562.735z"/>
				<path fill="#413049" d="M908.876,588.442c0.716-0.537,1.354-1.07,1.903-1.608c-0.083,0.767-0.112,1.6-0.108,2.499
					c-0.668,0.799-1.45,1.643-2.33,2.492C908.482,590.614,908.656,589.471,908.876,588.442z"/>
				<path fill="#46304D" d="M901.19,581.017c1.182,0.386,2.3,0.697,3.363,0.923c-0.906,0.479-1.854,1.048-2.836,1.697
					c-1.527-0.143-3.168-0.386-4.923-0.712C898.327,582.178,899.798,581.542,901.19,581.017z"/>
				<path fill="#413049" d="M906.046,585.633c0.868-0.184,1.674-0.403,2.391-0.647c-0.394,0.657-0.772,1.4-1.136,2.212
					c-0.958,0.433-2.014,0.852-3.17,1.256C904.772,587.413,905.401,586.469,906.046,585.633z"/>
				<path fill="#46304D" d="M908.342,591.824c0.88-0.849,1.662-1.693,2.33-2.492c0.007,1.065,0.087,2.214,0.213,3.439
					c-0.821,1.266-1.774,2.598-2.85,3.986C908.076,594.986,908.175,593.339,908.342,591.824z"/>
				<path fill="#4E3053" d="M916.239,592.933c0.788,1.316,1.708,2.713,2.741,4.173c-0.005,2.297-0.123,4.787-0.356,7.448
					c-1.265-2.395-2.354-4.653-3.275-6.764C915.736,596.068,916.042,594.439,916.239,592.933z"/>
				<path fill="#413049" d="M909.508,586.023c-0.241,0.736-0.449,1.54-0.632,2.419c-0.834,0.651-1.788,1.289-2.828,1.941
					c0.397-1.165,0.812-2.224,1.253-3.186C908.117,586.821,908.852,586.43,909.508,586.023z"/>
				<path fill="#46304D" d="M912.605,589.834c0.249,1.023,0.571,2.129,0.957,3.292c-0.527,1.417-1.165,2.917-1.923,4.513
					c-0.347-1.731-0.589-3.351-0.754-4.867C911.546,591.749,912.133,590.769,912.605,589.834z"/>
				<path fill="#46304D" d="M901.717,583.638c1.213,0.14,2.353,0.196,3.42,0.207c-0.814,0.669-1.648,1.467-2.496,2.344
					c-1.505,0.169-3.15,0.288-4.928,0.344C899.104,585.44,900.445,584.469,901.717,583.638z"/>
				<path fill="#C096B3" d="M976.256,649.188c16.62,11.86,32.789,21.624,46.547,28.418c12.126,18.633,17.488,32.919,12.787,37.171
					c-4.71,4.262-18.454-2.465-35.852-16.346c-5.43-14.292-13.587-31.302-23.796-48.973c-0.157-0.285-0.333-0.568-0.491-0.853
					C975.72,648.807,975.978,648.998,976.256,649.188z"/>
				<path fill="#975C87" d="M975.451,648.606c0.157,0.285,0.334,0.568,0.491,0.853c10.209,17.671,18.366,34.68,23.796,48.973
					c-12.007-9.578-25.77-22.55-39.498-37.666c-0.212-0.243-0.445-0.484-0.658-0.727c-3.936-12.242-8.236-23.691-12.633-33.875
					C955.332,633.474,964.96,641.098,975.451,648.606z"/>
				<path fill="#4E3053" d="M896.467,579.258c1.665,0.702,3.242,1.291,4.724,1.759c-1.392,0.525-2.864,1.161-4.396,1.909
					c-2.27-0.415-4.728-0.996-7.352-1.705C891.94,580.431,894.282,579.777,896.467,579.258z"/>
				<path fill="#58325A" d="M918.979,597.106c1.355,1.872,2.915,3.87,4.667,5.965c0.482,3.64,0.853,7.657,1.09,11.994
					c-2.346-3.715-4.385-7.232-6.113-10.511C918.857,601.893,918.975,599.403,918.979,597.106z"/>
				<path fill="#46304D" d="M906.048,590.384c1.041-0.652,1.994-1.291,2.828-1.941c-0.221,1.028-0.395,2.172-0.535,3.382
					c-1.08,1.055-2.314,2.158-3.673,3.277C905.096,593.397,905.552,591.809,906.048,590.384z"/>
				<path fill="#4E3053" d="M913.562,593.126c0.475,1.46,1.083,3.021,1.787,4.665c-0.509,2.217-1.171,4.628-1.96,7.183
					c-0.732-2.619-1.316-5.071-1.75-7.335C912.397,596.043,913.035,594.542,913.562,593.126z"/>
				<path fill="#46304D" d="M902.641,586.188c1.223-0.144,2.374-0.333,3.405-0.555c-0.646,0.836-1.274,1.78-1.915,2.821
					c-1.432,0.507-3.005,0.963-4.726,1.398C900.514,588.493,901.592,587.271,902.641,586.188z"/>
				<path fill="#663662" d="M923.646,603.071c2.391,2.823,5.117,5.814,8.174,8.934c1.678,6.029,3.259,12.777,4.663,20.062
					c-4.462-5.967-8.407-11.678-11.747-17.001C924.5,610.729,924.128,606.711,923.646,603.071z"/>
				<path fill="#46304D" d="M907.301,587.198c-0.441,0.962-0.855,2.021-1.253,3.186c-1.275,0.792-2.716,1.583-4.285,2.372
					c0.789-1.587,1.579-3.008,2.368-4.302C905.287,588.049,906.344,587.631,907.301,587.198z"/>
				<path fill="#7B4170" d="M931.821,612.005c4.418,4.503,9.48,9.264,15.128,14.16c4.397,10.184,8.698,21.633,12.633,33.875
					c-8.661-9.582-16.452-19.054-23.099-27.973C935.08,624.782,933.499,618.034,931.821,612.005z"/>
				<path fill="#58325A" d="M889.564,576.014c2.448,1.266,4.745,2.344,6.902,3.245c-2.185,0.519-4.526,1.173-7.024,1.962
					c-3.561-0.952-7.424-2.17-11.549-3.639C882.081,576.877,885.978,576.354,889.564,576.014z"/>
				<path fill="#4E3053" d="M902.641,586.188c-1.049,1.083-2.127,2.305-3.235,3.665c-2.21,0.569-4.661,1.073-7.301,1.518
					c1.957-1.816,3.829-3.432,5.608-4.838C899.491,586.476,901.136,586.357,902.641,586.188z"/>
				<path fill="#4E3053" d="M896.794,582.926c1.755,0.326,3.396,0.569,4.923,0.712c-1.272,0.831-2.613,1.803-4.004,2.895
					c-2.294,0.075-4.811,0.044-7.521-0.083C892.513,585.083,894.72,583.908,896.794,582.926z"/>
				<path fill="#663662" d="M878.813,569.937c3.785,2.337,7.393,4.372,10.752,6.077c-3.587,0.34-7.484,0.863-11.671,1.568
					c-5.931-2.095-12.386-4.689-19.206-7.732C865.912,569.616,872.667,569.662,878.813,569.937z"/>
				<path fill="#4E3053" d="M910.884,592.772c0.166,1.516,0.407,3.136,0.754,4.867c-0.972,2.047-2.137,4.25-3.472,6.561
					c-0.149-2.67-0.197-5.161-0.133-7.442C909.11,595.37,910.063,594.038,910.884,592.772z"/>
				<path fill="#58325A" d="M915.348,597.791c0.922,2.11,2.011,4.369,3.275,6.764c-0.31,3.653-0.812,7.649-1.518,11.92
					c-1.492-4.094-2.732-7.947-3.717-11.501C914.177,602.419,914.839,600.008,915.348,597.791z"/>
				<path fill="#4E3053" d="M908.342,591.824c-0.167,1.515-0.266,3.162-0.308,4.934c-1.411,1.787-3.029,3.683-4.837,5.647
					c0.44-2.644,0.923-5.084,1.472-7.304C906.028,593.982,907.262,592.879,908.342,591.824z"/>
				<path fill="#4E3053" d="M899.406,589.853c1.721-0.435,3.293-0.891,4.726-1.398c-0.79,1.294-1.58,2.715-2.368,4.302
					c-2.031,1.038-4.307,2.061-6.791,3.064C896.48,593.608,897.964,591.612,899.406,589.853z"/>
				<path fill="#4E3053" d="M901.763,592.756c1.569-0.789,3.01-1.58,4.285-2.372c-0.497,1.425-0.952,3.013-1.38,4.718
					c-1.749,1.434-3.728,2.919-5.921,4.435C899.737,597.049,900.751,594.785,901.763,592.756z"/>
				<path fill="#58325A" d="M889.442,581.221c2.624,0.709,5.082,1.29,7.352,1.705c-2.074,0.982-4.281,2.157-6.602,3.523
					c-3.663-0.184-7.69-0.543-12.015-1.091C882.182,583.724,885.959,582.347,889.442,581.221z"/>
				<path fill="#7B4170" d="M861.328,558.172c6.137,4.469,12.023,8.423,17.484,11.765c-6.145-0.274-12.9-0.32-20.125-0.087
					c-10.143-4.517-21.08-10.026-32.301-16.371C838.843,554.595,850.66,556.206,861.328,558.172z"/>
				<path fill="#58325A" d="M911.639,597.639c0.434,2.264,1.017,4.716,1.75,7.335c-1.094,3.49-2.453,7.259-4.07,11.256
					c-0.569-4.319-0.961-8.355-1.151-12.03C909.501,601.889,910.667,599.686,911.639,597.639z"/>
				<path fill="#663662" d="M918.624,604.554c1.729,3.279,3.767,6.796,6.113,10.511c0.342,6.238,0.417,13.136,0.234,20.536
					c-3.091-6.784-5.736-13.21-7.865-19.127C917.812,612.204,918.313,608.208,918.624,604.554z"/>
				<path fill="#58325A" d="M890.192,586.449c2.71,0.127,5.227,0.158,7.521,0.083c-1.779,1.406-3.652,3.022-5.608,4.838
					c-3.626,0.616-7.631,1.135-11.977,1.536C883.673,590.447,887.034,588.282,890.192,586.449z"/>
				<path fill="#C096B3" d="M793.651,495.007c9.777,12.103,23.249,26.078,39.008,40.028c-19.3-6.006-37.51-10.156-52.524-12.288
					c-17.362-13.922-26.952-25.859-23.85-31.413C759.301,485.942,773.678,487.766,793.651,495.007z"/>
				<path fill="#975C87" d="M832.983,535.321c9.694,8.559,19.308,16.261,28.345,22.851c-10.668-1.966-22.485-3.577-34.942-4.693
					c-0.286-0.161-0.571-0.321-0.856-0.482c-17.747-10.079-33.424-20.631-45.395-30.25c15.015,2.132,33.225,6.282,52.524,12.288
					C832.764,535.127,832.879,535.229,832.983,535.321z"/>
				<path fill="#58325A" d="M903.197,602.405c1.809-1.965,3.427-3.86,4.837-5.647c-0.064,2.281-0.016,4.771,0.133,7.442
					c-1.823,3.158-3.971,6.559-6.421,10.112C902.117,610,902.59,606.016,903.197,602.405z"/>
				<path fill="#663662" d="M877.893,577.582c4.125,1.468,7.989,2.687,11.549,3.639c-3.483,1.126-7.261,2.503-11.265,4.137
					c-6.211-0.789-13.044-1.945-20.333-3.449C864.996,580.077,871.744,578.637,877.893,577.582z"/>
				<path fill="#58325A" d="M894.973,595.82c2.483-1.004,4.76-2.026,6.791-3.064c-1.012,2.029-2.026,4.293-3.016,6.781
					c-2.994,2.087-6.386,4.226-10.127,6.402C890.784,602.205,892.904,598.816,894.973,595.82z"/>
				<path fill="#58325A" d="M892.105,591.371c2.64-0.445,5.09-0.949,7.301-1.518c-1.442,1.759-2.925,3.755-4.433,5.968
					c-3.376,1.385-7.175,2.743-11.31,4.061C886.6,596.702,889.413,593.853,892.105,591.371z"/>
				<path fill="#58325A" d="M904.668,595.102c-0.548,2.219-1.032,4.66-1.472,7.304c-2.463,2.685-5.297,5.516-8.457,8.443
					c1.293-4.136,2.631-7.923,4.007-11.312C900.94,598.021,902.92,596.535,904.668,595.102z"/>
				<path fill="#7B4170" d="M924.737,615.065c3.34,5.324,7.285,11.035,11.747,17.001c2.106,10.864,3.858,22.95,5.09,35.709
					c-6.424-11.169-12.016-22.061-16.604-32.175C925.154,628.201,925.079,621.304,924.737,615.065z"/>
				<path fill="#663662" d="M913.388,604.974c0.985,3.554,2.225,7.407,3.717,11.501c-1.005,6.145-2.409,12.887-4.205,20.032
					c-1.559-7.257-2.763-14.074-3.582-20.277C910.935,612.232,912.294,608.464,913.388,604.974z"/>
				<path fill="#663662" d="M878.177,585.358c4.325,0.548,8.352,0.908,12.015,1.091c-3.159,1.833-6.519,3.998-10.064,6.458
					c-6.223,0.57-13.118,0.894-20.529,0.98C866.164,590.552,872.412,587.702,878.177,585.358z"/>
				<path fill="#7B4170" d="M858.687,569.85c6.82,3.043,13.275,5.638,19.206,7.732c-6.149,1.055-12.897,2.495-20.049,4.327
					c-10.846-2.269-22.696-5.315-34.99-9.119C835.529,571.158,847.655,570.21,858.687,569.85z"/>
				<path fill="#975C87" d="M936.484,632.067c6.646,8.918,14.438,18.391,23.099,27.973c0.1,0.308,0.2,0.615,0.3,0.922
					c6.2,19.373,10.513,37.665,12.75,52.755c-9.704-11.892-20.392-27.464-30.59-45.125c-0.155-0.266-0.313-0.55-0.468-0.815
					C940.342,655.017,938.59,642.931,936.484,632.067z"/>
				<path fill="#663662" d="M908.167,604.2c0.19,3.675,0.583,7.711,1.151,12.03c-2.313,5.775-5.15,12.038-8.433,18.638
					c0.026-7.411,0.322-14.309,0.852-20.545c0,0,0,0,0.009-0.01C904.196,610.758,906.344,607.358,908.167,604.2z"/>
				<path fill="#C096B3" d="M959.583,660.04c0.213,0.243,0.445,0.484,0.658,0.727c13.728,15.115,27.491,28.088,39.498,37.666
					c7.88,20.729,10.046,35.774,4.514,38.907c-5.544,3.125-17.554-6.364-31.619-23.622c-2.238-15.09-6.551-33.382-12.75-52.755
					C959.782,660.655,959.683,660.347,959.583,660.04z"/>
				<path fill="#663662" d="M880.128,592.907c4.346-0.401,8.351-0.92,11.977-1.536c-2.692,2.482-5.505,5.332-8.442,8.511
					c-5.933,1.904-12.597,3.71-19.818,5.39C869.544,600.604,875.015,596.448,880.128,592.907z"/>
				<path fill="#663662" d="M903.197,602.405c-0.607,3.611-1.08,7.595-1.451,11.907c-0.009,0.01-0.009,0.01-0.009,0.01
					c-3.505,5.106-7.611,10.577-12.26,16.264c1.627-7.185,3.4-13.821,5.263-19.738C897.9,607.921,900.734,605.09,903.197,602.405z"
					/>
				<path fill="#663662" d="M883.663,599.881c4.134-1.318,7.933-2.676,11.31-4.061c-2.069,2.996-4.188,6.385-6.352,10.119
					c-5.356,3.144-11.433,6.345-18.087,9.529C875.047,609.682,879.464,604.448,883.663,599.881z"/>
				<path fill="#7B4170" d="M917.105,616.475c2.129,5.917,4.774,12.343,7.865,19.127c-0.281,11.003-1.179,23.124-2.723,35.789
					c-3.888-12.254-7.01-24.07-9.348-34.883C914.696,629.362,916.1,622.619,917.105,616.475z"/>
				<path fill="#663662" d="M898.748,599.537c-1.376,3.388-2.714,7.175-4.007,11.312c-4.546,4.224-9.771,8.67-15.557,13.225
					c3.151-6.661,6.323-12.756,9.437-18.134C892.362,603.762,895.753,601.624,898.748,599.537z"/>
				<path fill="#7B4170" d="M883.663,599.881c-4.199,4.567-8.616,9.801-13.13,15.587c-9.892,4.747-21.067,9.456-33.041,13.827
					c8.978-8.97,17.909-17.067,26.353-24.023C871.066,603.592,877.73,601.785,883.663,599.881z"/>
				<path fill="#7B4170" d="M857.844,581.909c7.289,1.503,14.122,2.66,20.333,3.449c-5.765,2.344-12.013,5.194-18.579,8.529
					c-11.031,0.107-23.207-0.341-35.975-1.421C835.601,588.154,847.182,584.606,857.844,581.909z"/>
				<path fill="#975C87" d="M826.386,553.479c11.221,6.345,22.158,11.854,32.301,16.371c-11.032,0.361-23.158,1.308-35.833,2.94
					c-0.31-0.091-0.61-0.192-0.92-0.283c-19.451-6.067-36.979-13.049-50.703-19.904c15.195-1.143,33.966-0.973,54.189,0.791
					C825.746,553.425,826.061,553.447,826.386,553.479z"/>
				<path fill="#C096B3" d="M825.53,552.997c0.285,0.161,0.57,0.321,0.856,0.482c-0.325-0.031-0.64-0.054-0.965-0.085
					c-20.224-1.763-38.995-1.933-54.189-0.791c-19.899-9.934-31.803-19.565-29.982-25.666c1.821-6.1,16.953-7.298,38.886-4.19
					C792.106,532.365,807.783,542.917,825.53,552.997z"/>
				<path fill="#7B4170" d="M909.318,616.23c0.819,6.203,2.023,13.02,3.582,20.277c-2.644,10.671-6.131,22.277-10.383,34.286
					c-1.163-12.753-1.687-24.905-1.632-35.925C904.168,628.268,907.005,622.005,909.318,616.23z"/>
				<path fill="#7B4170" d="M859.599,593.887c7.411-0.087,14.307-0.41,20.529-0.98c-5.113,3.541-10.583,7.698-16.283,12.365
					c-10.697,2.484-22.639,4.653-35.292,6.323C839.289,604.798,849.799,598.825,859.599,593.887z"/>
				<path fill="#975C87" d="M924.971,635.602c4.588,10.114,10.18,21.006,16.604,32.175c0.022,0.312,0.063,0.622,0.085,0.934
					c1.892,20.173,2.174,38.907,1.12,54.067c-6.941-13.653-14.042-31.101-20.242-50.474c-0.1-0.308-0.189-0.605-0.289-0.913
					C923.792,658.726,924.689,646.604,924.971,635.602z"/>
				<path fill="#C096B3" d="M941.574,667.776c0.156,0.265,0.313,0.55,0.468,0.815c10.199,17.662,20.886,33.234,30.59,45.125
					c3.253,21.868,2.137,36.993-3.966,38.837c-6.093,1.854-15.821-9.968-25.887-29.777c1.055-15.16,0.772-33.894-1.12-54.067
					C941.638,668.398,941.596,668.088,941.574,667.776z"/>
				<path fill="#7B4170" d="M901.737,614.322c-0.529,6.236-0.826,13.134-0.852,20.545c-4.898,9.776-10.811,20.301-17.549,31.046
					c1.603-12.667,3.706-24.619,6.141-35.328C894.125,624.899,898.231,619.429,901.737,614.322z"/>
				<path fill="#7B4170" d="M894.74,610.848c-1.863,5.917-3.636,12.553-5.263,19.738c-6.907,8.496-14.973,17.485-23.926,26.512
					c4.304-11.963,8.938-23.123,13.633-33.024C884.969,619.519,890.194,615.072,894.74,610.848z"/>
				<path fill="#7B4170" d="M870.533,615.468c6.655-3.184,12.731-6.386,18.087-9.529c-3.114,5.378-6.286,11.474-9.437,18.134
					c-8.605,6.76-18.454,13.772-29.157,20.616C856.836,633.97,863.792,624.093,870.533,615.468z"/>
				<path fill="#975C87" d="M822.854,572.79c12.294,3.804,24.144,6.85,34.99,9.119c-10.662,2.697-22.243,6.245-34.22,10.557
					c-0.325-0.031-0.659-0.052-0.984-0.083c-20.243-1.762-38.818-4.846-53.655-8.611c14.535-4.392,32.847-8.244,52.928-10.862
					C822.224,572.873,822.543,572.826,822.854,572.79z"/>
				<path fill="#C096B3" d="M822.854,572.79c-0.311,0.036-0.63,0.083-0.941,0.119c-20.082,2.619-38.393,6.471-52.928,10.862
					c-21.492-5.458-35.139-12.337-34.677-18.707c0.441-6.368,14.916-10.795,36.923-12.462c13.723,6.855,31.252,13.837,50.703,19.904
					C822.244,572.598,822.544,572.699,822.854,572.79z"/>
				<path fill="#975C87" d="M912.9,636.507c2.337,10.813,5.46,22.629,9.348,34.883c-0.037,0.315-0.082,0.64-0.119,0.955
					c-2.502,20.038-6.263,38.326-10.563,52.85c-3.869-14.777-7.082-33.285-8.964-53.468c-0.022-0.312-0.063-0.623-0.085-0.934
					C906.769,658.784,910.257,647.178,912.9,636.507z"/>
				<path fill="#C096B3" d="M922.248,671.39c0.1,0.308,0.189,0.605,0.289,0.913c6.2,19.373,13.301,36.82,20.242,50.474
					c-1.533,21.99-5.886,36.448-12.261,36.939c-6.375,0.49-13.36-13.092-18.951-34.521c4.3-14.524,8.061-32.812,10.563-52.85
					C922.166,672.03,922.211,671.705,922.248,671.39z"/>
				<path fill="#975C87" d="M865.551,657.098c8.954-9.027,17.02-18.016,23.926-26.512c-2.436,10.708-4.539,22.66-6.141,35.328
					c-0.167,0.273-0.353,0.547-0.52,0.82c-10.729,17.012-21.873,31.905-31.931,43.171c2.706-14.926,7.562-32.941,14.337-51.909
					C865.328,657.687,865.444,657.387,865.551,657.098z"/>
				<path fill="#975C87" d="M823.624,592.466c12.768,1.081,24.944,1.528,35.975,1.421c-9.8,4.938-20.31,10.911-31.045,17.708
					c-0.319,0.046-0.63,0.083-0.95,0.129c-20.062,2.617-38.792,3.579-54.044,3.083c13.186-7.427,30.169-15.138,49.138-22.007
					C823.003,592.685,823.319,592.58,823.624,592.466z"/>
				<path fill="#C096B3" d="M823.624,592.466c-0.305,0.114-0.621,0.219-0.926,0.333c-18.969,6.87-35.952,14.58-49.138,22.007
					c-22.079-0.734-36.87-4.55-37.796-10.884c-0.937-6.343,12.18-13.796,33.221-20.151c14.836,3.765,33.412,6.849,53.655,8.611
					C822.965,592.414,823.299,592.435,823.624,592.466z"/>
				<path fill="#975C87" d="M900.885,634.868c-0.055,11.02,0.469,23.172,1.632,35.925c-0.107,0.289-0.203,0.588-0.31,0.877
					c-6.775,18.969-14.396,35.95-21.752,49.163c-0.603-15.218,0.251-33.916,2.753-53.954c0.046-0.325,0.083-0.64,0.128-0.965
					C890.074,655.168,895.987,644.644,900.885,634.868z"/>
				<path fill="#C096B3" d="M902.517,670.793c0.022,0.312,0.063,0.622,0.085,0.934c1.882,20.183,5.095,38.69,8.964,53.468
					c-6.237,21.051-13.628,34.197-19.993,33.309c-6.355-0.898-10.26-15.615-11.12-37.671c7.357-13.213,14.977-30.194,21.752-49.163
					C902.314,671.381,902.41,671.082,902.517,670.793z"/>
				<path fill="#975C87" d="M828.554,611.595c12.653-1.67,24.595-3.839,35.292-6.323c-8.444,6.957-17.375,15.054-26.353,24.023
					c-0.296,0.104-0.582,0.217-0.877,0.321c-18.959,6.878-36.987,11.84-51.93,14.611c11.237-10.098,26.104-21.302,43.063-32.12
					C828.01,611.937,828.292,611.765,828.554,611.595z"/>
				<path fill="#C096B3" d="M828.554,611.595c-0.262,0.17-0.543,0.342-0.805,0.513c-16.959,10.818-31.827,22.021-43.063,32.12
					c-21.654,4.042-36.862,3.475-39.125-2.542c-2.273-6.006,8.893-16.13,28-26.878c15.251,0.497,33.982-0.465,54.044-3.083
					C827.924,611.678,828.234,611.641,828.554,611.595z"/>
				<path fill="#C096B3" d="M883.336,665.914c-0.045,0.325-0.082,0.64-0.128,0.965c-2.502,20.038-3.356,38.736-2.753,53.954
					c-10.658,19.139-20.731,30.338-26.769,28.112s-6.696-17.401-2.8-39.04c10.058-11.266,21.202-26.159,31.931-43.171
					C882.983,666.461,883.169,666.187,883.336,665.914z"/>
				<path fill="#975C87" d="M837.493,629.295c11.973-4.371,23.149-9.08,33.041-13.827c-6.741,8.625-13.697,18.501-20.506,29.221
					c-0.262,0.171-0.524,0.341-0.786,0.512c-16.979,10.819-33.439,19.557-47.377,25.48c8.751-12.311,20.787-26.489,34.971-40.726
					C837.054,629.729,837.283,629.512,837.493,629.295z"/>
				<path fill="#C096B3" d="M837.493,629.295c-0.209,0.217-0.439,0.434-0.658,0.661c-14.184,14.236-26.219,28.415-34.971,40.726
					c-20.208,8.608-35.116,11.318-38.627,5.917c-3.503-5.413,5.17-17.719,21.448-32.371c14.943-2.771,32.971-7.732,51.93-14.611
					C836.911,629.512,837.197,629.399,837.493,629.295z"/>
				<path fill="#975C87" d="M879.184,624.073c-4.694,9.902-9.329,21.062-13.633,33.024c-0.219,0.227-0.448,0.445-0.667,0.672
					c-14.183,14.255-28.331,26.368-40.617,35.174c5.856-13.953,14.529-30.443,25.258-47.455c0.167-0.273,0.344-0.537,0.501-0.799
					C860.729,637.846,870.579,630.833,879.184,624.073z"/>
				<path fill="#C096B3" d="M865.551,657.098c-0.107,0.29-0.223,0.589-0.328,0.898c-6.775,18.968-11.632,36.983-14.337,51.909
					c-14.563,16.349-26.846,25.067-32.296,21.607c-5.44-3.47-2.81-18.354,5.678-38.568c12.286-8.806,26.434-20.919,40.617-35.174
					C865.103,657.542,865.332,657.325,865.551,657.098z"/>
				<path fill="#C096B3" d="M850.027,644.689c-0.157,0.263-0.334,0.526-0.501,0.799c-10.729,17.012-19.402,33.502-25.258,47.455
					c-17.801,12.76-31.715,18.613-36.301,14.071c-4.567-4.544,1.222-18.483,13.898-36.333c13.938-5.923,30.398-14.662,47.377-25.48
					C849.503,645.031,849.765,644.86,850.027,644.689z"/>
			</g>
			<g>
			</g>
		</g>
	</g>
</g>
<g id="Capa_3" display="none">
	<path display="inline" opacity="0.5" fill="#008D36" d="M108.443,215.462l-11.67,18.223c0,0,130.125,32.353,170.968-9.111
		c40.838-41.464,0-60.8,0-60.8s-35.594-17.105-89.275-14.875l-21.008,18.223L139.955,148.7c0,0-57.186-0.918-83.445,19.166
		c-26.26,20.08,12.249,53.919,12.249,53.919L108.443,215.462z"/>
	<path display="inline" fill="#008D36" d="M281.155,61.468l18.197-37.039c0,0-202.903-65.767-266.589,18.519
		c-63.686,84.285,0,123.592,0,123.592s55.496,34.773,139.207,30.238l32.753-37.041l27.299,37.448c0,0,89.17,1.861,130.112-38.959
		c40.943-40.819-19.109-109.608-19.109-109.608L281.155,61.468z"/>
	<path display="inline" opacity="0.5" fill="#008D36" d="M411.746,209.343l7.085-15.559c0,0-79.001-27.628-103.8,7.779
		c-24.799,35.406,0,51.917,0,51.917s21.61,14.609,54.202,12.703l12.757-15.56l10.628,15.731c0,0,34.72,0.782,50.659-16.365
		c15.945-17.147-7.439-46.045-7.439-46.045L411.746,209.343z"/>
</g>
<g id="Capa_4">
	<path fill="#006633" d="M612.794,214.637l31.426-63.942c0,0-350.293-113.537-460.243,31.97c-109.939,145.507,0,213.361,0,213.361
		s95.821,60.031,240.324,52.202l56.554-63.945l47.118,64.652c0,0,153.939,3.213,224.623-67.257
		c70.681-70.471-32.979-189.225-32.979-189.225L612.794,214.637z"/>
	<path fill="#008D36" d="M104.855,149.389l-20.03,40.766c0,0,223.326,72.385,293.419-20.381c70.093-92.769,0-136.03,0-136.03
		S317.16-4.53,225.033,0.464l-36.052,40.767L158.936,0.014c0,0-98.146-2.048-143.207,42.88
		c-45.062,44.927,21.025,120.638,21.025,120.638L104.855,149.389z"/>
</g>
</svg>
