<?xml version="1.0" encoding="utf-8"?>
<!-- Generator: Adobe Illustrator 16.0.0, SVG Export Plug-In . SVG Version: 6.00 Build 0)  -->
<!DOCTYPE svg PUBLIC "-//W3C//DTD SVG 1.1//EN" "http://www.w3.org/Graphics/SVG/1.1/DTD/svg11.dtd">
<svg version="1.1" xmlns="http://www.w3.org/2000/svg" xmlns:xlink="http://www.w3.org/1999/xlink" x="0px" y="0px"
	 width="459.967px" height="454.619px" viewBox="0 0 459.967 454.619" enable-background="new 0 0 459.967 454.619"
	 xml:space="preserve">
<g id="Capa_1">
	<path fill="#006633" d="M147.286,153.05c-69.194,78.375-66.534,193.78,5.942,257.766c56.098,49.525,177.846,59.758,203.609,16.723
		c25.765-43.033-52.854-136.147-52.854-136.147s113.027,68.53,141.642,35.588c28.615-32.941,14.278-150.453-41.825-199.984
		C331.324,63.01,216.479,74.676,147.286,153.05z"/>
</g>
<g id="Capa_2">
	<g>
		<g id="XMLID_3_">
			<g>
				<path fill="#C096B3" d="M290.118,39.729c5.049,4.019,0.866,18.537-9.74,37.722c-13.155,7.455-28.51,17.991-44.127,30.633
					c-0.25,0.199-0.509,0.409-0.749,0.617c0.146-0.292,0.272-0.582,0.418-0.873c8.743-18.126,15.494-35.491,19.743-50.041
					C271.9,43.097,285.06,35.72,290.118,39.729z"/>
				<path fill="#C096B3" d="M280.378,77.451c19.093-10.815,33.582-15.175,37.661-10.185c4.08,4.99-3.148,18.226-17.67,34.611
					c-14.513,4.43-31.823,11.375-49.864,20.326c-0.293,0.143-0.576,0.295-0.86,0.428c0.198-0.246,0.396-0.491,0.603-0.747
					C262.721,106.137,273.081,90.68,280.378,77.451z"/>
				<path fill="#C096B3" d="M257.002,18.749c5.788,2.845,4.838,17.971-1.339,39.038c-11.195,10.135-23.856,23.761-36.337,39.519
					c-0.207,0.255-0.395,0.51-0.602,0.766c0.076-0.317,0.151-0.634,0.227-0.951c4.595-19.633,7.414-38.095,8.43-53.253
					C239.995,25.962,251.214,15.903,257.002,18.749z"/>
				<path fill="#C096B3" d="M300.37,101.876c21.036-6.434,36.183-7.563,39.112-1.817c2.928,5.727-7.009,17.046-24.776,29.872
					c-15.171,1.2-33.646,4.25-53.269,9.082c-0.308,0.075-0.616,0.15-0.924,0.226c0.25-0.199,0.5-0.398,0.75-0.598
					C276.88,125.98,290.353,113.18,300.37,101.876z"/>
				<path fill="#C096B3" d="M220.249,5.296c6.245,1.55,8.586,16.585,7.132,38.571c-8.721,12.338-18.117,28.408-26.851,46.524
					c-0.137,0.281-0.283,0.572-0.409,0.863c-0.004-0.333,0.002-0.655,0.009-0.979c0.238-20.229-1.002-38.931-3.288-54.008
					C205.269,16.017,214.004,3.747,220.249,5.296z"/>
				<path fill="#C096B3" d="M314.706,129.931c22.004-1.725,37.078,0.424,38.709,6.631c1.631,6.208-10.552,15.086-30.736,23.751
					c-15.13-2.106-33.881-3.099-54.142-2.611c-0.323,0.008-0.625,0.014-0.948,0.022c0.284-0.133,0.568-0.265,0.842-0.407
					C286.473,148.367,302.452,138.784,314.706,129.931z"/>
				<path fill="#C096B3" d="M181.584,0.002c6.413,0.182,11.937,14.411,15.258,36.266c-5.816,13.97-11.483,31.726-16.088,51.369
					c-0.075,0.317-0.142,0.624-0.217,0.94c-0.071-0.319-0.124-0.639-0.195-0.958c-4.131-19.885-9.378-37.96-14.848-52.251
					C169.331,13.714,175.181-0.19,181.584,0.002z"/>
				<path fill="#C096B3" d="M322.68,160.313c21.938,3.04,36.27,8.386,36.534,14.774c0.265,6.389-13.608,12.406-35.258,16.507
					c-14.376-5.295-32.539-10.297-52.5-14.167c-0.317-0.061-0.654-0.121-0.972-0.182c0.317-0.085,0.635-0.151,0.952-0.237
					C291.038,172.178,308.765,166.294,322.68,160.313z"/>
				<path fill="#975C87" d="M219.326,97.305c12.481-15.757,25.143-29.383,36.337-39.519c-4.249,14.55-11,31.915-19.743,50.041
					c-0.146,0.292-0.272,0.582-0.418,0.873c-9.848,8-18.83,16.07-26.606,23.763c3.546-10.368,6.894-22.005,9.828-34.393
					C218.931,97.815,219.119,97.561,219.326,97.305z"/>
				<path fill="#C096B3" d="M142.828,3.12c6.266-1.208,14.72,11.553,22.667,32.249c-2.656,14.934-4.347,33.57-4.583,53.818
					c-0.007,0.323-0.013,0.646-0.011,0.958c-0.129-0.296-0.257-0.592-0.386-0.888c-8.317-18.594-17.314-35.177-25.733-47.998
					C133.854,19.216,136.552,4.319,142.828,3.12z"/>
				<path fill="#975C87" d="M236.251,108.083c15.617-12.642,30.972-23.178,44.127-30.633c-7.297,13.229-17.657,28.687-30.13,44.433
					c-0.207,0.256-0.405,0.501-0.603,0.747c-11.381,5.678-21.924,11.604-31.201,17.422c5.712-9.332,11.502-19.928,17.058-31.352
					C235.742,108.492,236.001,108.283,236.251,108.083z"/>
				<path fill="#975C87" d="M250.506,122.203c18.041-8.951,35.351-15.896,49.864-20.326c-10.017,11.304-23.489,24.104-39.105,36.765
					c-0.25,0.199-0.5,0.398-0.75,0.598c-12.376,3.083-23.99,6.583-34.339,10.25c7.607-7.859,15.57-16.921,23.471-26.859
					C249.93,122.498,250.213,122.345,250.506,122.203z"/>
				<path fill="#C096B3" d="M323.955,191.595c20.855,7.673,33.748,15.931,32.625,22.209c-1.123,6.278-16,9.163-38.093,8.507
					c-12.949-8.236-29.686-17.021-48.425-25.071c-0.282-0.122-0.576-0.252-0.867-0.364c0.312-0.017,0.634-0.025,0.938-0.031
					C290.392,196.339,309.026,194.434,323.955,191.595z"/>
				<path fill="#975C87" d="M227.381,43.867c-1.016,15.158-3.835,33.62-8.43,53.253c-0.075,0.317-0.151,0.634-0.227,0.951
					c-7.85,9.964-14.858,19.796-20.755,29.02c1.206-10.936,1.965-23.069,2.152-35.836c0.126-0.291,0.272-0.582,0.409-0.863
					C209.264,72.275,218.66,56.205,227.381,43.867z"/>
				<path fill="#975C87" d="M261.438,139.013c19.622-4.832,38.098-7.882,53.269-9.082c-12.254,8.853-28.233,18.436-46.273,27.386
					c-0.274,0.142-0.558,0.274-0.842,0.407c-12.805,0.349-24.953,1.258-35.896,2.611c9.167-6.008,18.939-13.124,28.819-21.097
					C260.822,139.164,261.129,139.088,261.438,139.013z"/>
				<path fill="#975C87" d="M196.842,36.268c2.286,15.078,3.526,33.78,3.288,54.008c-0.007,0.323-0.013,0.646-0.009,0.979
					c-5.496,11.44-10.181,22.574-13.947,32.875c-1.184-10.963-3.05-23.003-5.637-35.553c0.076-0.317,0.142-0.624,0.217-0.94
					C185.359,67.993,191.026,50.238,196.842,36.268z"/>
				<path fill="#975C87" d="M268.538,157.702c20.261-0.487,39.011,0.505,54.142,2.611c-13.915,5.981-31.642,11.864-51.245,16.696
					c-0.317,0.085-0.635,0.151-0.952,0.237c-12.608-2.418-24.678-4.143-35.682-5.181c10.276-3.878,21.375-8.71,32.789-14.341
					C267.913,157.716,268.215,157.71,268.538,157.702z"/>
				<path fill="#C096B3" d="M105.789,14.493c5.85-2.525,16.8,8.166,28.992,26.766c0.651,15.205,3.031,33.836,7.161,53.702
					c0.071,0.319,0.132,0.628,0.204,0.947c-0.194-0.263-0.379-0.518-0.573-0.781c-12.099-16.435-24.43-30.755-35.375-41.514
					C100.52,32.198,99.939,17.018,105.789,14.493z"/>
				<path fill="#7B4170" d="M249.646,122.63c-7.901,9.938-15.864,19-23.471,26.859c-6.969,2.468-13.376,5.013-19.037,7.577
					c3.668-5.017,7.464-10.726,11.307-17.013C227.722,134.234,238.264,128.308,249.646,122.63z"/>
				<path fill="#975C87" d="M165.495,35.368c5.469,14.291,10.716,32.366,14.848,52.251c0.071,0.319,0.124,0.639,0.195,0.958
					c-2.874,12.404-5.038,24.32-6.482,35.209c-3.52-10.504-7.933-21.89-13.155-33.642c-0.002-0.313,0.004-0.636,0.011-0.958
					C161.147,68.938,162.838,50.302,165.495,35.368z"/>
				<path fill="#975C87" d="M271.455,177.428c19.961,3.87,38.124,8.872,52.5,14.167c-14.929,2.839-33.563,4.744-53.823,5.25
					c-0.303,0.006-0.625,0.014-0.938,0.031c-11.846-5.07-23.332-9.348-33.904-12.727c10.898-1.576,22.811-3.88,35.192-6.904
					C270.8,177.307,271.137,177.367,271.455,177.428z"/>
				<path fill="#C096B3" d="M318.487,222.312c18.759,11.94,29.609,22.743,27.156,28.614c-2.454,5.871-17.659,5.469-39.176,0.081
					c-10.917-10.79-25.424-22.92-42.044-34.781c-0.258-0.191-0.536-0.382-0.803-0.563c0.317,0.061,0.635,0.122,0.952,0.183
					C284.544,219.725,303.238,221.854,318.487,222.312z"/>
				<path fill="#7B4170" d="M235.502,108.701c-5.556,11.424-11.346,22.021-17.058,31.352c-6.242,3.915-11.899,7.778-16.863,11.487
					c2.475-5.706,4.93-12.104,7.315-19.076C216.672,124.771,225.654,116.701,235.502,108.701z"/>
				<path fill="#975C87" d="M134.781,41.259c8.419,12.821,17.417,29.403,25.733,47.998c0.128,0.296,0.257,0.592,0.386,0.888
					c-0.126,12.784,0.348,24.929,1.299,35.924c-5.673-9.538-12.44-19.75-20.053-30.161c-0.071-0.319-0.132-0.628-0.204-0.947
					C137.812,75.095,135.432,56.463,134.781,41.259z"/>
				<path fill="#7B4170" d="M218.724,98.071c-2.934,12.388-6.282,24.025-9.828,34.393c-5.233,5.17-9.919,10.184-13.951,14.898
					c1.184-6.115,2.21-12.935,3.024-20.271C203.866,117.867,210.874,108.035,218.724,98.071z"/>
				<path fill="#7B4170" d="M226.174,149.489c10.349-3.667,21.963-7.168,34.339-10.25c-9.879,7.973-19.652,15.089-28.819,21.097
					c-7.354,0.905-14.166,1.996-20.281,3.265C216.097,159.515,221.058,154.78,226.174,149.489z"/>
				<path fill="#7B4170" d="M200.121,91.254c-0.187,12.767-0.946,24.9-2.152,35.836c-3.968,6.177-7.437,12.083-10.348,17.568
					c-0.177-6.256-0.652-13.142-1.447-20.529C189.94,113.828,194.625,102.695,200.121,91.254z"/>
				<path fill="#7B4170" d="M231.695,160.335c10.943-1.353,23.091-2.263,35.896-2.611c-11.415,5.631-22.513,10.462-32.789,14.341
					c-7.408-0.695-14.315-1.095-20.574-1.177C219.674,167.915,225.55,164.372,231.695,160.335z"/>
				<path fill="#975C87" d="M270.062,197.241c18.739,8.051,35.476,16.835,48.425,25.071c-15.249-0.458-33.942-2.587-53.915-6.466
					c-0.317-0.061-0.635-0.122-0.952-0.183c-10.518-7.478-20.849-14.096-30.468-19.647c11.037,0.812,23.233,1.131,36.042,0.861
					C269.486,196.988,269.78,197.119,270.062,197.241z"/>
				<path fill="#7B4170" d="M180.537,88.577c2.587,12.549,4.454,24.59,5.637,35.553c-2.526,6.92-4.648,13.467-6.29,19.47
					c-1.506-6.097-3.463-12.756-5.829-19.813C175.499,112.896,177.664,100.98,180.537,88.577z"/>
				<path fill="#C096B3" d="M72.191,33.6c5.149-3.729,18.13,4.408,34.006,20.013c3.898,14.766,10.227,32.5,18.534,51.084
					c0.128,0.296,0.267,0.601,0.405,0.887c-0.24-0.212-0.49-0.433-0.73-0.645c-15.318-13.524-30.397-24.9-43.383-33.095
					C70.891,52.087,67.053,37.337,72.191,33.6z"/>
				<path fill="#7B4170" d="M234.801,172.065c11.004,1.039,23.074,2.763,35.682,5.181c-12.381,3.024-24.294,5.329-35.192,6.904
					c-7.098-2.266-13.786-4.134-19.905-5.573C221.372,176.866,227.9,174.666,234.801,172.065z"/>
				<path fill="#663662" d="M194.945,147.362c4.032-4.714,8.718-9.728,13.951-14.898c-2.385,6.972-4.841,13.37-7.315,19.076
					c-3.468,2.583-6.599,5.097-9.344,7.514C193.222,155.54,194.12,151.62,194.945,147.362z"/>
				<path fill="#975C87" d="M106.197,53.613c10.945,10.759,23.277,25.08,35.375,41.514c0.194,0.263,0.379,0.518,0.573,0.781
					c2.626,12.547,5.708,24.346,8.997,34.902c-7.598-8.114-16.363-16.674-26.007-25.225c-0.138-0.286-0.276-0.591-0.405-0.887
					C116.424,86.112,110.096,68.379,106.197,53.613z"/>
				<path fill="#7B4170" d="M160.9,90.145c5.222,11.752,9.635,23.137,13.155,33.642c-0.971,7.326-1.604,14.183-1.927,20.418
					c-2.785-5.637-6.111-11.733-9.929-18.136C161.248,115.073,160.774,102.928,160.9,90.145z"/>
				<path fill="#663662" d="M201.581,151.54c4.964-3.708,10.622-7.572,16.863-11.487c-3.843,6.288-7.639,11.996-11.307,17.013
					c-3.947,1.758-7.551,3.526-10.734,5.282C198.113,159.127,199.845,155.504,201.581,151.54z"/>
				<path fill="#663662" d="M207.137,157.066c5.661-2.563,12.068-5.108,19.037-7.577c-5.117,5.291-10.077,10.026-14.76,14.111
					c-4.244,0.874-8.141,1.818-11.66,2.838C202.124,163.691,204.593,160.537,207.137,157.066z"/>
				<path fill="#663662" d="M197.969,127.09c-0.814,7.336-1.84,14.157-3.024,20.271c-2.804,3.26-5.293,6.396-7.446,9.317
					c0.193-3.647,0.231-7.687,0.122-12.021C190.532,139.173,194.001,133.268,197.969,127.09z"/>
				<path fill="#7B4170" d="M235.291,184.15c10.572,3.379,22.058,7.657,33.904,12.727c-12.81,0.271-25.005-0.049-36.042-0.861
					c-6.467-3.737-12.606-6.984-18.297-9.688C221.091,185.933,227.968,185.21,235.291,184.15z"/>
				<path fill="#663662" d="M211.414,163.6c6.115-1.269,12.927-2.359,20.281-3.265c-6.145,4.037-12.021,7.58-17.467,10.552
					c-4.349-0.059-8.395,0.022-12.057,0.259C205.08,168.967,208.18,166.443,211.414,163.6z"/>
				<path fill="#663662" d="M186.174,124.129c0.794,7.387,1.27,14.272,1.447,20.529c-2.031,3.814-3.792,7.429-5.249,10.782
					c-0.6-3.653-1.436-7.606-2.488-11.841C181.526,137.597,183.648,131.05,186.174,124.129z"/>
				<path fill="#975C87" d="M264.423,216.226c16.62,11.86,31.126,23.991,42.044,34.781c-14.842-3.715-32.69-9.811-51.43-17.861
					c-0.293-0.131-0.605-0.26-0.898-0.391c-8.706-9.531-17.389-18.183-25.635-25.646c10.635,3.161,22.504,6.078,35.117,8.555
					C263.887,215.844,264.165,216.035,264.423,216.226z"/>
				<path fill="#663662" d="M214.228,170.888c6.259,0.083,13.166,0.482,20.574,1.177c-6.901,2.601-13.43,4.801-19.416,6.512
					c-4.268-0.992-8.247-1.764-11.887-2.331C206.838,174.757,210.43,172.959,214.228,170.888z"/>
				<path fill="#7B4170" d="M142.146,95.908c7.613,10.411,14.38,20.623,20.053,30.161c0.637,7.375,1.483,14.241,2.535,20.412
					c-3.929-4.93-8.489-10.197-13.591-15.67C147.854,120.253,144.772,108.455,142.146,95.908z"/>
				<path fill="#663662" d="M174.055,123.786c2.366,7.058,4.323,13.717,5.829,19.813c-1.146,4.158-2.084,8.06-2.77,11.655
					c-1.376-3.425-3.046-7.128-4.986-11.051C172.452,137.969,173.084,131.112,174.055,123.786z"/>
				<path fill="#58325A" d="M201.581,151.54c-1.736,3.965-3.468,7.587-5.178,10.808c-2.356,1.28-4.498,2.55-6.406,3.806
					c0.789-2.135,1.532-4.511,2.24-7.101C194.982,156.637,198.113,154.122,201.581,151.54z"/>
				<path fill="#663662" d="M215.386,178.577c6.12,1.439,12.808,3.307,19.905,5.573c-7.323,1.06-14.2,1.783-20.436,2.178
					c-3.968-1.878-7.694-3.505-11.144-4.834C207.31,180.763,211.214,179.79,215.386,178.577z"/>
				<path fill="#58325A" d="M196.403,162.348c3.184-1.756,6.788-3.524,10.734-5.282c-2.544,3.471-5.013,6.625-7.383,9.373
					c-2.57,0.745-4.942,1.518-7.067,2.327C193.912,166.852,195.15,164.712,196.403,162.348z"/>
				<path fill="#58325A" d="M194.945,147.362c-0.825,4.258-1.723,8.178-2.708,11.691c-2,1.76-3.798,3.46-5.385,5.09
					c0.299-2.274,0.515-4.769,0.648-7.464C189.652,153.757,192.142,150.622,194.945,147.362z"/>
				<path fill="#58325A" d="M199.754,166.438c3.52-1.021,7.416-1.964,11.66-2.838c-3.234,2.843-6.334,5.367-9.244,7.547
					c-2.689,0.165-5.177,0.417-7.444,0.734C196.336,170.289,198.018,168.468,199.754,166.438z"/>
				<path fill="#58325A" d="M187.621,144.658c0.11,4.334,0.072,8.374-0.122,12.021c-1.56,2.166-2.951,4.226-4.145,6.167
					c-0.2-2.277-0.531-4.761-0.982-7.406C183.829,152.087,185.59,148.473,187.621,144.658z"/>
				<path fill="#7B4170" d="M233.152,196.016c9.619,5.551,19.95,12.169,30.468,19.647c-12.612-2.477-24.482-5.395-35.117-8.555
					c-5.531-5.029-10.857-9.512-15.846-13.368C218.861,194.705,225.745,195.467,233.152,196.016z"/>
				<path fill="#4E3053" d="M199.754,166.438c-1.736,2.029-3.417,3.851-5.028,5.443c-1.753,0.261-3.366,0.553-4.859,0.897
					c0.924-1.194,1.867-2.535,2.819-4.014C194.812,167.957,197.184,167.183,199.754,166.438z"/>
				<path fill="#663662" d="M162.199,126.068c3.817,6.402,7.144,12.499,9.929,18.136c-0.222,4.352-0.279,8.393-0.167,12.072
					c-2.076-3.075-4.509-6.355-7.227-9.796C163.682,140.31,162.836,133.444,162.199,126.068z"/>
				<path fill="#58325A" d="M202.17,171.147c3.663-0.237,7.708-0.318,12.057-0.259c-3.798,2.072-7.39,3.869-10.729,5.359
					c-2.681-0.413-5.168-0.708-7.45-0.878C197.969,174.16,200.022,172.739,202.17,171.147z"/>
				<path fill="#58325A" d="M179.884,143.6c1.052,4.235,1.888,8.188,2.488,11.841c-1.07,2.453-1.974,4.76-2.712,6.921
					c-0.693-2.201-1.546-4.58-2.546-7.106C177.8,151.66,178.739,147.757,179.884,143.6z"/>
				<path fill="#975C87" d="M124.405,104.939c0.24,0.212,0.491,0.433,0.73,0.645c5.132,11.454,10.533,22.121,15.888,31.598
					c-9.161-6.407-19.577-12.991-30.82-19.374c-0.122-0.072-0.245-0.143-0.367-0.215c-11.982-16.314-21.87-32.204-28.814-45.749
					C94.008,80.039,109.087,91.416,124.405,104.939z"/>
				<path fill="#C096B3" d="M306.467,251.007c15.821,15.647,24.124,28.494,20.449,33.688c-3.667,5.183-18.494,1.536-38.409-8.338
					c-8.373-12.853-19.973-27.77-33.709-42.875c-0.213-0.243-0.445-0.484-0.658-0.727c0.293,0.131,0.605,0.26,0.898,0.391
					C273.777,241.196,291.625,247.292,306.467,251.007z"/>
				<path fill="#58325A" d="M203.499,176.247c3.641,0.566,7.619,1.339,11.887,2.331c-4.171,1.212-8.076,2.186-11.674,2.917
					c-2.544-0.967-4.932-1.797-7.14-2.45C198.729,178.283,201.042,177.347,203.499,176.247z"/>
				<path fill="#663662" d="M214.855,186.329c5.69,2.704,11.83,5.95,18.297,9.688c-7.407-0.549-14.291-1.311-20.495-2.276
					c-3.467-2.677-6.775-5.05-9.864-7.083C206.477,186.712,210.511,186.602,214.855,186.329z"/>
				<path fill="#4E3053" d="M189.997,166.154c1.908-1.256,4.049-2.526,6.406-3.806c-1.252,2.365-2.491,4.504-3.716,6.417
					c-1.668,0.628-3.188,1.277-4.562,1.928C188.773,169.329,189.39,167.809,189.997,166.154z"/>
				<path fill="#4E3053" d="M192.237,159.053c-0.708,2.589-1.451,4.966-2.24,7.101c-1.479,0.959-2.801,1.911-3.987,2.854
					c0.336-1.475,0.604-3.102,0.841-4.865C188.439,162.513,190.237,160.813,192.237,159.053z"/>
				<path fill="#7B4170" d="M125.136,105.584c9.645,8.551,18.409,17.111,26.007,25.225c2.163,6.951,4.415,13.36,6.707,19.072
					c-4.945-4.074-10.6-8.353-16.826-12.7C135.668,127.705,130.268,117.038,125.136,105.584z"/>
				<path fill="#58325A" d="M172.128,144.204c1.94,3.923,3.61,7.625,4.986,11.051c-0.509,2.638-0.901,5.122-1.151,7.404
					c-1.14-2.011-2.474-4.139-4.002-6.383C171.849,152.597,171.906,148.556,172.128,144.204z"/>
				<path fill="#4E3053" d="M187.5,156.679c-0.133,2.695-0.349,5.19-0.648,7.464c-1.223,1.258-2.321,2.481-3.265,3.656
					c0-1.515-0.077-3.173-0.232-4.954C184.548,160.905,185.94,158.845,187.5,156.679z"/>
				<path fill="#4E3053" d="M194.726,171.881c2.268-0.318,4.755-0.569,7.444-0.734c-2.148,1.592-4.201,3.013-6.122,4.221
					c-1.78-0.129-3.438-0.186-4.954-0.172C192.26,174.233,193.483,173.122,194.726,171.881z"/>
				<path fill="#4E3053" d="M182.373,155.44c0.451,2.645,0.782,5.129,0.982,7.406c-0.921,1.506-1.73,2.948-2.407,4.304
					c-0.32-1.488-0.746-3.088-1.287-4.789C180.399,160.2,181.303,157.893,182.373,155.44z"/>
				<path fill="#46304D" d="M183.586,167.8c0.944-1.175,2.042-2.398,3.265-3.656c-0.238,1.763-0.505,3.39-0.841,4.865
					c-0.964,0.756-1.822,1.496-2.583,2.231C183.539,170.188,183.585,169.042,183.586,167.8z"/>
				<path fill="#663662" d="M151.143,130.81c5.102,5.473,9.662,10.74,13.591,15.67c0.697,4.195,1.478,8.063,2.352,11.574
					c-2.709-2.61-5.808-5.347-9.236-8.172C155.558,144.169,153.306,137.761,151.143,130.81z"/>
				<path fill="#58325A" d="M203.712,181.495c3.45,1.329,7.175,2.956,11.144,4.834c-4.345,0.273-8.378,0.383-12.062,0.328
					c-2.268-1.491-4.435-2.801-6.46-3.914C198.612,182.454,201.079,182.038,203.712,181.495z"/>
				<path fill="#4E3053" d="M196.048,175.368c2.282,0.17,4.769,0.466,7.45,0.878c-2.457,1.101-4.769,2.037-6.927,2.798
					c-1.7-0.515-3.304-0.926-4.803-1.227C193.119,177.129,194.549,176.309,196.048,175.368z"/>
				<path fill="#C096B3" d="M43.625,59.541c4.196-4.752,18.583,0.425,37.396,12.304c6.944,13.545,16.832,29.435,28.814,45.749
					C91.53,107.222,73.957,99.049,59.355,93.757C45.977,77.215,39.529,64.18,43.625,59.541z"/>
				<path fill="#58325A" d="M164.734,146.48c2.718,3.441,5.151,6.721,7.227,9.796c0.067,2.616,0.208,5.043,0.444,7.278
					c-1.552-1.754-3.335-3.583-5.319-5.5C166.212,154.543,165.431,150.675,164.734,146.48z"/>
				<path fill="#4E3053" d="M177.114,155.255c1,2.527,1.853,4.905,2.546,7.106c-0.567,1.673-1.043,3.243-1.399,4.719
					c-0.646-1.392-1.406-2.866-2.298-4.421C176.213,160.377,176.605,157.893,177.114,155.255z"/>
				<path fill="#46304D" d="M186.01,169.008c1.186-0.944,2.508-1.895,3.987-2.854c-0.607,1.655-1.224,3.175-1.872,4.539
					c-1.098,0.528-2.088,1.061-2.989,1.598C185.457,171.296,185.752,170.205,186.01,169.008z"/>
				<path fill="#46304D" d="M188.125,170.693c1.373-0.651,2.893-1.3,4.562-1.928c-0.953,1.479-1.896,2.82-2.819,4.014
					c-1.203,0.29-2.326,0.595-3.319,0.941C187.09,172.812,187.617,171.815,188.125,170.693z"/>
				<path fill="#46304D" d="M189.867,172.779c1.493-0.345,3.106-0.637,4.859-0.897c-1.243,1.24-2.466,2.352-3.632,3.314
					c-1.222,0.017-2.372,0.079-3.421,0.194C188.392,174.618,189.124,173.748,189.867,172.779z"/>
				<path fill="#46304D" d="M183.354,162.846c0.155,1.781,0.232,3.438,0.232,4.954c-0.775,0.941-1.455,1.857-2.028,2.739
					c-0.133-1.049-0.34-2.181-0.611-3.389C181.625,165.794,182.433,164.353,183.354,162.846z"/>
				<path fill="#663662" d="M212.658,193.74c4.988,3.856,10.314,8.339,15.846,13.368c-7.146-2.126-13.723-4.353-19.597-6.616
					c-2.83-3.357-5.548-6.377-8.151-9.023C204.348,192.321,208.335,193.083,212.658,193.74z"/>
				<path fill="#4E3053" d="M196.572,179.045c2.208,0.653,4.596,1.482,7.14,2.45c-2.633,0.543-5.1,0.959-7.379,1.249
					c-1.558-0.864-3.049-1.615-4.453-2.233C193.331,180.129,194.911,179.643,196.572,179.045z"/>
				<path fill="#46304D" d="M191.094,175.196c1.516-0.014,3.174,0.043,4.954,0.172c-1.5,0.941-2.929,1.761-4.28,2.45
					c-1.202-0.258-2.33-0.432-3.386-0.561C189.26,176.663,190.161,175.979,191.094,175.196z"/>
				<path fill="#413049" d="M189.867,172.779c-0.744,0.969-1.475,1.839-2.194,2.611c-0.01-0.009-0.01-0.009-0.009,0.01
					c-0.895,0.087-1.717,0.22-2.469,0.377c0.465-0.612,0.906-1.3,1.352-2.058C187.541,173.374,188.665,173.068,189.867,172.779z"/>
				<path fill="#4E3053" d="M171.961,156.276c1.528,2.244,2.862,4.372,4.002,6.383c-0.192,1.711-0.315,3.302-0.347,4.789
					c-0.929-1.24-2.009-2.541-3.21-3.894C172.169,161.319,172.028,158.892,171.961,156.276z"/>
				<path fill="#46304D" d="M179.661,162.361c0.541,1.701,0.966,3.301,1.287,4.789c-0.55,1.085-1.014,2.137-1.385,3.125
					c-0.354-1.007-0.792-2.069-1.301-3.195C178.617,165.604,179.093,164.034,179.661,162.361z"/>
				<path fill="#58325A" d="M202.793,186.657c3.089,2.033,6.397,4.406,9.864,7.083c-4.323-0.656-8.31-1.419-11.903-2.271
					c-1.889-1.941-3.723-3.67-5.464-5.189C197.586,186.498,200.091,186.626,202.793,186.657z"/>
				<path fill="#413049" d="M186.01,169.008c-0.258,1.197-0.553,2.288-0.875,3.283c-0.76,0.461-1.442,0.918-2.055,1.382
					c0.153-0.741,0.272-1.549,0.347-2.433C184.188,170.504,185.046,169.764,186.01,169.008z"/>
				<path fill="#7B4170" d="M228.503,207.108c8.247,7.463,16.93,16.116,25.635,25.646c-11.829-5.11-22.827-10.509-32.568-15.858
					c-4.343-6.081-8.597-11.589-12.664-16.404C214.78,202.755,221.357,204.981,228.503,207.108z"/>
				<path fill="#46304D" d="M191.769,177.818c1.499,0.3,3.104,0.712,4.803,1.227c-1.661,0.598-3.241,1.084-4.692,1.465
					c-1.131-0.506-2.208-0.927-3.221-1.273C189.649,178.852,190.683,178.375,191.769,177.818z"/>
				<path fill="#975C87" d="M254.139,232.754c0.213,0.243,0.445,0.484,0.658,0.727c13.737,15.105,25.337,30.022,33.709,42.875
					c-13.758-6.795-29.927-16.558-46.547-28.418c-0.278-0.19-0.536-0.382-0.805-0.582c-6.47-11.137-13.126-21.434-19.584-30.46
					C231.312,222.246,242.31,227.645,254.139,232.754z"/>
				<path fill="#413049" d="M185.136,172.291c0.901-0.537,1.892-1.07,2.989-1.598c-0.508,1.122-1.035,2.119-1.577,3.027
					c-0.841,0.28-1.604,0.576-2.295,0.896C184.575,173.915,184.863,173.146,185.136,172.291z"/>
				<path fill="#413049" d="M183.586,167.8c-0.001,1.242-0.047,2.388-0.159,3.44c-0.643,0.602-1.207,1.199-1.703,1.802
					c-0.005-0.772-0.064-1.609-0.167-2.503C182.132,169.657,182.811,168.741,183.586,167.8z"/>
				<path fill="#413049" d="M187.673,175.39c1.049-0.115,2.199-0.178,3.421-0.194c-0.933,0.783-1.834,1.467-2.712,2.062
					c-0.887-0.089-1.713-0.142-2.486-0.149c0.572-0.5,1.167-1.07,1.769-1.708C187.663,175.381,187.663,175.381,187.673,175.39z"/>
				<path fill="#4E3053" d="M196.333,182.743c2.026,1.113,4.193,2.423,6.46,3.914c-2.703-0.03-5.207-0.159-7.502-0.377
					c-1.345-1.169-2.643-2.223-3.881-3.134C192.923,183.093,194.567,182.956,196.333,182.743z"/>
				<path fill="#46304D" d="M175.963,162.659c0.893,1.555,1.652,3.029,2.298,4.421c-0.3,1.16-0.516,2.267-0.669,3.282
					c-0.555-0.928-1.22-1.899-1.977-2.914C175.647,165.96,175.771,164.37,175.963,162.659z"/>
				<path fill="#413049" d="M180.947,167.15c0.271,1.208,0.478,2.34,0.611,3.389c-0.506,0.741-0.935,1.458-1.287,2.151
					c-0.172-0.772-0.414-1.571-0.708-2.416C179.934,169.287,180.397,168.236,180.947,167.15z"/>
				<path fill="#3C3044" d="M181.725,173.042c0.496-0.604,1.06-1.201,1.703-1.802c-0.075,0.884-0.194,1.692-0.347,2.433
					c-0.538,0.42-1.018,0.837-1.448,1.261C181.71,174.363,181.734,173.726,181.725,173.042z"/>
				<path fill="#58325A" d="M157.85,149.882c3.428,2.826,6.527,5.562,9.236,8.172c0.657,2.663,1.349,5.118,2.092,7.327
					c-1.898-1.384-4.024-2.804-6.376-4.241C161.146,157.778,159.481,154.007,157.85,149.882z"/>
				<path fill="#3C3044" d="M186.548,173.72c-0.446,0.757-0.887,1.446-1.352,2.058c-0.02,0.001-0.009,0.01-0.009,0.01
					c-0.665,0.144-1.271,0.303-1.814,0.499c0.317-0.506,0.611-1.049,0.88-1.67C184.944,174.296,185.707,174,186.548,173.72z"/>
				<path fill="#413049" d="M188.382,177.258c1.056,0.129,2.184,0.303,3.386,0.561c-1.086,0.557-2.119,1.033-3.11,1.419
					c-0.842-0.287-1.65-0.507-2.415-0.671C186.933,178.206,187.645,177.757,188.382,177.258z"/>
				<path fill="#46304D" d="M191.88,180.51c1.404,0.618,2.896,1.369,4.453,2.233c-1.766,0.212-3.41,0.35-4.923,0.402
					c-1.01-0.728-1.976-1.379-2.896-1.936C189.58,181.055,190.688,180.809,191.88,180.51z"/>
				<path fill="#4E3053" d="M167.086,158.054c1.984,1.917,3.767,3.746,5.319,5.5c0.185,1.789,0.429,3.447,0.711,4.957
					c-1.158-1.022-2.484-2.065-3.939-3.13C168.435,163.172,167.743,160.717,167.086,158.054z"/>
				<path fill="#3C3044" d="M183.081,173.673c0.613-0.463,1.295-0.92,2.055-1.382c-0.272,0.855-0.561,1.624-0.883,2.326
					c-0.616,0.277-1.163,0.581-1.659,0.891C182.789,174.95,182.952,174.345,183.081,173.673z"/>
				<path fill="#413049" d="M178.261,167.08c0.51,1.126,0.947,2.188,1.301,3.195c-0.315,0.799-0.565,1.565-0.758,2.29
					c-0.324-0.706-0.728-1.447-1.212-2.203C177.746,169.347,177.961,168.24,178.261,167.08z"/>
				<path fill="#3C3044" d="M185.196,175.778c0.752-0.158,1.574-0.29,2.469-0.377c-0.601,0.638-1.197,1.208-1.769,1.708l-0.009,0.01
					c-0.676-0.012-1.32,0.022-1.911,0.104c0.411-0.423,0.808-0.894,1.21-1.434C185.187,175.788,185.176,175.779,185.196,175.778z"/>
				<path fill="#3C3044" d="M181.558,170.539c0.102,0.894,0.161,1.731,0.167,2.503c-0.424,0.502-0.8,1.011-1.118,1.498
					c-0.061-0.583-0.173-1.212-0.336-1.849C180.624,171.997,181.052,171.28,181.558,170.539z"/>
				<path fill="#46304D" d="M172.405,163.554c1.201,1.353,2.281,2.653,3.21,3.894c-0.041,1.224-0.028,2.387,0.048,3.458
					c-0.74-0.781-1.589-1.586-2.547-2.395C172.834,167.001,172.59,165.343,172.405,163.554z"/>
				<path fill="#3D3045" d="M185.187,175.788c-0.402,0.54-0.8,1.011-1.21,1.434c-0.523,0.067-1.007,0.152-1.458,0.284
					c0.298-0.358,0.583-0.765,0.854-1.219C183.916,176.091,184.521,175.932,185.187,175.788z"/>
				<path fill="#663662" d="M141.023,137.182c6.227,4.347,11.881,8.626,16.826,12.7c1.631,4.125,3.296,7.896,4.952,11.258
					c-3.192-1.979-6.809-4.002-10.769-6.037C148.459,149.792,144.747,143.775,141.023,137.182z"/>
				<path fill="#413049" d="M188.659,179.237c1.013,0.346,2.09,0.767,3.221,1.273c-1.192,0.299-2.3,0.544-3.366,0.7
					c-0.766-0.457-1.498-0.848-2.196-1.172C187.057,179.832,187.85,179.564,188.659,179.237z"/>
				<path fill="#3C3044" d="M185.896,177.108c0.773,0.007,1.6,0.061,2.486,0.149c-0.738,0.5-1.45,0.948-2.139,1.308
					c-0.657-0.16-1.291-0.263-1.881-0.309c0.497-0.31,1.008-0.7,1.525-1.138L185.896,177.108z"/>
				<path fill="#3C3044" d="M179.563,170.275c0.294,0.845,0.537,1.643,0.708,2.416c-0.293,0.563-0.547,1.125-0.735,1.653
					c-0.187-0.567-0.435-1.169-0.732-1.779C178.998,171.84,179.247,171.074,179.563,170.275z"/>
				<path fill="#413049" d="M175.616,167.448c0.756,1.015,1.422,1.986,1.977,2.914c-0.133,0.887-0.221,1.723-0.244,2.506
					c-0.486-0.648-1.041-1.303-1.685-1.962C175.588,169.834,175.575,168.672,175.616,167.448z"/>
				<path fill="#3D3045" d="M182.593,175.508c0.497-0.311,1.043-0.614,1.659-0.891c-0.269,0.621-0.563,1.164-0.88,1.67
					c-0.496,0.183-0.953,0.364-1.357,0.591C182.23,176.466,182.423,176.016,182.593,175.508z"/>
				<path fill="#4E3053" d="M195.291,186.279c1.741,1.519,3.575,3.248,5.464,5.189c-2.636-0.61-5.061-1.271-7.254-1.984
					c-1.06-1.429-2.11-2.721-3.129-3.859C191.878,185.896,193.518,186.121,195.291,186.279z"/>
				<path fill="#3D3045" d="M183.081,173.673c-0.129,0.672-0.292,1.277-0.487,1.835c-0.459,0.289-0.869,0.584-1.229,0.887
					c0.126-0.437,0.219-0.921,0.269-1.461C182.063,174.51,182.542,174.093,183.081,173.673z"/>
				<path fill="#3C3044" d="M186.244,178.566c0.765,0.164,1.573,0.384,2.415,0.671c-0.809,0.327-1.602,0.595-2.341,0.801
					c-0.626-0.279-1.211-0.521-1.781-0.696C185.09,179.137,185.649,178.881,186.244,178.566z"/>
				<path fill="#46304D" d="M191.41,183.146c1.238,0.911,2.536,1.965,3.881,3.134c-1.773-0.158-3.413-0.383-4.919-0.653
					c-0.82-0.943-1.623-1.779-2.417-2.499C189.016,183.187,190.171,183.203,191.41,183.146z"/>
				<path fill="#3D3045" d="M181.725,173.042c0.009,0.684-0.015,1.321-0.092,1.892c-0.365,0.372-0.691,0.741-0.968,1.118
					c0.025-0.471,0.009-0.978-0.058-1.512C180.925,174.053,181.3,173.544,181.725,173.042z"/>
				<path fill="#3D3045" d="M183.976,177.222c0.591-0.081,1.235-0.116,1.911-0.104c-0.517,0.438-1.028,0.828-1.525,1.138
					c-0.532-0.049-1.032-0.071-1.5-0.046C183.234,177.937,183.602,177.604,183.976,177.222z"/>
				<path fill="#3C3044" d="M177.592,170.362c0.484,0.756,0.888,1.497,1.212,2.203c-0.169,0.654-0.302,1.268-0.368,1.867
					c-0.31-0.511-0.66-1.04-1.088-1.564C177.371,172.084,177.459,171.249,177.592,170.362z"/>
				<path fill="#3D3045" d="M180.271,172.69c0.163,0.637,0.275,1.266,0.336,1.849c-0.274,0.416-0.499,0.838-0.695,1.25
					c-0.081-0.455-0.213-0.937-0.376-1.446C179.724,173.815,179.978,173.254,180.271,172.69z"/>
				<path fill="#413049" d="M188.514,181.21c0.92,0.557,1.886,1.208,2.896,1.936c-1.239,0.057-2.395,0.042-3.456-0.019
					c-0.641-0.621-1.287-1.172-1.916-1.637C186.818,181.448,187.654,181.364,188.514,181.21z"/>
				<path fill="#3D3045" d="M180.665,176.052c0.277-0.377,0.603-0.746,0.968-1.118c-0.05,0.54-0.143,1.024-0.269,1.461
					c-0.322,0.281-0.624,0.581-0.857,0.887C180.598,176.906,180.646,176.493,180.665,176.052z"/>
				<path fill="#3D3045" d="M184.362,178.257c0.59,0.046,1.224,0.149,1.881,0.309c-0.594,0.315-1.154,0.571-1.707,0.776
					c-0.501-0.168-0.989-0.289-1.444-0.362C183.509,178.782,183.923,178.544,184.362,178.257z"/>
				<path fill="#3C3044" d="M186.318,180.038c0.698,0.324,1.43,0.715,2.196,1.172c-0.86,0.154-1.696,0.238-2.476,0.28
					c-0.528-0.412-1.061-0.754-1.572-1.059C185.058,180.351,185.675,180.219,186.318,180.038z"/>
				<path fill="#3D3045" d="M178.804,172.564c0.297,0.609,0.545,1.212,0.732,1.779c-0.189,0.509-0.33,1.005-0.425,1.47
					c-0.178-0.45-0.406-0.907-0.675-1.381C178.502,173.832,178.635,173.219,178.804,172.564z"/>
				<path fill="#3D3045" d="M182.593,175.508c-0.17,0.508-0.363,0.958-0.579,1.37c-0.378,0.197-0.724,0.42-1.031,0.643
					c0.152-0.341,0.282-0.719,0.38-1.125C181.724,176.092,182.134,175.796,182.593,175.508z"/>
				<path fill="#3D3045" d="M182.015,176.878c0.405-0.227,0.862-0.408,1.357-0.591c-0.271,0.455-0.556,0.861-0.854,1.219
					c-0.413,0.11-0.794,0.248-1.155,0.405C181.606,177.614,181.817,177.27,182.015,176.878z"/>
				<path fill="#413049" d="M173.117,168.511c0.958,0.809,1.807,1.613,2.547,2.395c0.063,0.896,0.163,1.751,0.295,2.526
					c-0.604-0.515-1.286-1.025-2.037-1.542C173.625,170.859,173.359,169.73,173.117,168.511z"/>
				<path fill="#3D3045" d="M182.519,177.506c0.451-0.132,0.934-0.216,1.458-0.284c-0.374,0.382-0.742,0.714-1.114,0.989
					c-0.409,0.022-0.807,0.073-1.173,0.151C181.964,178.113,182.238,177.824,182.519,177.506z"/>
				<path fill="#46304D" d="M169.178,165.381c1.455,1.065,2.781,2.108,3.939,3.13c0.243,1.219,0.508,2.348,0.806,3.378
					c-0.883-0.597-1.895-1.198-2.984-1.794C170.33,168.681,169.739,167.1,169.178,165.381z"/>
				<path fill="#58325A" d="M200.755,191.469c2.604,2.646,5.321,5.666,8.151,9.023c-4.084-1.578-7.807-3.167-11.149-4.765
					c-1.444-2.298-2.864-4.391-4.256-6.242C195.694,190.197,198.119,190.858,200.755,191.469z"/>
				<path fill="#3C3044" d="M175.664,170.906c0.644,0.659,1.198,1.314,1.685,1.962c-0.032,0.667-0.025,1.312,0.026,1.905
					c-0.403-0.447-0.875-0.901-1.416-1.341C175.826,172.657,175.727,171.802,175.664,170.906z"/>
				<path fill="#3D3045" d="M184.537,179.342c0.57,0.175,1.155,0.417,1.781,0.696c-0.643,0.181-1.26,0.313-1.851,0.393
					c-0.469-0.268-0.905-0.489-1.348-0.66C183.581,179.667,184.041,179.525,184.537,179.342z"/>
				<path fill="#3D3045" d="M179.912,175.789c0.196-0.411,0.421-0.834,0.695-1.25c0.067,0.534,0.083,1.042,0.058,1.512
					c-0.251,0.326-0.472,0.661-0.633,1.012c0.001-0.401-0.048-0.829-0.128-1.264L179.912,175.789z"/>
				<path fill="#3D3045" d="M182.519,177.506c-0.281,0.318-0.554,0.607-0.83,0.856c0,0-0.009,0.01-0.02,0.001
					c-0.356,0.087-0.691,0.193-1.005,0.318c0.249-0.219,0.475-0.475,0.69-0.76c0.009-0.01,0.009-0.01,0.009-0.01
					C181.724,177.754,182.105,177.616,182.519,177.506z"/>
				<path fill="#3D3045" d="M184.362,178.257c-0.439,0.288-0.854,0.525-1.27,0.724c-0.436-0.074-0.869-0.109-1.26-0.108
					c0.34-0.175,0.687-0.399,1.03-0.662C183.33,178.186,183.831,178.208,184.362,178.257z"/>
				<path fill="#3D3045" d="M177.348,172.868c0.428,0.524,0.778,1.053,1.088,1.564c-0.081,0.513-0.114,1.013-0.11,1.492
					c-0.272-0.386-0.583-0.771-0.942-1.142l-0.01-0.009C177.323,174.179,177.316,173.534,177.348,172.868z"/>
				<path fill="#3D3045" d="M179.536,174.343c0.163,0.509,0.295,0.991,0.376,1.446l-0.009,0.01c-0.168,0.4-0.307,0.789-0.407,1.176
					c-0.086-0.387-0.211-0.771-0.385-1.162C179.206,175.348,179.347,174.852,179.536,174.343z"/>
				<path fill="#3D3045" d="M180.507,177.282c0.233-0.306,0.535-0.606,0.857-0.887c-0.098,0.406-0.228,0.785-0.38,1.125
					c-0.009,0.01-0.009,0.01-0.009,0.01c-0.288,0.221-0.535,0.459-0.752,0.705C180.337,177.937,180.443,177.628,180.507,177.282z"/>
				<path fill="#3D3045" d="M180.983,177.521c0.307-0.222,0.653-0.446,1.031-0.643c-0.198,0.392-0.408,0.736-0.651,1.033
					c0,0,0,0-0.009,0.01c-0.341,0.155-0.651,0.338-0.93,0.548c0.215-0.285,0.398-0.598,0.55-0.938
					C180.974,177.531,180.974,177.531,180.983,177.521z"/>
				<path fill="#3C3044" d="M186.039,181.49c0.629,0.464,1.275,1.016,1.916,1.637c-0.895-0.06-1.723-0.151-2.486-0.276
					c-0.448-0.523-0.9-0.978-1.34-1.384C184.729,181.521,185.356,181.527,186.039,181.49z"/>
				<path fill="#3D3045" d="M183.092,178.98c0.456,0.073,0.943,0.193,1.444,0.362c-0.496,0.183-0.956,0.325-1.418,0.429
					c-0.413-0.164-0.813-0.298-1.2-0.366C182.303,179.307,182.694,179.158,183.092,178.98z"/>
				<path fill="#4E3053" d="M162.802,161.14c2.352,1.437,4.478,2.857,6.376,4.241c0.562,1.719,1.152,3.3,1.761,4.714
					c-1.364-0.748-2.875-1.497-4.531-2.229C165.209,165.859,164.003,163.607,162.802,161.14z"/>
				<path fill="#3D3045" d="M178.437,174.432c0.269,0.475,0.497,0.932,0.675,1.381c-0.097,0.425-0.146,0.839-0.147,1.24
					c-0.164-0.382-0.376-0.752-0.637-1.129C178.322,175.445,178.355,174.944,178.437,174.432z"/>
				<path fill="#413049" d="M187.955,183.127c0.794,0.72,1.597,1.556,2.417,2.499c-1.219-0.218-2.354-0.489-3.382-0.775
					c-0.502-0.735-1.02-1.412-1.521-2C186.231,182.976,187.06,183.067,187.955,183.127z"/>
				<path fill="#3D3045" d="M184.467,180.431c0.511,0.305,1.043,0.647,1.572,1.059c-0.683,0.037-1.309,0.031-1.91-0.024
					c-0.377-0.351-0.771-0.663-1.16-0.915C183.438,180.545,183.934,180.509,184.467,180.431z"/>
				<path fill="#3D3045" d="M180.665,176.052c-0.018,0.441-0.067,0.854-0.158,1.23c-0.236,0.267-0.431,0.551-0.577,0.842
					c0.074-0.336,0.108-0.69,0.101-1.061C180.192,176.712,180.414,176.378,180.665,176.052z"/>
				<path fill="#3D3045" d="M181.354,177.921c-0.215,0.285-0.441,0.542-0.69,0.76c-0.009,0.01-0.009,0.01-0.009,0.01
					c-0.341,0.155-0.642,0.328-0.93,0.549c0.259-0.209,0.495-0.476,0.69-0.761l0.009-0.01
					C180.703,178.259,181.013,178.076,181.354,177.921z"/>
				<path fill="#3D3045" d="M183.119,179.771c0.443,0.171,0.879,0.392,1.348,0.66c-0.533,0.078-1.029,0.114-1.499,0.12
					c-0.37-0.254-0.727-0.459-1.09-0.616C182.278,179.924,182.685,179.863,183.119,179.771z"/>
				<path fill="#3D3045" d="M181.688,178.362c0.366-0.079,0.764-0.129,1.173-0.151c-0.343,0.263-0.689,0.487-1.03,0.662
					c-0.361,0.01-0.702,0.038-1.03,0.095c0.292-0.163,0.581-0.364,0.867-0.604C181.68,178.373,181.688,178.362,181.688,178.362z"/>
				<path fill="#3D3045" d="M179.903,175.799c0.08,0.436,0.129,0.863,0.128,1.264c-0.182,0.333-0.314,0.672-0.408,1.009
					c0.005-0.342-0.041-0.711-0.126-1.098C179.597,176.588,179.735,176.2,179.903,175.799z"/>
				<path fill="#3D3045" d="M175.959,173.432c0.54,0.44,1.012,0.894,1.416,1.341l0.01,0.009c0.037,0.526,0.112,1.03,0.23,1.464
					c-0.354-0.313-0.75-0.644-1.212-0.961C176.225,174.708,176.083,174.089,175.959,173.432z"/>
				<path fill="#3D3045" d="M179.111,175.813c0.174,0.391,0.299,0.775,0.385,1.162c-0.103,0.348-0.156,0.702-0.17,1.055
					c-0.082-0.328-0.203-0.654-0.362-0.978C178.965,176.652,179.014,176.238,179.111,175.813z"/>
				<path fill="#3D3045" d="M181.832,178.873c0.392-0.001,0.825,0.034,1.26,0.108c-0.398,0.178-0.789,0.326-1.174,0.425
					c-0.368-0.087-0.723-0.127-1.075-0.127C181.169,179.182,181.512,179.046,181.832,178.873z"/>
				<path fill="#3C3044" d="M173.922,171.889c0.751,0.517,1.433,1.027,2.037,1.542c0.125,0.658,0.266,1.276,0.444,1.853
					c-0.494-0.345-1.057-0.696-1.667-1.015C174.45,173.542,174.169,172.746,173.922,171.889z"/>
				<path fill="#46304D" d="M190.372,185.626c1.02,1.138,2.07,2.43,3.129,3.859c-1.701-0.534-3.248-1.096-4.659-1.684
					c-0.625-1.081-1.232-2.075-1.852-2.95C188.018,185.137,189.152,185.408,190.372,185.626z"/>
				<path fill="#3D3045" d="M180.222,178.236c0.217-0.246,0.465-0.484,0.752-0.705c-0.152,0.34-0.335,0.653-0.55,0.938l-0.009,0.01
					c-0.232,0.179-0.454,0.367-0.644,0.583c0.159-0.243,0.306-0.515,0.433-0.806C180.212,178.246,180.212,178.246,180.222,178.236z"
					/>
				<path fill="#3D3045" d="M177.385,174.782c0.359,0.372,0.67,0.756,0.942,1.142c0.001,0.439,0.041,0.858,0.127,1.244
					c-0.247-0.309-0.513-0.617-0.838-0.922C177.497,175.812,177.422,175.308,177.385,174.782z"/>
				<path fill="#3D3045" d="M179.93,178.125c0.146-0.292,0.341-0.576,0.577-0.842c-0.064,0.346-0.169,0.654-0.285,0.954
					c-0.009,0.01-0.009,0.01-0.018,0.021c-0.208,0.236-0.376,0.49-0.525,0.742C179.796,178.718,179.883,178.43,179.93,178.125z"/>
				<path fill="#3D3045" d="M181.918,179.405c0.387,0.067,0.788,0.202,1.2,0.366c-0.434,0.092-0.84,0.153-1.241,0.165
					c-0.354-0.167-0.695-0.285-1.043-0.354C181.186,179.563,181.554,179.503,181.918,179.405z"/>
				<path fill="#3D3045" d="M180.664,178.681c0.314-0.125,0.649-0.23,1.005-0.318c-0.286,0.24-0.576,0.441-0.867,0.604
					c0,0-0.02,0.001-0.029,0.011c-0.299,0.065-0.587,0.139-0.862,0.262c0.264-0.151,0.515-0.331,0.744-0.549
					C180.655,178.691,180.655,178.691,180.664,178.681z"/>
				<path fill="#3D3045" d="M178.327,175.924c0.261,0.377,0.473,0.747,0.637,1.129c-0.014,0.353,0,0.694,0.053,1.033
					c-0.149-0.314-0.347-0.617-0.563-0.918C178.368,176.782,178.328,176.363,178.327,175.924z"/>
				<path fill="#3D3045" d="M182.968,180.551c0.39,0.252,0.783,0.564,1.16,0.915c-0.53-0.03-1.024-0.101-1.472-0.204
					c-0.307-0.326-0.62-0.602-0.958-0.828C182.094,180.51,182.527,180.546,182.968,180.551z"/>
				<path fill="#3D3045" d="M181.832,178.873c-0.32,0.174-0.663,0.31-0.989,0.405c-0.305-0.013-0.606,0.013-0.896,0.068
					c0.276-0.103,0.562-0.216,0.825-0.367c0.009-0.01,0.029-0.011,0.029-0.011C181.13,178.91,181.471,178.882,181.832,178.873z"/>
				<path fill="#413049" d="M170.938,170.095c1.089,0.596,2.101,1.197,2.984,1.794c0.247,0.857,0.528,1.653,0.814,2.381
					c-0.701-0.363-1.459-0.704-2.295-1.04C171.935,172.29,171.431,171.242,170.938,170.095z"/>
				<path fill="#3D3045" d="M184.128,181.466c0.44,0.406,0.893,0.861,1.34,1.384c-0.663-0.111-1.28-0.254-1.859-0.418
					c-0.305-0.433-0.626-0.827-0.954-1.17C183.104,181.365,183.598,181.436,184.128,181.466z"/>
				<path fill="#3D3045" d="M180.031,177.063c0.007,0.371-0.027,0.725-0.101,1.061c-0.182,0.333-0.315,0.672-0.397,1.038
					c0.073-0.356,0.107-0.709,0.1-1.081l-0.01-0.009C179.717,177.735,179.849,177.396,180.031,177.063z"/>
				<path fill="#3D3045" d="M179.497,176.975c0.086,0.386,0.132,0.755,0.126,1.098l0.01,0.009c-0.098,0.279-0.145,0.584-0.173,0.87
					c-0.012-0.303-0.062-0.603-0.132-0.902c0,0-0.01-0.009-0.001-0.02C179.341,177.677,179.394,177.323,179.497,176.975z"/>
				<path fill="#3D3045" d="M178.964,177.053c0.16,0.324,0.281,0.649,0.362,0.978c-0.009,0.01,0.001,0.02,0.001,0.02
					c-0.026,0.324-0.013,0.646,0.028,0.956c-0.071-0.318-0.191-0.625-0.339-0.92C178.964,177.747,178.95,177.405,178.964,177.053z"
					/>
				<path fill="#3D3045" d="M181.878,179.936c0.363,0.156,0.72,0.362,1.09,0.616c-0.441-0.005-0.874-0.041-1.271-0.117
					c-0.281-0.229-0.597-0.417-0.9-0.558C181.134,179.937,181.497,179.946,181.878,179.936z"/>
				<path fill="#3D3045" d="M180.415,178.479c-0.195,0.285-0.431,0.551-0.69,0.761c-0.093,0.064-0.176,0.137-0.259,0.209
					c0.098-0.132,0.196-0.265,0.305-0.388C179.961,178.846,180.183,178.658,180.415,178.479z"/>
				<path fill="#3D3045" d="M180.843,179.278c0.352,0,0.707,0.04,1.075,0.127c-0.365,0.098-0.732,0.157-1.083,0.176
					c-0.01-0.009-0.03-0.008-0.03-0.008c-0.349-0.089-0.685-0.129-1.026-0.121C180.14,179.443,180.488,179.385,180.843,179.278z"/>
				<path fill="#3D3045" d="M176.403,175.285c0.462,0.317,0.858,0.647,1.212,0.961c0.08,0.436,0.215,0.829,0.367,1.183
					c-0.312-0.257-0.652-0.502-1.04-0.736c0,0,0,0-0.011-0.009C176.735,176.254,176.555,175.785,176.403,175.285z"/>
				<path fill="#3D3045" d="M177.615,176.246c0.325,0.305,0.591,0.613,0.838,0.922c0.047,0.389,0.16,0.744,0.3,1.069
					c-0.216-0.282-0.479-0.551-0.771-0.809C177.831,177.075,177.695,176.681,177.615,176.246z"/>
				<path fill="#3C3044" d="M185.469,182.851c0.501,0.588,1.019,1.265,1.521,2c-0.868-0.237-1.65-0.507-2.365-0.792
					c-0.317-0.608-0.658-1.147-1.015-1.626C184.189,182.597,184.806,182.74,185.469,182.851z"/>
				<path fill="#3D3045" d="M180.204,178.256c-0.126,0.291-0.273,0.563-0.433,0.806c-0.109,0.123-0.207,0.255-0.305,0.388
					c0.077-0.151,0.146-0.291,0.212-0.451C179.827,178.746,179.995,178.493,180.204,178.256z"/>
				<path fill="#3D3045" d="M180.835,179.581c0.348,0.069,0.688,0.188,1.043,0.354c-0.381,0.011-0.744,0.001-1.081-0.059
					c-0.274-0.132-0.555-0.234-0.844-0.306c0.276,0.024,0.561,0.038,0.852,0.003C180.805,179.573,180.825,179.572,180.835,179.581z"
					/>
				<path fill="#3D3045" d="M179.93,178.125c-0.047,0.306-0.134,0.594-0.252,0.874c-0.067,0.16-0.135,0.3-0.212,0.451
					c0.021-0.108,0.044-0.198,0.067-0.287C179.615,178.796,179.748,178.457,179.93,178.125z"/>
				<path fill="#3D3045" d="M180.655,178.691c-0.229,0.218-0.48,0.397-0.744,0.549c-0.152,0.067-0.304,0.133-0.445,0.209
					c0.083-0.073,0.166-0.146,0.259-0.209C180.013,179.02,180.313,178.847,180.655,178.691z"/>
				<path fill="#3D3045" d="M178.454,177.168c0.217,0.301,0.414,0.604,0.563,0.918c0.055,0.359,0.157,0.705,0.289,1.04
					c-0.13-0.315-0.327-0.618-0.552-0.889C178.613,177.912,178.5,177.557,178.454,177.168z"/>
				<path fill="#7B4170" d="M110.203,117.808c11.244,6.383,21.66,12.967,30.82,19.374c3.723,6.593,7.436,12.61,11.01,17.921
					c-5.687-2.938-12.091-5.907-19.088-8.833c-7.448-8.347-15.197-17.91-22.859-28.328c-0.086-0.112-0.172-0.225-0.25-0.348
					C109.958,117.665,110.081,117.736,110.203,117.808z"/>
				<path fill="#3D3045" d="M179.46,178.952c0.029-0.285,0.076-0.591,0.173-0.87c0.007,0.371-0.027,0.725-0.1,1.081
					c-0.023,0.089-0.046,0.179-0.067,0.287C179.473,179.273,179.471,179.107,179.46,178.952z"/>
				<path fill="#3D3045" d="M181.698,180.434c0.339,0.226,0.652,0.502,0.958,0.828c-0.448-0.103-0.847-0.218-1.221-0.384
					c-0.235-0.281-0.498-0.53-0.766-0.731C181.001,180.276,181.341,180.375,181.698,180.434z"/>
				<path fill="#3D3045" d="M174.736,174.27c0.609,0.319,1.172,0.669,1.667,1.015c0.152,0.5,0.333,0.969,0.529,1.398
					c-0.408-0.232-0.865-0.471-1.358-0.669C175.281,175.482,174.996,174.901,174.736,174.27z"/>
				<path fill="#58325A" d="M162.802,161.14c1.202,2.467,2.407,4.719,3.605,6.727c-2.141-0.94-4.516-1.868-7.104-2.784
					c-2.341-2.943-4.769-6.292-7.27-9.979C155.993,157.138,159.609,159.162,162.802,161.14z"/>
				<path fill="#3D3045" d="M180.773,178.979c-0.263,0.151-0.549,0.264-0.825,0.367c-0.155,0.028-0.318,0.066-0.482,0.104
					c0.141-0.076,0.293-0.143,0.445-0.209C180.186,179.118,180.474,179.043,180.773,178.979z"/>
				<path fill="#3D3045" d="M179.948,179.346c0.29-0.055,0.591-0.081,0.896-0.068c-0.355,0.107-0.703,0.165-1.064,0.175
					c-0.108-0.004-0.216-0.008-0.322,0.007l0.009-0.01C179.629,179.412,179.793,179.374,179.948,179.346z"/>
				<path fill="#3D3045" d="M182.656,181.262c0.328,0.344,0.649,0.737,0.954,1.17c-0.51-0.158-1.002-0.337-1.428-0.549
					c-0.223-0.379-0.471-0.708-0.746-1.005C181.809,181.044,182.208,181.159,182.656,181.262z"/>
				<path fill="#46304D" d="M166.407,167.867c1.657,0.731,3.167,1.481,4.531,2.229c0.492,1.146,0.997,2.195,1.503,3.135
					c-0.997-0.406-2.1-0.776-3.29-1.133C168.241,170.837,167.33,169.43,166.407,167.867z"/>
				<path fill="#3D3045" d="M180.797,179.876c0.303,0.14,0.62,0.328,0.9,0.558c-0.356-0.059-0.696-0.158-1.028-0.287
					c-0.249-0.202-0.504-0.354-0.769-0.496C180.182,179.753,180.481,179.835,180.797,179.876z"/>
				<path fill="#3D3045" d="M177.982,177.428c0.292,0.258,0.556,0.527,0.771,0.809c0.134,0.374,0.313,0.697,0.541,1.007
					c-0.217-0.301-0.471-0.581-0.792-0.828C178.305,178.115,178.125,177.792,177.982,177.428z"/>
				<path fill="#3D3045" d="M180.805,179.573c-0.291,0.035-0.576,0.021-0.852-0.003c-0.16-0.05-0.329-0.09-0.497-0.11
					c0.106-0.016,0.214-0.011,0.322-0.007C180.121,179.444,180.457,179.484,180.805,179.573z"/>
				<path fill="#3D3045" d="M179.328,178.05c0.07,0.299,0.121,0.599,0.132,0.902c0.011,0.156,0.013,0.322,0.006,0.498l-0.009,0.01
					c-0.001-0.02-0.001-0.02-0.012-0.028c-0.02-0.146-0.04-0.292-0.089-0.426C179.314,178.695,179.302,178.374,179.328,178.05z"/>
				<path fill="#3D3045" d="M179.017,178.086c0.148,0.295,0.268,0.602,0.339,0.92c0.049,0.134,0.069,0.28,0.089,0.426
					c-0.037-0.106-0.083-0.201-0.139-0.306C179.174,178.791,179.072,178.445,179.017,178.086z"/>
				<path fill="#663662" d="M197.757,195.727c3.342,1.599,7.064,3.187,11.149,4.765c4.067,4.815,8.321,10.324,12.664,16.404
					c-6.546-3.606-12.523-7.184-17.778-10.654C201.749,202.374,199.729,198.856,197.757,195.727z"/>
				<path fill="#3D3045" d="M176.942,176.692c0.388,0.233,0.729,0.479,1.04,0.736c0.143,0.364,0.322,0.687,0.52,0.988
					c-0.271-0.239-0.589-0.447-0.935-0.624C177.339,177.463,177.127,177.093,176.942,176.692z"/>
				<path fill="#3D3045" d="M176.932,176.683c0.011,0.009,0.011,0.009,0.011,0.009c0.185,0.4,0.396,0.771,0.625,1.1
					c-0.347-0.196-0.729-0.352-1.16-0.495c-0.292-0.385-0.566-0.81-0.834-1.284C176.067,176.212,176.524,176.451,176.932,176.683z"
					/>
				<path fill="#3D3045" d="M179.954,179.57c0.289,0.072,0.57,0.174,0.844,0.306c-0.316-0.042-0.616-0.123-0.897-0.225
					c-0.121-0.052-0.252-0.114-0.374-0.166l-0.02,0.001c-0.01-0.009-0.031-0.028-0.051-0.027
					C179.625,179.48,179.793,179.52,179.954,179.57z"/>
				<path fill="#3D3045" d="M180.669,180.147c0.269,0.201,0.531,0.45,0.766,0.731c-0.343-0.138-0.658-0.307-0.946-0.506
					c-0.182-0.215-0.381-0.41-0.59-0.594C180.145,179.921,180.408,180.044,180.669,180.147z"/>
				<path fill="#975C87" d="M109.836,117.593c0.077,0.123,0.164,0.236,0.25,0.348c7.663,10.418,15.412,19.981,22.859,28.328
					c-10.294-4.303-21.854-8.518-34.171-12.36c-0.13-0.042-0.28-0.083-0.41-0.125c-15.759-13.95-29.231-27.925-39.008-40.028
					C73.957,99.049,91.53,107.222,109.836,117.593z"/>
				<path fill="#3D3045" d="M178.754,178.237c0.225,0.271,0.422,0.574,0.552,0.889c0.057,0.104,0.102,0.2,0.139,0.306
					c-0.043-0.057-0.097-0.122-0.15-0.188C179.067,178.934,178.888,178.611,178.754,178.237z"/>
				<path fill="#3C3044" d="M174.736,174.27c0.26,0.631,0.545,1.212,0.837,1.744c-0.544-0.225-1.146-0.427-1.804-0.606
					c-0.447-0.65-0.889-1.37-1.328-2.177C173.277,173.566,174.035,173.907,174.736,174.27z"/>
				<path fill="#3D3045" d="M179.9,179.651c0.265,0.142,0.52,0.294,0.769,0.496c-0.262-0.104-0.525-0.226-0.77-0.369
					c-0.031-0.028-0.082-0.054-0.114-0.082c-0.031-0.027-0.052-0.046-0.092-0.063c-0.052-0.046-0.115-0.101-0.176-0.137l0.009-0.01
					C179.648,179.538,179.779,179.599,179.9,179.651z"/>
				<path fill="#413049" d="M186.99,184.851c0.62,0.875,1.228,1.869,1.852,2.95c-1.159-0.475-2.201-0.957-3.146-1.463
					c-0.333-0.842-0.69-1.595-1.071-2.279C185.339,184.343,186.122,184.614,186.99,184.851z"/>
				<path fill="#3D3045" d="M178.502,178.417c0.321,0.247,0.575,0.526,0.792,0.828c0.054,0.065,0.107,0.131,0.15,0.188l-0.009,0.01
					c-0.021-0.019-0.042-0.037-0.073-0.065c-0.054-0.065-0.116-0.121-0.179-0.176l-0.011-0.009
					C178.923,178.971,178.698,178.699,178.502,178.417z"/>
				<path fill="#3D3045" d="M183.61,182.433c0.356,0.479,0.698,1.018,1.015,1.626c-0.634-0.249-1.211-0.521-1.731-0.815
					c-0.211-0.497-0.458-0.953-0.712-1.36C182.607,182.096,183.1,182.274,183.61,182.433z"/>
				<path fill="#3D3045" d="M181.436,180.878c0.275,0.298,0.523,0.626,0.746,1.005c-0.395-0.184-0.761-0.379-1.071-0.617
					c-0.179-0.322-0.387-0.634-0.621-0.895C180.778,180.572,181.093,180.74,181.436,180.878z"/>
				<path fill="#3D3045" d="M177.568,177.792c0.345,0.177,0.663,0.385,0.935,0.624c0.196,0.283,0.42,0.554,0.671,0.775
					c-0.28-0.229-0.578-0.418-0.912-0.586C178.009,178.365,177.785,178.094,177.568,177.792z"/>
				<path fill="#3D3045" d="M179.786,179.696c0.032,0.028,0.083,0.054,0.114,0.082c0.208,0.184,0.408,0.379,0.59,0.594
					c-0.266-0.162-0.515-0.363-0.727-0.586c-0.085-0.093-0.169-0.187-0.264-0.269l0.009-0.01l0.009-0.01
					c0.062,0.036,0.124,0.091,0.176,0.137C179.725,179.661,179.746,179.679,179.786,179.696z"/>
				<path fill="#4E3053" d="M188.842,187.801c1.411,0.588,2.958,1.15,4.659,1.684c1.393,1.851,2.813,3.944,4.256,6.242
					c-2.46-1.167-4.706-2.347-6.715-3.499C190.321,190.604,189.572,189.14,188.842,187.801z"/>
				<path fill="#3D3045" d="M179.694,179.633c0.041,0.018,0.061,0.036,0.092,0.063C179.746,179.679,179.725,179.661,179.694,179.633
					z"/>
				<polygon fill="#3D3045" points="179.507,179.487 179.527,179.486 179.518,179.496 				"/>
				<path fill="#3D3045" d="M179.445,179.432c0.01,0.009,0.01,0.009,0.012,0.028c-0.01-0.009-0.01-0.009-0.021-0.018
					L179.445,179.432z"/>
				
					<rect x="179.501" y="179.49" transform="matrix(-0.7415 -0.6709 0.6709 -0.7415 192.1931 433.0341)" fill="#3D3045" width="0.014" height="0.014"/>
				<path fill="#3D3045" d="M179.457,179.46c0.02-0.001,0.041,0.018,0.051,0.027l-0.009,0.01
					C179.488,179.488,179.467,179.469,179.457,179.46z"/>
				<path fill="#3D3045" d="M179.184,179.201c0.063,0.055,0.125,0.11,0.179,0.176C179.291,179.332,179.237,179.267,179.184,179.201z
					"/>
				<path fill="#3D3045" d="M179.173,179.192l0.011,0.009c0.053,0.065,0.107,0.131,0.179,0.176c0.031,0.028,0.052,0.046,0.073,0.065
					l-0.009,0.01c-0.154-0.1-0.317-0.188-0.479-0.277c-0.237-0.173-0.466-0.356-0.686-0.569
					C178.596,178.773,178.893,178.962,179.173,179.192z"/>
				
					<rect x="179.492" y="179.5" transform="matrix(-0.7568 -0.6536 0.6536 -0.7568 198.0183 432.6857)" fill="#3D3045" width="0.014" height="0.014"/>
				<path fill="#3D3045" d="M179.457,179.46c0.01,0.009,0.031,0.028,0.042,0.037l-0.009,0.01
					C179.479,179.498,179.467,179.469,179.457,179.46z"/>
				<path fill="#3D3045" d="M179.436,179.442c0.011,0.009,0.011,0.009,0.021,0.018c-0.01-0.009-0.02,0.001-0.03-0.008
					L179.436,179.442z"/>
				<path fill="#3D3045" d="M179.427,179.452c0.01,0.009,0.02-0.001,0.03,0.008l-0.009,0.01c-0.127-0.003-0.253,0.014-0.369,0.04
					c-0.35,0.039-0.712,0.029-1.087-0.01c0.337-0.067,0.659-0.094,1.002-0.083C179.131,179.429,179.278,179.431,179.427,179.452z"/>
				<path fill="#3D3045" d="M179.457,179.46c0.01,0.009,0.022,0.038,0.033,0.047l-0.009,0.01
					C179.479,179.498,179.458,179.479,179.457,179.46z"/>
				<path fill="#3D3045" d="M179.457,179.46c0.001,0.02,0.022,0.038,0.023,0.058l0.001,0.02c0.022,0.038,0.036,0.086,0.047,0.115
					c0.125,0.384,0.193,0.791,0.211,1.191c-0.132-0.354-0.216-0.702-0.251-1.062C179.491,179.673,179.474,179.567,179.457,179.46z"
					/>
				<path fill="#3D3045" d="M179.457,179.46c0.017,0.107,0.035,0.213,0.032,0.321c0.025,0.351,0.021,0.713-0.062,1.059
					c-0.04-0.291-0.042-0.584-0.032-0.868c-0.001-0.02-0.002-0.039,0.005-0.069c0.014-0.079,0.019-0.147,0.033-0.227
					c0.005-0.068,0.021-0.128,0.015-0.206L179.457,179.46z"/>
				<path fill="#3D3045" d="M178.947,179.175c0.163,0.089,0.326,0.178,0.479,0.277c-0.081-0.035-0.151-0.061-0.23-0.076
					c-0.37-0.107-0.713-0.265-1.051-0.471C178.424,178.968,178.694,179.062,178.947,179.175z"/>
				<path fill="#3D3045" d="M179.079,179.51c0.115-0.026,0.241-0.042,0.369-0.04c-0.172,0.048-0.354,0.107-0.515,0.185
					c-0.279,0.064-0.569,0.119-0.871,0.145C178.394,179.654,178.73,179.568,179.079,179.51z"/>
				<path fill="#3D3045" d="M178.932,179.655c0.161-0.077,0.343-0.136,0.515-0.185c-0.141,0.076-0.281,0.172-0.421,0.267
					c-0.274,0.142-0.558,0.275-0.864,0.37C178.413,179.927,178.657,179.777,178.932,179.655z"/>
				<path fill="#3D3045" d="M179.447,179.47c0.006,0.078-0.01,0.138-0.015,0.206c-0.024,0.07-0.019,0.148-0.033,0.227
					c-0.008,0.03-0.006,0.049-0.005,0.069c-0.059,0.277-0.146,0.565-0.254,0.835c0.024-0.343,0.09-0.669,0.185-0.987
					C179.375,179.699,179.417,179.589,179.447,179.47z"/>
				
					<rect x="179.483" y="179.51" transform="matrix(-0.7415 -0.6709 0.6709 -0.7415 192.1479 433.0577)" fill="#3D3045" width="0.014" height="0.014"/>
				<path fill="#3D3045" d="M179.5,179.517c0.094,0.083,0.179,0.176,0.264,0.269c0.204,0.253,0.379,0.517,0.517,0.803
					c-0.232-0.242-0.435-0.475-0.601-0.75c-0.057-0.104-0.123-0.218-0.188-0.312L179.5,179.517z"/>
				<path fill="#3D3045" d="M179.196,179.376c0.079,0.015,0.149,0.041,0.23,0.076c-0.148-0.021-0.295-0.023-0.433-0.036
					c-0.297-0.042-0.605-0.114-0.906-0.215C178.479,179.2,178.846,179.268,179.196,179.376z"/>
				<path fill="#3D3045" d="M179.447,179.47c-0.031,0.119-0.072,0.229-0.122,0.349c-0.114,0.319-0.278,0.631-0.493,0.916
					c0.104-0.328,0.238-0.648,0.413-0.951C179.326,179.692,179.387,179.581,179.447,179.47z"/>
				<path fill="#3D3045" d="M179.447,179.47c-0.061,0.111-0.121,0.222-0.203,0.314c-0.185,0.293-0.402,0.54-0.66,0.769
					c0.147-0.272,0.316-0.506,0.516-0.732C179.209,179.698,179.328,179.584,179.447,179.47z"/>
				<path fill="#3D3045" d="M179.447,179.47c-0.119,0.114-0.238,0.228-0.347,0.351c-0.231,0.198-0.473,0.368-0.746,0.529
					c0.199-0.226,0.429-0.443,0.671-0.613C179.166,179.642,179.306,179.546,179.447,179.47z"/>
				<path fill="#3D3045" d="M179.491,179.527c0.065,0.094,0.132,0.208,0.188,0.312c0.148,0.295,0.267,0.602,0.358,0.919
					c-0.23-0.349-0.393-0.712-0.508-1.106c-0.012-0.029-0.025-0.077-0.047-0.115L179.491,179.527z"/>
				<polygon fill="#3D3045" points="179.48,179.518 179.491,179.527 179.481,179.537 				"/>
				<path fill="#3D3045" d="M179.763,179.786c0.211,0.223,0.46,0.425,0.727,0.586c0.233,0.261,0.441,0.573,0.621,0.895
					c-0.327-0.197-0.588-0.428-0.831-0.678C180.142,180.303,179.967,180.039,179.763,179.786z"/>
				<path fill="#3D3045" d="M178.261,178.605c0.22,0.213,0.449,0.396,0.686,0.569c-0.253-0.113-0.523-0.207-0.802-0.27
					c-0.308-0.199-0.607-0.427-0.891-0.695C177.625,178.317,177.957,178.446,178.261,178.605z"/>
				<path fill="#3D3045" d="M177.568,177.792c0.217,0.301,0.441,0.573,0.693,0.813c-0.305-0.159-0.637-0.288-1.006-0.395
					c-0.292-0.258-0.578-0.565-0.847-0.913C176.838,177.441,177.221,177.596,177.568,177.792z"/>
				<path fill="#3D3045" d="M179.4,179.903c0.014-0.079,0.008-0.157,0.033-0.227C179.418,179.755,179.414,179.824,179.4,179.903z"/>
				<path fill="#3D3045" d="M181.11,181.267c0.311,0.238,0.676,0.433,1.071,0.617c0.253,0.407,0.501,0.863,0.712,1.36
					c-0.467-0.249-0.897-0.519-1.26-0.802C181.486,182.02,181.312,181.628,181.11,181.267z"/>
				<path fill="#3D3045" d="M180.28,180.589c0.243,0.25,0.503,0.481,0.831,0.678c0.202,0.361,0.376,0.752,0.523,1.174
					c-0.361-0.264-0.685-0.549-0.941-0.849C180.589,181.227,180.449,180.902,180.28,180.589z"/>
				<path fill="#3D3045" d="M179.679,179.839c0.166,0.275,0.368,0.508,0.601,0.75c0.169,0.313,0.309,0.638,0.413,1.004
					c-0.264-0.269-0.479-0.551-0.656-0.834C179.946,180.44,179.827,180.134,179.679,179.839z"/>
				<path fill="#3D3045" d="M175.573,176.014c0.269,0.474,0.543,0.899,0.834,1.284c-0.441-0.152-0.92-0.283-1.444-0.362
					c-0.404-0.447-0.802-0.963-1.194-1.529C174.428,175.586,175.029,175.789,175.573,176.014z"/>
				<path fill="#3D3045" d="M179.529,179.652c0.116,0.395,0.278,0.757,0.508,1.106c0.082,0.328,0.146,0.676,0.161,1.037
					c-0.188-0.313-0.348-0.636-0.458-0.953C179.722,180.443,179.654,180.036,179.529,179.652z"/>
				<path fill="#3D3045" d="M178.146,178.905c0.337,0.207,0.681,0.364,1.051,0.471c-0.35-0.108-0.717-0.176-1.108-0.175
					c-0.01-0.009-0.021-0.019-0.041-0.018c-0.331-0.109-0.655-0.268-0.982-0.465C177.449,178.747,177.806,178.806,178.146,178.905z"
					/>
				<path fill="#3D3045" d="M178.584,180.553c0.258-0.229,0.475-0.476,0.66-0.769c-0.174,0.303-0.309,0.623-0.413,0.951
					c0,0,0.001,0.02-0.008,0.03c-0.196,0.265-0.423,0.521-0.68,0.77c0.123-0.349,0.266-0.679,0.431-0.971
					C178.575,180.563,178.575,180.563,178.584,180.553z"/>
				<path fill="#3D3045" d="M176.408,177.298c0.269,0.347,0.555,0.654,0.847,0.913c-0.379-0.097-0.786-0.183-1.219-0.218
					c-0.364-0.303-0.721-0.655-1.072-1.057C175.487,177.015,175.966,177.146,176.408,177.298z"/>
				<path fill="#3D3045" d="M177.255,178.21c0.283,0.268,0.583,0.496,0.891,0.695c-0.34-0.099-0.696-0.158-1.08-0.186
					c-0.02,0.001-0.028,0.011-0.03-0.008c-0.327-0.197-0.667-0.443-1-0.718C176.469,178.028,176.876,178.113,177.255,178.21z"/>
				<path fill="#3D3045" d="M178.088,179.202c0.301,0.101,0.609,0.172,0.906,0.215c-0.343-0.011-0.665,0.017-1.002,0.083
					c-0.327-0.051-0.655-0.121-0.996-0.24c0.347-0.077,0.698-0.096,1.051-0.076C178.067,179.183,178.078,179.192,178.088,179.202z"
					/>
				<path fill="#3C3044" d="M182.894,183.244c0.52,0.294,1.097,0.566,1.731,0.815c0.381,0.684,0.737,1.437,1.071,2.279
					c-0.793-0.426-1.509-0.857-2.166-1.291C183.347,184.392,183.128,183.798,182.894,183.244z"/>
				<path fill="#413049" d="M172.441,173.23c0.438,0.807,0.881,1.526,1.328,2.177c-0.75-0.224-1.574-0.404-2.475-0.541
					c-0.713-0.812-1.423-1.732-2.143-2.769C170.342,172.454,171.444,172.825,172.441,173.23z"/>
				<path fill="#3D3045" d="M179.489,179.781c0.035,0.36,0.119,0.708,0.251,1.062c0.025,0.351,0.011,0.703-0.052,1.068
					c-0.133-0.354-0.216-0.702-0.26-1.052c0,0,0.02-0.001-0.001-0.02C179.51,180.494,179.514,180.131,179.489,179.781z"/>
				<path fill="#3D3045" d="M181.634,182.441c0.362,0.284,0.792,0.554,1.26,0.802c0.235,0.554,0.453,1.148,0.636,1.803
					c-0.555-0.38-1.072-0.763-1.521-1.159C181.914,183.365,181.792,182.893,181.634,182.441z"/>
				<path fill="#3D3045" d="M180.037,180.758c0.177,0.284,0.392,0.565,0.656,0.834c0.115,0.375,0.193,0.792,0.253,1.228
					c-0.287-0.327-0.537-0.675-0.746-1.006c0,0,0.018-0.021-0.001-0.02C180.183,181.435,180.119,181.086,180.037,180.758z"/>
				<path fill="#3D3045" d="M180.693,181.593c0.256,0.299,0.58,0.584,0.941,0.849c0.159,0.451,0.28,0.923,0.375,1.446
					c-0.396-0.35-0.754-0.703-1.063-1.067C180.886,182.384,180.808,181.968,180.693,181.593z"/>
				<path fill="#3D3045" d="M179.079,179.51c-0.349,0.058-0.685,0.145-1.017,0.29c-0.35,0.039-0.702,0.038-1.067-0.011
					c0.343-0.136,0.668-0.232,0.998-0.289C178.366,179.539,178.729,179.548,179.079,179.51z"/>
				<path fill="#46304D" d="M185.695,186.338c0.946,0.506,1.987,0.988,3.146,1.463c0.73,1.339,1.479,2.804,2.201,4.427
					c-1.54-0.885-2.933-1.768-4.188-2.638C186.487,188.407,186.107,187.322,185.695,186.338z"/>
				<path fill="#3D3045" d="M178.062,179.799c0.302-0.026,0.591-0.081,0.871-0.145c-0.275,0.122-0.519,0.272-0.771,0.452
					c-0.326,0.096-0.664,0.163-1.033,0.202C177.438,180.107,177.748,179.924,178.062,179.799z"/>
				<path fill="#3D3045" d="M178.162,180.107c0.306-0.095,0.59-0.228,0.864-0.37c-0.242,0.17-0.472,0.387-0.671,0.613l-0.009,0.01
					c-0.301,0.172-0.614,0.316-0.958,0.433C177.633,180.517,177.881,180.298,178.162,180.107z"/>
				<path fill="#3D3045" d="M178.832,180.735c0.215-0.285,0.379-0.597,0.493-0.916c-0.095,0.318-0.16,0.644-0.185,0.987
					c-0.134,0.32-0.297,0.651-0.509,0.976c0.034-0.354,0.098-0.699,0.192-1.017C178.833,180.755,178.832,180.735,178.832,180.735z"
					/>
				<path fill="#3D3045" d="M179.101,179.821c-0.2,0.226-0.369,0.46-0.516,0.732c-0.009,0.01-0.009,0.01-0.009,0.01
					c-0.258,0.229-0.537,0.439-0.836,0.631c0.183-0.313,0.378-0.597,0.606-0.834l0.009-0.01
					C178.627,180.189,178.87,180.02,179.101,179.821z"/>
				<path fill="#3D3045" d="M177.065,178.719c0.327,0.197,0.651,0.356,0.982,0.465c-0.354-0.02-0.705-0.001-1.051,0.076
					c-0.38-0.116-0.773-0.281-1.16-0.494c0.407-0.061,0.807-0.073,1.2-0.055C177.037,178.73,177.046,178.72,177.065,178.719z"/>
				<path fill="#3C3044" d="M173.769,175.407c0.392,0.565,0.791,1.082,1.194,1.529c-0.585-0.115-1.218-0.198-1.904-0.22
					c-0.586-0.536-1.168-1.159-1.765-1.85C172.195,175.003,173.02,175.184,173.769,175.407z"/>
				<path fill="#3D3045" d="M179.395,179.972c-0.009,0.284-0.008,0.577,0.032,0.868c0.021,0.019,0.001,0.02,0.001,0.02
					c-0.044,0.345-0.138,0.682-0.271,1.021c-0.045-0.369-0.061-0.729-0.017-1.074C179.249,180.537,179.336,180.249,179.395,179.972z
					"/>
				<path fill="#4E3053" d="M166.407,167.867c0.922,1.563,1.834,2.97,2.745,4.231c-1.479-0.428-3.111-0.829-4.878-1.183
					c-1.599-1.722-3.262-3.666-4.971-5.832C161.892,165.999,164.267,166.926,166.407,167.867z"/>
				<path fill="#3D3045" d="M174.963,176.936c0.351,0.401,0.708,0.753,1.072,1.057c-0.464-0.063-0.984-0.084-1.521-0.064
					c-0.475-0.346-0.962-0.74-1.456-1.212C173.746,176.738,174.378,176.821,174.963,176.936z"/>
				<path fill="#3D3045" d="M176.036,177.993c0.333,0.275,0.673,0.521,1,0.718c-0.393-0.018-0.793-0.006-1.2,0.055l-0.009,0.01
					c-0.427-0.231-0.868-0.511-1.312-0.848C175.051,177.909,175.571,177.93,176.036,177.993z"/>
				<path fill="#3D3045" d="M179.74,180.843c0.11,0.316,0.271,0.64,0.458,0.953c0.02-0.001,0.001,0.02,0.001,0.02
					c0.047,0.389,0.037,0.8,0,1.242c-0.222-0.379-0.386-0.761-0.511-1.146C179.75,181.546,179.765,181.193,179.74,180.843z"/>
				<path fill="#3D3045" d="M176.996,179.26c0.341,0.119,0.669,0.189,0.996,0.24c-0.329,0.057-0.655,0.153-0.998,0.289
					c-0.394-0.038-0.791-0.114-1.22-0.237C176.184,179.402,176.588,179.302,176.996,179.26z"/>
				<path fill="#413049" d="M183.53,185.047c0.657,0.434,1.372,0.865,2.166,1.291c0.412,0.984,0.792,2.069,1.159,3.251
					c-1.028-0.707-1.949-1.41-2.772-2.119C183.932,186.589,183.748,185.788,183.53,185.047z"/>
				<path fill="#3D3045" d="M178.346,180.361c-0.228,0.237-0.423,0.521-0.606,0.834l-0.009,0.011
					c-0.338,0.194-0.698,0.37-1.098,0.528c0.239-0.355,0.481-0.671,0.755-0.94C177.732,180.677,178.045,180.533,178.346,180.361z"/>
				<path fill="#3D3045" d="M178.145,181.535c0.257-0.248,0.483-0.505,0.68-0.77c-0.095,0.318-0.159,0.664-0.192,1.017
					c0,0-0.01-0.009-0.009,0.01c-0.213,0.305-0.455,0.621-0.747,0.93C177.935,182.299,178.024,181.903,178.145,181.535z"/>
				<path fill="#3D3045" d="M179.157,181.881c0.133-0.339,0.227-0.677,0.271-1.021c0.044,0.35,0.127,0.697,0.26,1.052
					c-0.05,0.394-0.149,0.8-0.287,1.208C179.273,182.696,179.195,182.28,179.157,181.881z"/>
				<path fill="#3D3045" d="M180.2,181.815c0.209,0.331,0.459,0.679,0.746,1.006c0.053,0.466,0.078,0.963,0.057,1.493
					c-0.314-0.423-0.578-0.839-0.803-1.257C180.237,182.615,180.247,182.204,180.2,181.815z"/>
				<path fill="#3D3045" d="M180.946,182.821c0.31,0.364,0.667,0.717,1.063,1.067c0.119,0.58,0.193,1.211,0.241,1.893
					c-0.466-0.503-0.892-0.988-1.248-1.467C181.023,183.784,180.999,183.287,180.946,182.821z"/>
				<path fill="#3C3044" d="M182.009,183.888c0.449,0.396,0.965,0.779,1.521,1.159c0.218,0.741,0.402,1.542,0.552,2.424
					c-0.686-0.569-1.303-1.132-1.832-1.69C182.203,185.099,182.128,184.468,182.009,183.888z"/>
				<path fill="#3D3045" d="M175.836,178.766c0.387,0.213,0.78,0.378,1.16,0.494c-0.408,0.042-0.812,0.142-1.222,0.291
					c-0.458-0.112-0.931-0.292-1.426-0.51c0.499-0.144,0.991-0.239,1.479-0.265L175.836,178.766z"/>
				<path fill="#58325A" d="M191.042,192.228c2.009,1.152,4.254,2.332,6.715,3.499c1.972,3.129,3.991,6.647,6.035,10.516
					c-3.664-2.413-6.99-4.765-9.918-7.021C192.951,196.67,192.012,194.326,191.042,192.228z"/>
				<path fill="#3D3045" d="M176.994,179.789c0.366,0.049,0.718,0.049,1.067,0.011c-0.314,0.125-0.624,0.308-0.933,0.51
					c-0.398,0.051-0.818,0.063-1.26,0.039C176.254,180.122,176.632,179.925,176.994,179.789z"/>
				<path fill="#46304D" d="M169.152,172.098c0.719,1.037,1.43,1.957,2.143,2.769c-1.05-0.178-2.205-0.321-3.453-0.4
					c-1.149-1.033-2.339-2.229-3.568-3.551C166.041,171.269,167.673,171.669,169.152,172.098z"/>
				<path fill="#3D3045" d="M177.129,180.309c0.369-0.04,0.707-0.106,1.033-0.202c-0.28,0.191-0.529,0.41-0.774,0.687
					c-0.373,0.128-0.776,0.228-1.203,0.29C176.487,180.784,176.811,180.522,177.129,180.309z"/>
				<path fill="#3D3045" d="M178.632,181.782c0.212-0.324,0.375-0.656,0.509-0.976c-0.044,0.345-0.029,0.706,0.017,1.074
					c-0.13,0.378-0.309,0.75-0.547,1.125c-0.03-0.428-0.019-0.82,0.012-1.213C178.622,181.773,178.632,181.782,178.632,181.782z"/>
				<path fill="#3D3045" d="M177.739,181.195c0.299-0.192,0.578-0.402,0.836-0.631c-0.165,0.292-0.308,0.623-0.431,0.971
					c-0.274,0.269-0.589,0.521-0.934,0.764c0.137-0.408,0.327-0.771,0.52-1.093L177.739,181.195z"/>
				<path fill="#3D3045" d="M179.688,181.911c0.125,0.384,0.289,0.767,0.511,1.146c-0.055,0.462-0.138,0.956-0.269,1.461
					c-0.229-0.477-0.4-0.956-0.529-1.399C179.539,182.711,179.638,182.305,179.688,181.911z"/>
				<path fill="#3D3045" d="M174.515,177.928c0.444,0.337,0.885,0.617,1.312,0.848c-0.487,0.026-0.979,0.121-1.479,0.265
					c-0.545-0.244-1.134-0.545-1.718-0.914C173.298,178.023,173.93,177.959,174.515,177.928z"/>
				<path fill="#413049" d="M171.294,174.866c0.597,0.691,1.179,1.314,1.765,1.85c-0.787-0.055-1.628-0.049-2.535-0.01
					c-0.858-0.648-1.762-1.391-2.683-2.241C169.09,174.545,170.245,174.688,171.294,174.866z"/>
				<path fill="#3C3044" d="M173.059,176.716c0.493,0.472,0.981,0.866,1.456,1.212c-0.585,0.031-1.217,0.095-1.885,0.199
					c-0.693-0.393-1.382-0.874-2.106-1.421C171.431,176.667,172.272,176.661,173.059,176.716z"/>
				<path fill="#663662" d="M152.033,155.103c2.5,3.688,4.929,7.036,7.27,9.979c-3.542-1.246-7.483-2.46-11.771-3.598
					c-4.628-4.433-9.538-9.535-14.586-15.215C139.942,149.196,146.346,152.165,152.033,155.103z"/>
				<path fill="#3D3045" d="M177.388,180.793c-0.274,0.269-0.516,0.585-0.755,0.94c-0.429,0.169-0.917,0.323-1.427,0.438
					c0.313-0.417,0.65-0.778,0.98-1.089C176.611,181.021,177.015,180.921,177.388,180.793z"/>
				<path fill="#3D3045" d="M175.774,179.551c0.429,0.124,0.826,0.2,1.22,0.237c-0.362,0.137-0.74,0.333-1.125,0.559
					c-0.472-0.033-0.956-0.095-1.481-0.194C174.85,179.904,175.314,179.693,175.774,179.551z"/>
				<path fill="#3D3045" d="M180.199,183.057c0.225,0.418,0.489,0.833,0.803,1.257c-0.007,0.597-0.07,1.235-0.18,1.887
					c-0.354-0.587-0.648-1.138-0.892-1.682C180.061,184.012,180.144,183.519,180.199,183.057z"/>
				<path fill="#4E3053" d="M186.854,189.589c1.255,0.871,2.648,1.753,4.188,2.638c0.97,2.098,1.908,4.443,2.832,6.993
					c-2.153-1.663-4.087-3.279-5.792-4.839C187.705,192.642,187.299,191.042,186.854,189.589z"/>
				<path fill="#3D3045" d="M175.869,180.348c0.442,0.025,0.862,0.012,1.26-0.039c-0.318,0.213-0.642,0.475-0.944,0.774
					c-0.473,0.094-0.989,0.131-1.527,0.131C175.065,180.88,175.475,180.584,175.869,180.348z"/>
				<path fill="#3D3045" d="M179.157,181.881c0.038,0.399,0.116,0.815,0.244,1.238c-0.154,0.448-0.337,0.908-0.579,1.371
					c-0.104-0.513-0.179-1.017-0.212-1.484C178.848,182.631,179.027,182.259,179.157,181.881z"/>
				<path fill="#3D3045" d="M177.876,182.723c0.292-0.309,0.533-0.625,0.747-0.93c-0.031,0.393-0.042,0.785-0.012,1.213
					c-0.226,0.403-0.51,0.81-0.844,1.209c-0.009-0.537,0.026-1.018,0.101-1.481L177.876,182.723z"/>
				<path fill="#3C3044" d="M181.002,184.313c0.356,0.479,0.782,0.964,1.248,1.467c0.055,0.779,0.064,1.609,0.009,2.492
					c-0.54-0.714-1.028-1.401-1.427-2.064l-0.01-0.009C180.933,185.549,180.995,184.91,181.002,184.313z"/>
				<path fill="#46304D" d="M184.082,187.471c0.823,0.708,1.744,1.412,2.772,2.119c0.445,1.452,0.851,3.053,1.228,4.792
					c-1.337-1.199-2.524-2.356-3.563-3.493C184.413,189.662,184.273,188.516,184.082,187.471z"/>
				<path fill="#413049" d="M182.25,185.781c0.529,0.558,1.146,1.121,1.832,1.69c0.191,1.045,0.331,2.191,0.437,3.417
					c-0.846-0.893-1.592-1.771-2.259-2.615C182.315,187.39,182.306,186.56,182.25,185.781z"/>
				<path fill="#3D3045" d="M174.348,179.042c0.495,0.218,0.968,0.397,1.426,0.51c-0.46,0.142-0.924,0.353-1.386,0.603
					c-0.577-0.125-1.195-0.287-1.847-0.516C173.159,179.379,173.761,179.181,174.348,179.042z"/>
				<path fill="#3D3045" d="M178.145,181.535c-0.121,0.369-0.21,0.764-0.269,1.188l-0.009,0.01
					c-0.319,0.339-0.678,0.662-1.086,0.977c0.101-0.514,0.243-0.99,0.429-1.411C177.555,182.056,177.87,181.804,178.145,181.535z"/>
				<path fill="#3D3045" d="M179.401,183.119c0.129,0.443,0.3,0.922,0.529,1.399c-0.136,0.574-0.338,1.181-0.577,1.81
					c-0.231-0.643-0.401-1.249-0.531-1.838C179.064,184.027,179.247,183.567,179.401,183.119z"/>
				<path fill="#3C3044" d="M172.63,178.127c0.584,0.369,1.173,0.67,1.718,0.914c-0.587,0.139-1.189,0.338-1.807,0.596
					c-0.751-0.243-1.538-0.572-2.378-0.966C171.038,178.438,171.866,178.257,172.63,178.127z"/>
				<path fill="#3D3045" d="M176.632,181.734c0.4-0.159,0.759-0.334,1.098-0.528c-0.192,0.323-0.382,0.685-0.52,1.093
					c-0.402,0.266-0.825,0.514-1.308,0.745C176.123,182.563,176.366,182.12,176.632,181.734z"/>
				<path fill="#3D3045" d="M176.185,181.083c-0.33,0.311-0.667,0.671-0.98,1.089c-0.578,0.129-1.188,0.23-1.858,0.296
					c0.436-0.473,0.876-0.888,1.311-1.253C175.196,181.215,175.712,181.177,176.185,181.083z"/>
				<path fill="#58325A" d="M159.303,165.083c1.708,2.166,3.372,4.11,4.971,5.832c-2.285-0.483-4.808-0.884-7.533-1.226
					c-2.917-2.375-5.998-5.131-9.209-8.204C151.819,162.622,155.76,163.837,159.303,165.083z"/>
				<path fill="#3D3045" d="M174.388,180.154c0.525,0.099,1.009,0.161,1.481,0.194c-0.395,0.236-0.804,0.532-1.211,0.867
					c-0.606,0.013-1.225-0.022-1.905-0.093C173.303,180.73,173.848,180.408,174.388,180.154z"/>
				<path fill="#413049" d="M170.524,176.707c0.724,0.547,1.413,1.028,2.106,1.421c-0.764,0.129-1.592,0.311-2.467,0.544
					c-0.98-0.446-2.016-0.977-3.088-1.613C168.305,176.885,169.452,176.764,170.524,176.707z"/>
				<path fill="#4E3053" d="M164.273,170.915c1.229,1.322,2.418,2.519,3.568,3.551c-1.535-0.113-3.21-0.149-5.01-0.13
					c-1.924-1.333-3.961-2.895-6.091-4.647C159.465,170.03,161.989,170.432,164.273,170.915z"/>
				<path fill="#46304D" d="M167.841,174.466c0.921,0.85,1.825,1.593,2.683,2.241c-1.072,0.058-2.219,0.178-3.449,0.352
					c-1.346-0.768-2.761-1.689-4.243-2.723C164.631,174.316,166.307,174.353,167.841,174.466z"/>
				<path fill="#7B4170" d="M203.792,206.242c5.255,3.47,11.231,7.048,17.778,10.654c6.458,9.026,13.114,19.323,19.584,30.46
					c-10.491-7.509-20.119-15.132-28.502-22.442C209.714,218.064,206.738,211.802,203.792,206.242z"/>
				<path fill="#3D3045" d="M178.61,183.005c0.033,0.467,0.108,0.972,0.212,1.484c-0.257,0.522-0.571,1.067-0.943,1.615
					c-0.086-0.66-0.131-1.303-0.114-1.89C178.1,183.815,178.384,183.409,178.61,183.005z"/>
				<path fill="#3C3044" d="M179.931,184.518c0.244,0.544,0.537,1.095,0.892,1.682l0.01,0.009c-0.122,0.77-0.291,1.57-0.524,2.423
					c-0.389-0.8-0.698-1.565-0.955-2.304C179.593,185.699,179.795,185.092,179.931,184.518z"/>
				<path fill="#3D3045" d="M176.781,183.71c0.408-0.315,0.767-0.638,1.086-0.977c-0.075,0.463-0.11,0.944-0.101,1.481
					c-0.369,0.46-0.797,0.903-1.283,1.369c0.051-0.667,0.154-1.289,0.289-1.863C176.772,183.721,176.772,183.721,176.781,183.71z"/>
				<path fill="#3C3044" d="M172.541,179.638c0.652,0.229,1.27,0.391,1.847,0.516c-0.54,0.254-1.085,0.577-1.635,0.968
					c-0.779-0.085-1.611-0.236-2.496-0.432C171.049,180.275,171.807,179.922,172.541,179.638z"/>
				<path fill="#3D3045" d="M175.205,182.172c0.51-0.115,0.999-0.269,1.427-0.438c-0.267,0.386-0.509,0.829-0.73,1.31
					c-0.531,0.244-1.12,0.491-1.761,0.691C174.491,183.149,174.836,182.632,175.205,182.172z"/>
				<path fill="#3D3045" d="M177.21,182.299c-0.186,0.421-0.329,0.897-0.429,1.411c-0.009,0.011-0.009,0.011-0.009,0.011
					c-0.464,0.357-0.986,0.718-1.56,1.052c0.201-0.626,0.434-1.206,0.69-1.729C176.385,182.813,176.808,182.565,177.21,182.299z"/>
				<path fill="#3C3044" d="M176.483,185.583c0.486-0.466,0.914-0.909,1.283-1.369c-0.018,0.587,0.028,1.23,0.114,1.89
					c-0.435,0.64-0.926,1.301-1.505,1.978C176.371,187.183,176.4,186.351,176.483,185.583z"/>
				<path fill="#413049" d="M180.833,186.209c0.399,0.663,0.888,1.35,1.427,2.064c-0.032,1.067-0.147,2.208-0.317,3.409
					c-0.633-1.07-1.174-2.077-1.634-3.05C180.542,187.779,180.71,186.979,180.833,186.209z"/>
				<path fill="#3C3044" d="M178.823,184.49c0.129,0.589,0.299,1.196,0.531,1.838c-0.282,0.719-0.63,1.471-1.045,2.256
					c-0.189-0.879-0.335-1.703-0.429-2.479C178.252,185.557,178.566,185.012,178.823,184.49z"/>
				<path fill="#46304D" d="M182.26,188.273c0.667,0.844,1.413,1.723,2.259,2.615c0.128,1.538,0.187,3.196,0.165,4.967
					c-1.033-1.46-1.953-2.857-2.741-4.173C182.112,190.48,182.228,189.34,182.26,188.273z"/>
				<path fill="#663662" d="M193.874,199.221c2.928,2.256,6.255,4.609,9.918,7.021c2.946,5.56,5.921,11.822,8.86,18.672
					c-5.648-4.896-10.71-9.657-15.128-14.16C196.357,206.545,195.136,202.691,193.874,199.221z"/>
				<path fill="#3C3044" d="M172.753,181.122c0.68,0.071,1.299,0.106,1.905,0.093c-0.435,0.365-0.875,0.78-1.311,1.253
					c-0.767,0.09-1.606,0.116-2.497,0.115C171.496,182.021,172.126,181.537,172.753,181.122z"/>
				<path fill="#413049" d="M170.163,178.671c0.84,0.395,1.626,0.724,2.378,0.966c-0.734,0.284-1.492,0.638-2.284,1.052
					c-1.063-0.227-2.181-0.538-3.363-0.923C168.047,179.323,169.146,178.96,170.163,178.671z"/>
				<path fill="#4E3053" d="M184.519,190.888c1.039,1.137,2.227,2.294,3.563,3.493c0.492,2.261,0.913,4.75,1.268,7.439
					c-1.752-2.095-3.312-4.093-4.667-5.965C184.705,194.084,184.646,192.426,184.519,190.888z"/>
				<path fill="#58325A" d="M188.082,194.381c1.705,1.56,3.639,3.176,5.792,4.839c1.262,3.471,2.483,7.325,3.65,11.534
					c-3.058-3.12-5.783-6.11-8.174-8.934C188.995,199.132,188.574,196.643,188.082,194.381z"/>
				<path fill="#413049" d="M179.354,186.328c0.257,0.739,0.566,1.504,0.955,2.304c-0.271,1.021-0.615,2.106-1.043,3.243
					c-0.385-1.162-0.708-2.269-0.957-3.292C178.723,187.799,179.071,187.047,179.354,186.328z"/>
				<path fill="#3C3044" d="M173.347,182.468c0.67-0.065,1.28-0.167,1.858-0.296c-0.369,0.46-0.714,0.977-1.064,1.563
					c-0.717,0.244-1.523,0.463-2.391,0.647C172.276,183.66,172.819,183.025,173.347,182.468z"/>
				<path fill="#3C3044" d="M175.212,184.772c0.574-0.334,1.096-0.694,1.56-1.052c-0.135,0.574-0.238,1.195-0.289,1.863
					c-0.549,0.538-1.187,1.071-1.903,1.608C174.763,186.312,174.971,185.509,175.212,184.772z"/>
				<path fill="#46304D" d="M167.075,177.059c1.072,0.636,2.108,1.167,3.088,1.613c-1.017,0.289-2.116,0.652-3.269,1.095
					c-1.481-0.468-3.059-1.057-4.724-1.759C163.923,177.6,165.555,177.287,167.075,177.059z"/>
				<path fill="#413049" d="M173.347,182.468c-0.528,0.557-1.071,1.192-1.597,1.914c-1.032,0.222-2.183,0.411-3.405,0.555
					c0.848-0.876,1.682-1.674,2.496-2.344l0.009-0.01C171.741,182.584,172.581,182.559,173.347,182.468z"/>
				<path fill="#3C3044" d="M174.141,183.735c0.641-0.201,1.23-0.448,1.761-0.691c-0.256,0.522-0.49,1.102-0.69,1.729
					c-0.656,0.407-1.392,0.798-2.207,1.175C173.369,185.136,173.747,184.392,174.141,183.735z"/>
				<path fill="#413049" d="M170.257,180.69c0.885,0.196,1.717,0.347,2.496,0.432c-0.626,0.415-1.257,0.899-1.903,1.461l-0.009,0.01
					c-1.067-0.011-2.207-0.067-3.42-0.207C168.403,181.738,169.351,181.168,170.257,180.69z"/>
				<path fill="#4E3053" d="M162.832,174.335c1.482,1.034,2.897,1.955,4.243,2.723c-1.52,0.229-3.152,0.542-4.904,0.949
					c-2.157-0.9-4.455-1.979-6.902-3.245C157.98,174.509,160.515,174.373,162.832,174.335z"/>
				<path fill="#413049" d="M177.88,186.104c0.094,0.777,0.24,1.6,0.429,2.479c-0.472,0.935-1.059,1.915-1.721,2.938
					c-0.125-1.225-0.206-2.374-0.213-3.439C176.954,187.406,177.445,186.744,177.88,186.104z"/>
				<path fill="#46304D" d="M180.309,188.632c0.46,0.973,1,1.979,1.634,3.05c-0.197,1.506-0.503,3.136-0.891,4.858
					c-0.703-1.644-1.312-3.204-1.787-4.665C179.694,190.738,180.038,189.654,180.309,188.632z"/>
				<path fill="#7B4170" d="M132.945,146.27c5.049,5.681,9.958,10.783,14.586,15.215c-6.165-1.662-13.054-3.196-20.5-4.563
					c-9.037-6.59-18.651-14.292-28.345-22.851c-0.104-0.092-0.219-0.193-0.324-0.286c0.13,0.042,0.28,0.083,0.41,0.125
					C111.09,137.751,122.65,141.966,132.945,146.27z"/>
				<path fill="#58325A" d="M156.74,169.688c2.13,1.752,4.167,3.314,6.091,4.647c-2.316,0.037-4.851,0.174-7.563,0.428
					c-3.359-1.706-6.967-3.74-10.752-6.077C148.935,168.897,153.019,169.234,156.74,169.688z"/>
				<path fill="#663662" d="M147.531,161.485c3.211,3.072,6.292,5.829,9.209,8.204c-3.721-0.454-7.806-0.791-12.224-1.002
					c-5.461-3.342-11.347-7.296-17.484-11.765C134.477,158.289,141.367,159.823,147.531,161.485z"/>
				<path fill="#413049" d="M174.58,187.192c0.716-0.537,1.354-1.07,1.903-1.608c-0.083,0.767-0.112,1.6-0.108,2.499
					c-0.668,0.799-1.45,1.643-2.33,2.492C174.186,189.364,174.359,188.22,174.58,187.192z"/>
				<path fill="#46304D" d="M166.894,179.767c1.182,0.386,2.3,0.697,3.363,0.923c-0.906,0.479-1.854,1.048-2.836,1.697
					c-1.527-0.143-3.168-0.386-4.923-0.712C164.03,180.928,165.502,180.292,166.894,179.767z"/>
				<path fill="#413049" d="M171.75,184.382c0.868-0.184,1.674-0.403,2.391-0.647c-0.394,0.657-0.772,1.4-1.136,2.212
					c-0.958,0.433-2.014,0.852-3.17,1.256C170.476,186.162,171.104,185.219,171.75,184.382z"/>
				<path fill="#46304D" d="M174.045,190.574c0.88-0.849,1.662-1.693,2.33-2.492c0.007,1.065,0.087,2.214,0.213,3.439
					c-0.821,1.266-1.774,2.598-2.85,3.986C173.779,193.736,173.878,192.088,174.045,190.574z"/>
				<path fill="#4E3053" d="M181.942,191.682c0.788,1.316,1.708,2.713,2.741,4.173c-0.005,2.297-0.123,4.787-0.356,7.448
					c-1.265-2.395-2.354-4.653-3.275-6.764C181.439,194.818,181.745,193.188,181.942,191.682z"/>
				<path fill="#413049" d="M175.212,184.772c-0.241,0.736-0.449,1.54-0.632,2.419c-0.834,0.651-1.788,1.289-2.828,1.941
					c0.397-1.165,0.812-2.224,1.253-3.186C173.82,185.571,174.556,185.179,175.212,184.772z"/>
				<path fill="#46304D" d="M178.309,188.584c0.249,1.023,0.571,2.129,0.957,3.292c-0.527,1.417-1.165,2.917-1.923,4.513
					c-0.347-1.731-0.589-3.351-0.754-4.867C177.25,190.499,177.836,189.519,178.309,188.584z"/>
				<path fill="#46304D" d="M167.421,182.387c1.213,0.14,2.353,0.196,3.42,0.207c-0.814,0.669-1.648,1.467-2.496,2.344
					c-1.505,0.169-3.15,0.288-4.928,0.344C164.808,184.19,166.149,183.218,167.421,182.387z"/>
				<path fill="#C096B3" d="M241.959,247.938c16.62,11.86,32.789,21.624,46.547,28.418c12.126,18.633,17.488,32.919,12.787,37.171
					c-4.71,4.262-18.454-2.465-35.852-16.346c-5.43-14.292-13.587-31.302-23.796-48.973c-0.157-0.285-0.333-0.568-0.491-0.853
					C241.423,247.556,241.682,247.748,241.959,247.938z"/>
				<path fill="#975C87" d="M241.155,247.356c0.157,0.285,0.334,0.568,0.491,0.853c10.209,17.671,18.366,34.68,23.796,48.973
					c-12.007-9.578-25.77-22.55-39.498-37.666c-0.212-0.243-0.445-0.484-0.658-0.727c-3.936-12.242-8.236-23.691-12.633-33.875
					C221.036,232.224,230.664,239.847,241.155,247.356z"/>
				<path fill="#4E3053" d="M162.17,178.008c1.665,0.702,3.242,1.291,4.724,1.759c-1.392,0.525-2.864,1.161-4.396,1.909
					c-2.27-0.415-4.728-0.996-7.352-1.705C157.644,179.181,159.986,178.526,162.17,178.008z"/>
				<path fill="#58325A" d="M184.683,195.855c1.355,1.872,2.915,3.87,4.667,5.965c0.482,3.64,0.853,7.657,1.09,11.994
					c-2.346-3.715-4.385-7.232-6.113-10.511C184.561,200.642,184.678,198.153,184.683,195.855z"/>
				<path fill="#46304D" d="M171.752,189.133c1.041-0.652,1.994-1.291,2.828-1.941c-0.221,1.028-0.395,2.172-0.535,3.382
					c-1.08,1.055-2.314,2.158-3.673,3.277C170.8,192.146,171.255,190.558,171.752,189.133z"/>
				<path fill="#4E3053" d="M179.265,191.875c0.475,1.46,1.083,3.021,1.787,4.665c-0.509,2.217-1.171,4.628-1.96,7.183
					c-0.732-2.619-1.316-5.071-1.75-7.335C178.101,194.793,178.738,193.292,179.265,191.875z"/>
				<path fill="#46304D" d="M168.345,184.938c1.223-0.144,2.374-0.333,3.405-0.555c-0.646,0.836-1.274,1.78-1.915,2.821
					c-1.432,0.507-3.005,0.963-4.726,1.398C166.217,187.242,167.295,186.021,168.345,184.938z"/>
				<path fill="#663662" d="M189.35,201.821c2.391,2.823,5.117,5.814,8.174,8.934c1.678,6.029,3.259,12.777,4.663,20.062
					c-4.462-5.967-8.407-11.678-11.747-17.001C190.203,209.478,189.832,205.46,189.35,201.821z"/>
				<path fill="#46304D" d="M173.005,185.947c-0.441,0.962-0.855,2.021-1.253,3.186c-1.275,0.792-2.716,1.583-4.285,2.372
					c0.789-1.587,1.579-3.008,2.368-4.302C170.991,186.799,172.047,186.38,173.005,185.947z"/>
				<path fill="#7B4170" d="M197.524,210.754c4.418,4.503,9.48,9.264,15.128,14.16c4.397,10.184,8.698,21.633,12.633,33.875
					c-8.661-9.582-16.452-19.054-23.099-27.973C200.784,223.531,199.202,216.783,197.524,210.754z"/>
				<path fill="#58325A" d="M155.268,174.763c2.448,1.266,4.745,2.344,6.902,3.245c-2.185,0.519-4.526,1.173-7.024,1.962
					c-3.561-0.952-7.424-2.17-11.549-3.639C147.784,175.626,151.681,175.104,155.268,174.763z"/>
				<path fill="#4E3053" d="M168.345,184.938c-1.049,1.083-2.127,2.305-3.235,3.665c-2.21,0.569-4.661,1.073-7.301,1.518
					c1.957-1.816,3.829-3.432,5.608-4.838C165.194,185.225,166.84,185.107,168.345,184.938z"/>
				<path fill="#4E3053" d="M162.498,181.675c1.755,0.326,3.396,0.569,4.923,0.712c-1.272,0.831-2.613,1.803-4.004,2.895
					c-2.294,0.075-4.811,0.044-7.521-0.083C158.217,183.832,160.424,182.657,162.498,181.675z"/>
				<path fill="#663662" d="M144.516,168.686c3.785,2.337,7.393,4.372,10.752,6.077c-3.587,0.34-7.484,0.863-11.671,1.568
					c-5.931-2.095-12.386-4.689-19.206-7.732C131.616,168.366,138.371,168.412,144.516,168.686z"/>
				<path fill="#4E3053" d="M176.588,191.521c0.166,1.516,0.407,3.136,0.754,4.867c-0.972,2.047-2.137,4.25-3.472,6.561
					c-0.149-2.67-0.197-5.161-0.133-7.442C174.814,194.12,175.767,192.788,176.588,191.521z"/>
				<path fill="#58325A" d="M181.052,196.54c0.922,2.11,2.011,4.369,3.275,6.764c-0.31,3.653-0.812,7.649-1.518,11.92
					c-1.492-4.094-2.732-7.947-3.717-11.501C179.881,201.168,180.542,198.757,181.052,196.54z"/>
				<path fill="#4E3053" d="M174.045,190.574c-0.167,1.515-0.266,3.162-0.308,4.934c-1.411,1.787-3.029,3.683-4.837,5.647
					c0.44-2.644,0.923-5.084,1.472-7.304C171.731,192.732,172.965,191.629,174.045,190.574z"/>
				<path fill="#4E3053" d="M165.109,188.602c1.721-0.435,3.293-0.891,4.726-1.398c-0.79,1.294-1.58,2.715-2.368,4.302
					c-2.031,1.038-4.307,2.061-6.791,3.064C162.184,192.357,163.667,190.361,165.109,188.602z"/>
				<path fill="#4E3053" d="M167.467,191.505c1.569-0.789,3.01-1.58,4.285-2.372c-0.497,1.425-0.952,3.013-1.38,4.718
					c-1.749,1.434-3.728,2.919-5.921,4.435C165.44,195.799,166.455,193.535,167.467,191.505z"/>
				<path fill="#58325A" d="M155.146,179.97c2.624,0.709,5.082,1.29,7.352,1.705c-2.074,0.982-4.281,2.157-6.602,3.523
					c-3.663-0.184-7.69-0.543-12.015-1.091C147.885,182.474,151.663,181.097,155.146,179.97z"/>
				<path fill="#7B4170" d="M127.032,156.921c6.137,4.469,12.023,8.423,17.484,11.765c-6.145-0.274-12.9-0.32-20.125-0.087
					c-10.143-4.517-21.08-10.026-32.301-16.371C104.547,153.345,116.364,154.955,127.032,156.921z"/>
				<path fill="#58325A" d="M177.342,196.388c0.434,2.264,1.017,4.716,1.75,7.335c-1.094,3.49-2.453,7.259-4.07,11.256
					c-0.569-4.319-0.961-8.355-1.151-12.03C175.205,200.639,176.371,198.435,177.342,196.388z"/>
				<path fill="#663662" d="M184.327,203.304c1.729,3.279,3.767,6.796,6.113,10.511c0.342,6.238,0.417,13.136,0.234,20.536
					c-3.091-6.784-5.736-13.21-7.865-19.127C183.516,210.953,184.017,206.957,184.327,203.304z"/>
				<path fill="#58325A" d="M155.896,185.199c2.71,0.127,5.227,0.158,7.521,0.083c-1.779,1.406-3.652,3.022-5.608,4.838
					c-3.626,0.616-7.631,1.135-11.977,1.536C149.377,189.197,152.737,187.031,155.896,185.199z"/>
				<path fill="#C096B3" d="M59.355,93.757c9.777,12.103,23.249,26.078,39.008,40.028c-19.3-6.006-37.51-10.156-52.524-12.288
					c-17.362-13.922-26.952-25.859-23.85-31.413C25.005,84.691,39.381,86.516,59.355,93.757z"/>
				<path fill="#975C87" d="M98.687,134.07c9.694,8.559,19.308,16.261,28.345,22.851c-10.668-1.966-22.485-3.577-34.942-4.693
					c-0.286-0.161-0.571-0.321-0.856-0.482c-17.747-10.079-33.424-20.631-45.395-30.25c15.015,2.132,33.225,6.282,52.524,12.288
					C98.468,133.877,98.583,133.979,98.687,134.07z"/>
				<path fill="#58325A" d="M168.9,201.155c1.809-1.965,3.427-3.86,4.837-5.647c-0.064,2.281-0.016,4.771,0.133,7.442
					c-1.823,3.158-3.971,6.559-6.421,10.112C167.821,208.75,168.293,204.766,168.9,201.155z"/>
				<path fill="#663662" d="M143.597,176.332c4.125,1.468,7.989,2.687,11.549,3.639c-3.483,1.126-7.261,2.503-11.265,4.137
					c-6.211-0.789-13.044-1.945-20.333-3.449C130.699,178.826,137.448,177.387,143.597,176.332z"/>
				<path fill="#58325A" d="M160.676,194.57c2.483-1.004,4.76-2.026,6.791-3.064c-1.012,2.029-2.026,4.293-3.016,6.781
					c-2.994,2.087-6.386,4.226-10.127,6.402C156.488,200.955,158.607,197.565,160.676,194.57z"/>
				<path fill="#58325A" d="M157.809,190.12c2.64-0.445,5.09-0.949,7.301-1.518c-1.442,1.759-2.925,3.755-4.433,5.968
					c-3.376,1.385-7.175,2.743-11.31,4.061C152.303,195.452,155.116,192.602,157.809,190.12z"/>
				<path fill="#58325A" d="M170.372,193.851c-0.548,2.219-1.032,4.66-1.472,7.304c-2.463,2.685-5.297,5.516-8.457,8.443
					c1.293-4.136,2.631-7.923,4.007-11.312C166.644,196.77,168.624,195.285,170.372,193.851z"/>
				<path fill="#7B4170" d="M190.44,213.815c3.34,5.324,7.285,11.035,11.747,17.001c2.106,10.864,3.858,22.95,5.09,35.709
					c-6.424-11.169-12.016-22.061-16.604-32.175C190.857,226.951,190.782,220.053,190.44,213.815z"/>
				<path fill="#663662" d="M179.092,203.723c0.985,3.554,2.225,7.407,3.717,11.501c-1.005,6.145-2.409,12.887-4.205,20.032
					c-1.559-7.257-2.763-14.074-3.582-20.277C176.639,210.982,177.998,207.213,179.092,203.723z"/>
				<path fill="#663662" d="M143.881,184.107c4.325,0.548,8.352,0.908,12.015,1.091c-3.159,1.833-6.519,3.998-10.064,6.458
					c-6.223,0.57-13.118,0.894-20.529,0.98C131.868,189.301,138.116,186.452,143.881,184.107z"/>
				<path fill="#7B4170" d="M124.391,168.599c6.82,3.043,13.275,5.638,19.206,7.732c-6.149,1.055-12.897,2.495-20.049,4.327
					c-10.846-2.269-22.696-5.315-34.99-9.119C101.232,169.907,113.358,168.96,124.391,168.599z"/>
				<path fill="#975C87" d="M202.188,230.816c6.646,8.918,14.438,18.391,23.099,27.973c0.1,0.308,0.2,0.615,0.3,0.922
					c6.2,19.373,10.513,37.665,12.75,52.755c-9.704-11.892-20.392-27.464-30.59-45.125c-0.155-0.266-0.313-0.55-0.468-0.815
					C206.046,253.767,204.294,241.681,202.188,230.816z"/>
				<path fill="#663662" d="M173.871,202.949c0.19,3.675,0.583,7.711,1.151,12.03c-2.313,5.775-5.15,12.038-8.433,18.638
					c0.026-7.411,0.322-14.309,0.852-20.545c0,0,0,0,0.009-0.01C169.9,209.508,172.048,206.107,173.871,202.949z"/>
				<path fill="#C096B3" d="M225.286,258.789c0.213,0.243,0.445,0.484,0.658,0.727c13.728,15.115,27.491,28.088,39.498,37.666
					c7.88,20.729,10.046,35.774,4.514,38.907c-5.544,3.125-17.554-6.364-31.619-23.622c-2.238-15.09-6.551-33.382-12.75-52.755
					C225.486,259.404,225.386,259.097,225.286,258.789z"/>
				<path fill="#663662" d="M145.832,191.656c4.346-0.401,8.351-0.92,11.977-1.536c-2.692,2.482-5.505,5.332-8.442,8.511
					c-5.933,1.904-12.597,3.71-19.818,5.39C135.248,199.354,140.719,195.197,145.832,191.656z"/>
				<path fill="#663662" d="M168.9,201.155c-0.607,3.611-1.08,7.595-1.451,11.907c-0.009,0.01-0.009,0.01-0.009,0.01
					c-3.505,5.106-7.611,10.577-12.26,16.264c1.627-7.185,3.4-13.821,5.263-19.738C163.604,206.67,166.438,203.839,168.9,201.155z"
					/>
				<path fill="#663662" d="M149.367,198.631c4.134-1.318,7.933-2.676,11.31-4.061c-2.069,2.996-4.188,6.385-6.352,10.119
					c-5.356,3.144-11.433,6.345-18.087,9.529C140.751,208.432,145.167,203.198,149.367,198.631z"/>
				<path fill="#7B4170" d="M182.809,215.224c2.129,5.917,4.774,12.343,7.865,19.127c-0.281,11.003-1.179,23.124-2.723,35.789
					c-3.888-12.254-7.01-24.07-9.348-34.883C180.4,228.111,181.804,221.369,182.809,215.224z"/>
				<path fill="#663662" d="M164.451,198.286c-1.376,3.388-2.714,7.175-4.007,11.312c-4.546,4.224-9.771,8.67-15.557,13.225
					c3.151-6.661,6.323-12.756,9.437-18.134C158.065,202.512,161.457,200.374,164.451,198.286z"/>
				<path fill="#7B4170" d="M149.367,198.631c-4.199,4.567-8.616,9.801-13.13,15.587c-9.892,4.747-21.067,9.456-33.041,13.827
					c8.978-8.97,17.909-17.067,26.353-24.023C136.77,202.341,143.434,200.535,149.367,198.631z"/>
				<path fill="#7B4170" d="M123.548,180.659c7.289,1.503,14.122,2.66,20.333,3.449c-5.765,2.344-12.013,5.194-18.579,8.529
					c-11.031,0.107-23.207-0.341-35.975-1.421C101.305,186.903,112.886,183.355,123.548,180.659z"/>
				<path fill="#975C87" d="M92.089,152.228c11.221,6.345,22.158,11.854,32.301,16.371c-11.032,0.361-23.158,1.308-35.833,2.94
					c-0.31-0.091-0.61-0.192-0.92-0.283c-19.451-6.067-36.979-13.049-50.703-19.904c15.195-1.143,33.966-0.973,54.189,0.791
					C91.449,152.174,91.764,152.197,92.089,152.228z"/>
				<path fill="#C096B3" d="M91.233,151.746c0.285,0.161,0.57,0.321,0.856,0.482c-0.325-0.031-0.64-0.054-0.965-0.085
					c-20.224-1.763-38.995-1.933-54.189-0.791c-19.899-9.934-31.803-19.565-29.982-25.666c1.821-6.1,16.953-7.298,38.886-4.19
					C57.81,131.115,73.486,141.667,91.233,151.746z"/>
				<path fill="#7B4170" d="M175.022,214.979c0.819,6.203,2.023,13.02,3.582,20.277c-2.644,10.671-6.131,22.277-10.383,34.286
					c-1.163-12.753-1.687-24.905-1.632-35.925C169.872,227.018,172.708,220.755,175.022,214.979z"/>
				<path fill="#7B4170" d="M125.302,192.637c7.411-0.087,14.307-0.41,20.529-0.98c-5.113,3.541-10.583,7.698-16.283,12.365
					c-10.697,2.484-22.639,4.653-35.292,6.323C104.993,203.547,115.502,197.575,125.302,192.637z"/>
				<path fill="#975C87" d="M190.674,234.351c4.588,10.114,10.18,21.006,16.604,32.175c0.022,0.312,0.063,0.622,0.085,0.934
					c1.892,20.173,2.174,38.907,1.12,54.067c-6.941-13.653-14.042-31.101-20.242-50.474c-0.1-0.308-0.189-0.605-0.289-0.913
					C189.496,257.475,190.393,245.354,190.674,234.351z"/>
				<path fill="#C096B3" d="M207.278,266.526c0.156,0.265,0.313,0.55,0.468,0.815c10.199,17.662,20.886,33.234,30.59,45.125
					c3.253,21.868,2.137,36.993-3.966,38.837c-6.093,1.854-15.821-9.968-25.887-29.777c1.055-15.16,0.772-33.894-1.12-54.067
					C207.341,267.148,207.3,266.837,207.278,266.526z"/>
				<path fill="#7B4170" d="M167.44,213.072c-0.529,6.236-0.826,13.134-0.852,20.545c-4.898,9.776-10.811,20.301-17.549,31.046
					c1.603-12.667,3.706-24.619,6.141-35.328C159.829,223.649,163.935,218.178,167.44,213.072z"/>
				<path fill="#7B4170" d="M160.444,209.598c-1.863,5.917-3.636,12.553-5.263,19.738c-6.907,8.496-14.973,17.485-23.926,26.512
					c4.304-11.963,8.938-23.123,13.633-33.024C150.672,218.268,155.897,213.822,160.444,209.598z"/>
				<path fill="#7B4170" d="M136.237,214.218c6.655-3.184,12.731-6.386,18.087-9.529c-3.114,5.378-6.286,11.474-9.437,18.134
					c-8.605,6.76-18.454,13.772-29.157,20.616C122.54,232.719,129.496,222.842,136.237,214.218z"/>
				<path fill="#975C87" d="M88.558,171.54c12.294,3.804,24.144,6.85,34.99,9.119c-10.662,2.697-22.243,6.245-34.22,10.557
					c-0.325-0.031-0.659-0.052-0.984-0.083c-20.243-1.762-38.818-4.846-53.655-8.611c14.535-4.392,32.847-8.244,52.928-10.862
					C87.927,171.623,88.247,171.576,88.558,171.54z"/>
				<path fill="#C096B3" d="M88.558,171.54c-0.311,0.036-0.63,0.083-0.941,0.119c-20.082,2.619-38.393,6.471-52.928,10.862
					c-21.492-5.458-35.139-12.337-34.677-18.707c0.441-6.368,14.916-10.795,36.923-12.462c13.723,6.855,31.252,13.837,50.703,19.904
					C87.947,171.348,88.248,171.449,88.558,171.54z"/>
				<path fill="#975C87" d="M178.604,235.256c2.337,10.813,5.46,22.629,9.348,34.883c-0.037,0.315-0.082,0.64-0.119,0.955
					c-2.502,20.038-6.263,38.326-10.563,52.85c-3.869-14.777-7.082-33.285-8.964-53.468c-0.022-0.312-0.063-0.623-0.085-0.934
					C172.473,257.533,175.96,245.927,178.604,235.256z"/>
				<path fill="#C096B3" d="M187.952,270.14c0.1,0.308,0.189,0.605,0.289,0.913c6.2,19.373,13.301,36.82,20.242,50.474
					c-1.533,21.99-5.886,36.448-12.261,36.939c-6.375,0.49-13.36-13.092-18.951-34.521c4.3-14.524,8.061-32.812,10.563-52.85
					C187.87,270.779,187.915,270.455,187.952,270.14z"/>
				<path fill="#975C87" d="M131.254,255.847c8.954-9.027,17.02-18.016,23.926-26.512c-2.436,10.708-4.539,22.66-6.141,35.328
					c-0.167,0.273-0.353,0.547-0.52,0.82c-10.729,17.012-21.873,31.905-31.931,43.171c2.706-14.926,7.562-32.941,14.337-51.909
					C131.032,256.436,131.147,256.137,131.254,255.847z"/>
				<path fill="#975C87" d="M89.328,191.215c12.768,1.081,24.944,1.528,35.975,1.421c-9.8,4.938-20.31,10.911-31.045,17.708
					c-0.319,0.046-0.63,0.083-0.95,0.129c-20.062,2.617-38.792,3.579-54.044,3.083c13.186-7.427,30.169-15.138,49.138-22.007
					C88.707,191.435,89.022,191.33,89.328,191.215z"/>
				<path fill="#C096B3" d="M89.328,191.215c-0.305,0.114-0.621,0.219-0.926,0.333c-18.969,6.87-35.952,14.58-49.138,22.007
					c-22.079-0.734-36.87-4.55-37.796-10.884c-0.937-6.343,12.18-13.796,33.221-20.151c14.836,3.765,33.412,6.849,53.655,8.611
					C88.668,191.163,89.002,191.184,89.328,191.215z"/>
				<path fill="#975C87" d="M166.589,233.617c-0.055,11.02,0.469,23.172,1.632,35.925c-0.107,0.289-0.203,0.588-0.31,0.877
					c-6.775,18.969-14.396,35.95-21.752,49.163c-0.603-15.218,0.251-33.916,2.753-53.954c0.046-0.325,0.083-0.64,0.128-0.965
					C155.778,253.918,161.69,243.393,166.589,233.617z"/>
				<path fill="#C096B3" d="M168.221,269.542c0.022,0.312,0.063,0.622,0.085,0.934c1.882,20.183,5.095,38.69,8.964,53.468
					c-6.237,21.051-13.628,34.197-19.993,33.309c-6.355-0.898-10.26-15.615-11.12-37.671c7.357-13.213,14.977-30.194,21.752-49.163
					C168.018,270.13,168.114,269.832,168.221,269.542z"/>
				<path fill="#975C87" d="M94.257,210.344c12.653-1.67,24.595-3.839,35.292-6.323c-8.444,6.957-17.375,15.054-26.353,24.023
					c-0.296,0.104-0.582,0.217-0.877,0.321c-18.959,6.878-36.987,11.84-51.93,14.611c11.237-10.098,26.104-21.302,43.063-32.12
					C93.714,210.687,93.996,210.515,94.257,210.344z"/>
				<path fill="#C096B3" d="M94.257,210.344c-0.262,0.17-0.543,0.342-0.805,0.513c-16.959,10.818-31.827,22.021-43.063,32.12
					c-21.654,4.042-36.862,3.475-39.125-2.542c-2.273-6.006,8.893-16.13,28-26.878c15.251,0.497,33.982-0.465,54.044-3.083
					C93.627,210.427,93.938,210.391,94.257,210.344z"/>
				<path fill="#C096B3" d="M149.04,264.663c-0.045,0.325-0.082,0.64-0.128,0.965c-2.502,20.038-3.356,38.736-2.753,53.954
					c-10.658,19.139-20.731,30.338-26.769,28.112s-6.696-17.401-2.8-39.04c10.058-11.266,21.202-26.159,31.931-43.171
					C148.687,265.21,148.873,264.936,149.04,264.663z"/>
				<path fill="#975C87" d="M103.196,228.044c11.973-4.371,23.149-9.08,33.041-13.827c-6.741,8.625-13.697,18.501-20.506,29.221
					c-0.262,0.171-0.524,0.341-0.786,0.512c-16.979,10.819-33.439,19.557-47.377,25.48c8.751-12.311,20.787-26.489,34.971-40.726
					C102.757,228.479,102.987,228.261,103.196,228.044z"/>
				<path fill="#C096B3" d="M103.196,228.044c-0.209,0.217-0.439,0.434-0.658,0.661c-14.184,14.236-26.219,28.415-34.971,40.726
					c-20.208,8.608-35.116,11.318-38.627,5.917c-3.503-5.413,5.17-17.719,21.448-32.371c14.943-2.771,32.971-7.732,51.93-14.611
					C102.615,228.262,102.9,228.148,103.196,228.044z"/>
				<path fill="#975C87" d="M144.887,222.823c-4.694,9.902-9.329,21.062-13.633,33.024c-0.219,0.227-0.448,0.445-0.667,0.672
					c-14.183,14.255-28.331,26.368-40.617,35.174c5.856-13.953,14.529-30.443,25.258-47.455c0.167-0.273,0.344-0.537,0.501-0.799
					C126.433,236.595,136.282,229.583,144.887,222.823z"/>
				<path fill="#C096B3" d="M131.254,255.847c-0.107,0.29-0.223,0.589-0.328,0.898c-6.775,18.968-11.632,36.983-14.337,51.909
					c-14.563,16.349-26.846,25.067-32.296,21.607c-5.44-3.47-2.81-18.354,5.678-38.568c12.286-8.806,26.434-20.919,40.617-35.174
					C130.806,256.292,131.035,256.074,131.254,255.847z"/>
				<path fill="#C096B3" d="M115.73,243.439c-0.157,0.263-0.334,0.526-0.501,0.799C104.5,261.25,95.827,277.74,89.971,291.693
					c-17.801,12.76-31.715,18.613-36.301,14.071c-4.567-4.544,1.222-18.483,13.898-36.333c13.938-5.923,30.398-14.662,47.377-25.48
					C115.207,243.78,115.469,243.61,115.73,243.439z"/>
			</g>
			<g>
			</g>
		</g>
	</g>
</g>
</svg>
