<?xml version="1.0" encoding="utf-8"?>
<!-- Generator: Adobe Illustrator 16.0.0, SVG Export Plug-In . SVG Version: 6.00 Build 0)  -->
<!DOCTYPE svg PUBLIC "-//W3C//DTD SVG 1.1//EN" "http://www.w3.org/Graphics/SVG/1.1/DTD/svg11.dtd">
<svg version="1.1" id="Capa_1" xmlns="http://www.w3.org/2000/svg" xmlns:xlink="http://www.w3.org/1999/xlink" x="0px" y="0px"
	 width="350.275px" height="353.396px" viewBox="0 0 350.275 353.396" enable-background="new 0 0 350.275 353.396"
	 xml:space="preserve">
<g opacity="0.62">
	<g>
		<g>
			<g>
				<g opacity="0.7">
					<g>
						<g>
							<path fill="#36A9E1" d="M258.216,10.421c0.001,0.01,1.671,0.966,4.631,1.517c-0.004,0.004,1.284,0.548,3.642,1.482
								c2.354,0.944,5.766,2.287,9.932,4.121c4.168,1.835,9.084,4.156,14.516,7.163c5.433,3.015,11.391,6.704,17.707,11.46
								l0.452,0.291c-0.03,0.042,2.677,2.179,7.52,6.976c-0.002,0.001,2.119,1.919,4.321,4.208c2.224,2.263,4.487,4.929,5.417,5.652
								c-0.001,0.003,0.869,0.48,2.244,1.637c1.369,1.157,3.247,3.013,5.104,5.797c1.855,2.773,3.686,6.498,4.771,11.146
								c1.086,4.63,1.403,10.202,0.193,16.175c-0.025,0.008,1.15-3.357,0.88-9.075c-0.145-2.843-0.684-6.259-1.973-9.906
								c-1.283-3.639-3.325-7.508-6.321-11.056c-0.007,0.004,0.431-1.558-0.392-4.211c-0.816-2.61-2.977-6.438-8.097-9.815
								c-0.013,0.023,1.975-0.19,5.51,2.575c1.747,1.395,3.877,3.565,6.039,7c2.141,3.427,4.335,8.147,5.718,14.45
								c-0.014,0.007-0.128-1.17-1.449-4.619c-0.67-1.717-1.667-3.995-3.251-6.86c-1.594-2.855-3.781-6.306-6.955-10.157
								c0,0.001,1.066,0.431,2.452,1.485c1.38,1.05,3.081,2.752,4.223,5.167c-0.021,0.021-1.891-2.359-5.521-6.473
								c-3.651-4.086-9.115-9.871-16.939-15.943c3.135,2.487,3.152,2.553,1.454,0.992c-1.716-1.535-5.287-4.53-9.765-7.528
								c-4.459-3.03-9.838-5.988-14.624-8.304c-4.774-2.345-8.932-4.117-10.635-5.688c0.01-0.003-5.06-1.374-10.306-1.649
								c-5.245-0.344-10.482,0.412-10.536,1.923"/>
							<path fill="none" stroke="#36A9E1" stroke-width="0" d="M323.276,47.234c-0.001,0.005,1.325,0.52,3.384,1.864
								c2.048,1.345,4.839,3.561,7.527,6.964c2.679,3.386,5.244,7.995,6.593,13.627c1.354,5.603,1.449,12.231-0.638,18.841"/>
						</g>
						<path fill="none" stroke="#36A9E1" stroke-width="0" d="M317.813,36.327c-0.001,0.005,1.484,0.687,3.821,2.181
							c2.328,1.497,5.511,3.849,8.705,7.192c3.194,3.325,6.385,7.658,8.685,12.657c2.31,4.98,3.702,10.609,3.597,16.021"/>
					</g>
				</g>
			</g>
		</g>
	</g>
</g>
<g opacity="0.62">
	<g>
		<g>
			<g>
				<g opacity="0.7">
					<g>
						<g>
							<line fill="none" stroke="#36A9E1" stroke-width="0" x1="24.836" y1="293.867" x2="24.836" y2="293.867"/>
							<line fill="none" stroke="#36A9E1" stroke-width="0" x1="25.508" y1="295.488" x2="25.508" y2="295.488"/>
							<path fill="#36A9E1" d="M55.849,307.93c-0.681-0.34-1.448-0.454-2.2-0.503c-1.619-0.112-2.241-2.003-3.804-2.104
								c-2.001-0.152-3.086-2.121-4.976-2.66c-3.484-0.997-7.301-2.21-9.804-5.01c-2.338-2.618-4.507-5.086-6.383-7.729
								c-1.871-2.638-3.448-5.455-4.414-8.639c-1.131-3.702-2.441-7.591-4.046-11.006c-0.594-1.252-1.176-3.265-1.794-5.201
								c-0.629-1.937-1.297-3.803-2.359-4.806c1.245,3.018,1.648,6.368,2.184,9.615c-1.462-3.208-2.57-6.651-3.506-10.136
								c-0.937-3.492-1.702-7.025-2.551-10.563c1.277,6.641,2.567,12.973,3.922,19.442c1.363,6.462,2.799,13.073,4.535,20.081
								c-1.835-3.481-3.417-7.371-4.696-11.412c-1.284-4.044-2.27-8.233-3.071-12.379c-1.623-8.333-2.466-16.347-4.512-24.072
								c-0.312-1.174-0.754-2.518-1.236-3.58c2.442,8.055,3.158,15.957,4.339,24.346c0.585,4.172,1.288,8.426,2.294,12.609
								c1.001,4.179,2.307,8.282,3.959,12.037c3.004,6.88,7.54,13.464,13.792,18.261c1.572,1.456,3.271,2.793,5.038,4.023
								c3.621,2.53,7.609,4.637,11.813,6.001c1.859,0.614,4.469,1.424,6.922,1.561c2.453,0.149,4.701-0.366,5.779-2.064
								c-1.122-0.375-2.503-0.242-3.537-0.79c0.505-0.218,1.083-0.495,1.626-0.604c-0.468-0.099-0.946-0.354-1.434-0.259
								c0.408-0.094,0.833-0.233,1.063-0.567c-0.523-0.235-1.446,0.087-1.946,0.183c-0.288,0.064-1.724,0.569-2.018,0.314
								c1.091-0.411,2.371-0.738,3.294-1.389c-0.287-0.109-0.595-0.132-0.857-0.295c0.447-0.224,1.171-0.168,1.466-0.557
								c-0.736-0.142-1.445-0.079-2.187-0.321c-0.602-0.195-1.122-0.427-1.761-0.421c0.793-0.094,1.79-0.042,2.439-0.506
								c-0.272-0.235-0.628-0.25-0.973-0.279c0.058-0.047,0.102-0.107,0.132-0.176c-0.146-0.036-0.306-0.183-0.462-0.205
								c0.028-0.1,0.025-0.205,0.087-0.298l-0.077,0.21"/>
							<line fill="#36A9E1" x1="55.849" y1="307.93" x2="55.849" y2="307.93"/>
							<path fill="#36A9E1" d="M54.729,315.125c-0.791-0.187-1.91-0.489-2.543-0.928"/>
							<path fill="none" stroke="#36A9E1" stroke-width="0" d="M18.167,284.979c0.013-0.005-1.225-2.347-2.835-6.117
								c-1.615-3.769-3.497-8.998-4.933-14.72c-1.471-5.722-2.474-11.914-3.302-17.592c-0.861-5.678-1.587-10.87-3.337-14.648"/>
						</g>
						<path fill="none" stroke="#36A9E1" stroke-width="0" d="M14.116,266.791c0.018-0.013-0.829-3.624-2.026-8.668
							c-1.235-5.071-2.64-11.583-4.87-18.146"/>
					</g>
				</g>
			</g>
		</g>
	</g>
</g>
<g opacity="0.62">
	<g>
		<g>
			<g>
				<g opacity="0.8">
					<g>
						<path fill="#36A9E1" d="M218.206,26.836l15.476,3.456c7.845,2.004,14.125,6.081,21.35,10.228
							c3.554,2.145,6.819,4.118,10.168,6.339c6.321,5.143,12.828,11.069,19.227,17.463c0.608,0.773,2.307,3.095,3.097,1.978
							c5.461,7.041,9.74,14.37,14.678,21.25c1.966,2.989,2.738,6.776,4.397,9.881c2.936,5.006,3.727,10.793,5.557,16.038
							c0.429,0.675,1.594,2.088,1.683,2.748c0.407,3.911,1.428,7.449,2.563,10.98c1.133,3.524,2.374,7.041,3.138,10.702
							c0.489,2.882,0.926,5.132,0.935,7.934c0.593,0.241,0.519,0.917,0.73,1.715c0.03,1.07-0.347,4.585-1.012,7.904
							c-0.643,3.326-1.576,6.44-2.014,6.924c-0.225,0.243,0.312-5.479,0.196-11.221c-0.051-5.745-0.762-11.449-1.083-11.217
							c-0.173,0.278,0.131,4.041,0.186,7.914c0.085,3.873-0.092,7.845-0.229,8.488c-0.408-6.854-1.317-12.326-2.244-16.653
							c-0.938-4.328-1.884-7.52-2.643-9.829c-1.548-4.604-2.211-5.737-2.028-4.902c0.156,0.846,1.051,3.711,2.016,7.409
							c0.977,3.693,1.989,8.231,2.731,12.278c-0.042,2.527,1.041,6.147,0.813,11.122c-0.165-1.49-0.73-3.748-1.32-5.771
							c-0.584-2.027-1.184-3.822-1.263-4.51c-0.577-3.171-1.142-4.469-1.566-5.885c-0.442-1.413-0.737-2.937-1.171-6.491
							c-0.357-2.918-1.481-6.787-2.869-10.412c-1.375-3.636-3-7.024-3.997-9.281c0.912,1.038,2.372,2.824,3.655,4.882
							c1.29,2.051,2.388,4.375,2.682,6.295c-0.33-4.254-1.695-6.406-3.166-8.471c-1.501-2.07-3.105-4.07-4.532-8.113
							c-0.308-0.738-0.787-1.544-1.366-2.382c-0.251-0.929-0.492-1.808-0.818-2.905c-2.91-6.48-6.857-11.347-10.51-17.208
							c0.379,0.463,0.04,1.16,0.305,1.708c1.19,2.777,2.683,5.042,4.228,7.36c1.534,2.317,3.124,4.688,4.334,7.589
							c0.352,1.157,1.955,2.271,2.461,3.457c1.076,2.378,1.309,4.774,1.768,7.163c-2.37-4.235-4.389-9.468-6.94-13.948
							c-0.574-0.905-1.788-1.705-2.502-2.242c1.088,2.081,2.145,4.183,3.182,6.31c1.927,3.648,4.496,7.763,6.457,11.906
							c1.967,4.126,3.313,8.252,3.062,11.395l0.346,0.663c-0.052,0.103-0.069,0.233-0.069,0.375
							c0.262,1.144,0.437,2.545,0.218,3.864c-0.135-1.068-0.282-2.135-0.45-3.199c-1.85-3.92-3.198-8.151-4.704-12.444
							c-1.504-4.283-3.171-8.629-5.488-12.508c-1.132-1.648-1.673-5.105-2.959-6.696c-3.488-4.788-6.656-9.953-9.734-15.124
							c-11.544-18.321-28.851-33.661-49.624-43.87L232,36.878l0.545,0.573l-1.328-0.775c-2.836-0.745-5.583-1.58-8.258-2.872
							c-1.066-0.691,2.047,0.373,3.036,0.091l-1.246-0.452l0.365-0.523c-0.522,0.022-0.743-0.383-1.052-0.668
							c6.37,1.287,12.714,3.003,18.842,5.412c-0.417-1.024-2.314-1.563-3.152-1.98c-2.132-0.553-4.263-1.037-6.109-1.845
							c-5.368-1.376-10.724-3.967-16.079-5.129c-0.962-0.379-1.921-0.767-2.853-1.204c-0.525-0.298-0.226-0.616,0.556-0.774
							C216.037,26.566,217.209,26.557,218.206,26.836z M282.294,74.113c-0.85-1.514-1.611-3.069-2.474-4.657l-1.17-1.422
							c-0.472-0.602-1.077-1.15-1.767-1.646c-2.055-2.591-4.211-5.115-6.512-7.552c1.888,2.972,3.802,5.937,6.537,8.979
							c-3.742-3.71-7.034-7.412-10.414-11.073c-3.377-3.65-6.854-7.244-10.888-10.489c-2.576-1.706-5.293-3.288-8.176-4.692
							c-2.05-0.95-4.14-1.688-6.227-2.326c12.316,6.35,22.759,15.241,31.32,25.16c8.592,9.955,15.375,20.89,21.181,32.295
							C290.935,88.73,286.939,81.513,282.294,74.113z M284.995,75.921c2.139,2.728,4.203,5.449,6.193,8.176
							c2.549,3.826,4.971,7.963,7.185,11.757c2.229,3.79,4.267,7.236,6.318,9.641c-3.791-7.308-8.392-14.4-13.503-21.398
							c2.261,3.45,2.547,3.944,1.598,2.364c-0.965-1.566-3.276-5.16-6.783-9.462C285.783,76.852,285.432,76.433,284.995,75.921z"/>
						<path fill="#36A9E1" d="M245.04,44.658c-3.175-2.436-6.626-4.605-10.118-6.744c1.176,1.311,2.164,2.515,3.566,3.772
							c3.882,3.054,8.624,5.217,12.471,8.323c10.975,8.9,21.058,18.612,29.836,29.713c0.377,0.594,1.266,1.85,2.169,2.605
							c-4.886-7.507-10.613-14.258-16.946-20.459C259.671,55.666,252.715,50,245.04,44.658z"/>
						<path fill="#36A9E1" d="M293.636,102.229c1.343,2.168,2.611,4.399,3.482,6.679c-0.233-2.301-1.359-5.148-2.407-7.368
							c-1.635-3.044-3.418-6.002-5.226-8.889C290.836,95.829,292.135,99.017,293.636,102.229z"/>
						<path fill="#36A9E1" d="M282.963,82.327l1.155,1.814l5.367,8.51c-1.426-3.348-2.915-6.689-4.745-9.918
							C284.238,83.133,283.598,82.855,282.963,82.327z"/>
					</g>
				</g>
			</g>
		</g>
	</g>
</g>
<g opacity="0.62">
	<g>
		<g>
			<g>
				<g opacity="0.8">
					<g>
						<path fill="#36A9E1" d="M119.678,312.945l-15.354-3.964c-7.775-2.262-13.917-6.544-21.001-10.927
							c-3.481-2.261-6.679-4.34-9.954-6.671c-6.148-5.348-12.456-11.487-18.641-18.088c-0.583-0.793-2.204-3.17-3.03-2.079
							c-5.225-7.217-9.261-14.684-13.969-21.722c-1.866-3.052-2.514-6.863-4.069-10.021c-2.768-5.1-3.368-10.91-5.024-16.212
							c-0.406-0.688-1.524-2.14-1.591-2.802c-0.278-3.922-1.181-7.492-2.199-11.059c-1.016-3.559-2.141-7.115-2.783-10.8
							c-0.394-2.896-0.756-5.16-0.672-7.961c-0.584-0.26-0.488-0.934-0.673-1.738c0.005-1.071,0.498-4.571,1.272-7.866
							c0.751-3.303,1.788-6.384,2.241-6.854c0.232-0.235-0.492,5.466-0.566,11.208c-0.139,5.743,0.383,11.468,0.712,11.247
							c0.183-0.272,0.002-4.043,0.076-7.916c0.042-3.873,0.351-7.837,0.508-8.476c0.181,6.864,0.91,12.363,1.693,16.718
							c0.794,4.356,1.635,7.578,2.318,9.911c1.394,4.653,2.02,5.806,1.865,4.967c-0.129-0.851-0.928-3.744-1.771-7.471
							c-0.854-3.723-1.716-8.292-2.324-12.362c0.125-2.524-0.839-6.178-0.446-11.142c0.116,1.494,0.606,3.77,1.129,5.811
							c0.517,2.045,1.057,3.859,1.113,4.549c0.472,3.188,0.993,4.504,1.372,5.933c0.396,1.427,0.639,2.959,0.956,6.526
							c0.261,2.929,1.257,6.832,2.524,10.501c1.254,3.679,2.766,7.119,3.688,9.407c-0.877-1.067-2.277-2.901-3.492-5
							c-1.222-2.092-2.242-4.451-2.472-6.379c0.189,4.262,1.483,6.458,2.885,8.571c1.432,2.119,2.969,4.17,4.261,8.258
							c0.284,0.748,0.736,1.569,1.288,2.426c0.219,0.937,0.432,1.823,0.722,2.931c2.694,6.573,6.479,11.567,9.936,17.545
							c-0.363-0.475-0.001-1.161-0.249-1.717c-1.098-2.815-2.515-5.127-3.983-7.496c-1.458-2.366-2.967-4.789-4.082-7.728
							c-0.313-1.168-1.879-2.333-2.345-3.536c-0.997-2.413-1.151-4.815-1.531-7.217c2.229,4.311,4.075,9.607,6.476,14.169
							c0.544,0.924,1.73,1.764,2.426,2.324c-1.019-2.115-2.005-4.251-2.972-6.411c-1.805-3.709-4.237-7.907-6.061-12.112
							c-1.829-4.189-3.038-8.357-2.684-11.49l-0.323-0.674c0.055-0.101,0.077-0.231,0.081-0.373
							c-0.223-1.152-0.352-2.558-0.089-3.869c0.099,1.072,0.211,2.143,0.344,3.212c1.719,3.979,2.927,8.252,4.291,12.593
							c1.362,4.33,2.884,8.729,5.073,12.682c1.077,1.685,1.503,5.158,2.736,6.791c3.328,4.9,6.324,10.167,9.23,15.437
							c10.934,18.692,27.726,34.595,48.15,45.483l1.527,0.441l-0.526-0.59l1.301,0.818c2.81,0.838,5.527,1.764,8.159,3.143
							c1.042,0.726-2.034-0.439-3.031-0.191l1.229,0.493l-0.382,0.511c0.523-0.004,0.73,0.408,1.03,0.703
							c-6.324-1.497-12.608-3.421-18.654-6.031c0.383,1.038,2.262,1.639,3.085,2.083c2.112,0.624,4.226,1.178,6.045,2.045
							c5.319,1.553,10.587,4.318,15.901,5.657c0.949,0.411,1.895,0.83,2.811,1.298c0.515,0.315,0.206,0.623-0.582,0.755
							C121.837,313.287,120.666,313.257,119.678,312.945z M57.185,263.58c0.8,1.541,1.509,3.12,2.318,4.736l1.123,1.46
							c0.452,0.618,1.039,1.185,1.711,1.704c1.969,2.657,4.041,5.251,6.259,7.763c-1.789-3.033-3.604-6.059-6.237-9.189
							c3.618,3.832,6.786,7.64,10.043,11.41c3.255,3.76,6.611,7.466,10.536,10.842c2.519,1.79,5.182,3.461,8.017,4.96
							c2.018,1.017,4.082,1.824,6.146,2.529c-12.1-6.752-22.244-15.984-30.474-26.179c-8.259-10.233-14.678-21.386-20.104-32.977
							C49.03,248.685,52.785,256.031,57.185,263.58z M54.545,261.683c-2.048-2.797-4.021-5.585-5.92-8.376
							c-2.421-3.908-4.705-8.123-6.793-11.988c-2.104-3.861-4.025-7.373-5.997-9.844c3.547,7.429,7.912,14.669,12.79,21.832
							c-2.146-3.522-2.416-4.026-1.52-2.416c0.914,1.598,3.104,5.265,6.467,9.681C53.788,260.728,54.125,261.158,54.545,261.683z"/>
						<path fill="#36A9E1" d="M93.447,294.247c3.092,2.539,6.471,4.822,9.89,7.075c-1.132-1.35-2.08-2.585-3.439-3.888
							c-3.779-3.18-8.447-5.499-12.189-8.73c-10.676-9.257-20.433-19.297-28.84-30.681c-0.357-0.606-1.205-1.89-2.082-2.676
							c4.636,7.665,10.137,14.6,16.262,21.008C79.186,282.763,85.952,288.655,93.447,294.247z"/>
						<path fill="#36A9E1" d="M46.775,235.104c-1.271-2.212-2.464-4.483-3.259-6.79c0.157,2.308,1.188,5.19,2.163,7.443
							c1.533,3.097,3.218,6.112,4.929,9.057C49.363,241.594,48.17,238.364,46.775,235.104z"/>
						<path fill="#36A9E1" d="M56.786,255.348l-1.094-1.851l-5.083-8.683c1.314,3.393,2.693,6.782,4.415,10.07
							C55.539,254.5,56.169,254.799,56.786,255.348z"/>
					</g>
				</g>
			</g>
		</g>
	</g>
</g>
<g opacity="0.62">
	<g>
		<g>
			<g>
				<g opacity="0.7">
					<g>
						<g>
							<line fill="none" stroke="#36A9E1" stroke-width="0" x1="266.866" y1="314.935" x2="266.866" y2="314.935"/>
							<line fill="none" stroke="#36A9E1" stroke-width="0" x1="263.771" y1="316.056" x2="263.771" y2="316.056"/>
							<path fill="#36A9E1" d="M200.55,339.835c1.675,0.055,3.375-0.156,4.955-0.479c3.346-0.669,6.345,0.544,9.599-0.422
								c4.03-1.223,8.303-0.685,12.476-2.084c7.64-2.568,15.028-6.103,22.633-8.639c7.194-2.4,13.791-5.496,20.121-8.952
								c6.335-3.464,12.415-7.276,18.695-11.37c7.314-4.74,14.829-11.453,20.379-18.751c2.041-2.653,5.215-6.608,7.906-10.763
								c2.71-4.138,4.925-8.455,5.545-11.36c-3.115,7.024-8.052,13.55-13.164,19.029c4.858-6.606,9.316-13.723,12.971-21.199
								c3.653-7.47,6.485-15.3,8.177-23.119c-3.456,14.56-10.396,28.445-19.76,39.852c-9.34,11.439-21.03,20.378-33.273,26.023
								c6.537-4.132,13.307-9.125,19.702-15.057c6.396-5.92,12.41-12.777,17.47-20.311c5.067-7.522,9.166-15.713,11.918-24.011
								c2.766-8.292,4.18-16.673,4.179-24.447c0.005-2.357-0.202-4.988-0.584-6.973c0.803,7.666,0.113,15.999-1.996,24.313
								c-2.1,8.318-5.62,16.598-10.191,24.275c-4.565,7.688-10.172,14.763-16.269,20.951c-6.097,6.199-12.667,11.519-19.147,15.994
								c-11.917,8.244-24.815,14.644-38.26,19.953c-3.729,1.261-7.5,2.436-11.299,3.452c-7.798,2.091-15.772,3.606-23.767,4.713
								c-3.551,0.507-8.517,0.92-12.97,1.471c-4.451,0.574-8.417,1.317-9.958,3.105c2.362,0.295,4.998-0.056,7.267,0.236
								c-0.867,0.323-1.871,0.724-2.905,0.915c0.977,0.025,2.06,0.171,2.974-0.031c-0.756,0.189-1.534,0.404-1.836,0.781
								c1.181,0.13,2.863-0.398,3.787-0.633c0.547-0.134,3.019-1.047,3.725-0.929c-1.818,0.771-4.154,1.454-5.69,2.292
								c0.645,0.032,1.285-0.008,1.913,0.069c-0.778,0.34-2.303,0.461-2.711,0.897c1.618-0.02,3.047-0.264,4.717-0.27
								c1.354-0.003,2.579,0.03,3.865-0.232c-1.533,0.414-3.612,0.688-4.686,1.325c0.722,0.139,1.483,0.043,2.225-0.049
								c-0.088,0.065-0.141,0.137-0.158,0.212c0.33-0.018,0.769,0.062,1.112,0.025c0.012,0.104,0.091,0.201,0.027,0.311l0.012-0.224
								"/>
							<line fill="#36A9E1" x1="200.55" y1="339.835" x2="200.55" y2="339.835"/>
							<path fill="#36A9E1" d="M198.146,332.686c1.539-0.069,3.717-0.2,5.133-0.08"/>
							<path fill="none" stroke="#36A9E1" stroke-width="0" d="M284.82,302.104c-0.021-0.02,4.254-3.057,10.209-8.78
								c5.947-5.701,13.438-14.297,19.579-24.732c6.2-10.378,10.913-22.54,12.952-33.7c2.111-11.16,1.66-21.148-0.453-27.236"/>
						</g>
						<path fill="none" stroke="#36A9E1" stroke-width="0" d="M313.01,276.495c-0.049-0.005,5.053-6.474,9.681-16.872
							c2.312-5.179,4.453-11.322,5.832-17.821c1.39-6.493,2.01-13.327,1.598-19.715"/>
					</g>
				</g>
			</g>
		</g>
	</g>
</g>
<g opacity="0.62">
	<g>
		<g>
			<g>
				<g opacity="0.7">
					<g>
						<g>
							<line fill="none" stroke="#36A9E1" stroke-width="0" x1="72.398" y1="41.991" x2="72.398" y2="41.991"/>
							<line fill="none" stroke="#36A9E1" stroke-width="0" x1="69.509" y1="43.792" x2="69.509" y2="43.792"/>
							<path fill="#36A9E1" d="M37.783,103.273c0.624-1.479,1.034-3.062,1.383-4.57c0.744-3.235,3.207-5.169,4.025-8.268
								c1.06-3.924,3.992-6.839,5.646-10.634c3.044-6.982,6.685-14.227,12.131-19.844c5.11-5.273,10.188-10.051,15.592-14.306
								c5.398-4.247,11.124-7.974,17.449-10.907c7.349-3.428,15.634-6.96,23.281-10.183c2.797-1.192,7.171-2.603,11.46-3.881
								c4.287-1.3,8.488-2.472,10.896-3.799c-6.765,1.955-13.98,3.429-20.728,5.248c7.063-2.871,14.566-5.074,22.162-6.739
								c7.603-1.666,15.295-2.787,22.875-3.642c-28.429,2.527-55.699,10.256-80.954,21.769c6.781-4.185,14.419-8.009,22.535-11.201
								c8.115-3.201,16.694-5.774,25.343-7.71c8.652-1.944,17.368-3.254,25.848-4.162c8.485-0.916,16.734-1.432,24.587-1.961
								c2.379-0.162,5.06-0.398,7.128-0.7c-7.961,0.53-16.194,0.908-24.646,1.548c-8.447,0.637-17.115,1.546-25.801,3.015
								c-8.681,1.462-17.375,3.494-25.732,6.189c-8.354,2.688-16.366,6.036-23.622,9.914c-13.313,7.085-25.736,16.758-35.468,29.074
								c-2.794,3.216-5.407,6.629-7.826,10.161c-4.973,7.242-9.206,15.104-12.305,23.318c-1.393,3.635-3.175,8.765-4.041,13.509
								c-0.889,4.74-0.887,9.036,0.632,10.854c0.668-2.328,0.898-5.042,1.789-7.217c0.09,0.943,0.217,2.023,0.184,3.085
								c0.232-0.96,0.648-1.978,0.688-2.923c-0.02,0.787,0.009,1.6,0.299,1.98c0.403-1.111,0.332-2.871,0.384-3.833
								c0.02-0.56-0.08-3.242,0.302-3.882c0.092,2.009,0.044,4.456,0.47,6.143c0.207-0.604,0.323-1.23,0.584-1.799
								c0.102,0.833-0.183,2.308,0.15,2.805c0.376-1.531,0.531-2.942,1.042-4.499c0.412-1.262,0.849-2.373,1.071-3.64
								c-0.182,1.543-0.572,3.556-0.281,4.735c0.35-0.62,0.485-1.344,0.637-2.049c0.032,0.102,0.083,0.172,0.148,0.213
								c0.091-0.305,0.31-0.674,0.389-0.996c0.102,0.025,0.218-0.013,0.301,0.082l-0.206-0.088"/>
							<line fill="#36A9E1" x1="37.783" y1="103.273" x2="37.783" y2="103.273"/>
							<path fill="#36A9E1" d="M30.238,103.169c0.447-1.573,1.139-3.793,1.847-5.127"/>
							<path fill="none" stroke="#36A9E1" stroke-width="0" d="M90.637,28.441c0.01,0.026,4.646-2.725,12.286-6.244
								c7.631-3.525,18.361-7.605,30.231-10.437c11.856-2.904,24.783-4.489,36.406-5.054c11.63-0.633,21.949-0.355,28.903-1.323"/>
						</g>
						<path fill="none" stroke="#36A9E1" stroke-width="0" d="M126.705,16.462c0.014,0.041,7.588-2.087,18.371-4.106
							c5.395-1.015,11.601-1.974,18.09-2.776c6.49-0.812,13.262-1.466,19.813-2.144"/>
					</g>
				</g>
			</g>
		</g>
	</g>
</g>
<g opacity="0.62">
	<g>
		<g>
			<g>
				<g opacity="0.8">
					<path fill="#36A9E1" d="M124.374,202.44c1.123,2.258,3.388,5.637,6.835,9.121c3.435,3.48,8.076,7.008,13.386,9.7
						c5.292,2.725,11.216,4.565,16.754,5.462c5.544,0.922,10.673,0.914,14.525,0.662c5.935-0.525,10.377-1.713,13.666-2.688
						c1.385-0.43,0.501-0.064-1.982,0.673c-2.483,0.715-6.622,1.692-11.684,2.015c-4.502,0.378-9.885,0.365-16.031-0.77
						c7.555,2.054,15.345,2.306,20.903,1.814c4.01-0.74,7.995-1.884,11.895-3.454c8.576-3.467,16.189-8.906,22.283-15.684
						c6.105-6.78,10.654-14.934,13.345-23.803c1.007-3.205,2.122-8.479,2.392-13.821c0.336-5.34-0.179-10.671-0.62-13.934
						c2.468,13.541,0.241,27.833-6.187,39.931c-6.375,12.135-16.935,21.924-29.39,27.453l2.051-0.82
						c6.483-3.088,12.446-7.304,17.53-12.445c5.089-5.135,9.268-11.201,12.289-17.821c0.987-2.265,1.885-4.598,2.71-7.039
						c-0.764,2.4-1.673,4.75-2.71,7.039c-2.607,5.903-5.802,11.417-10.461,16.743c-2.929,3.245-6.842,6.361-10.391,8.841
						c-2.911,2.021-5.893,3.397-8.968,4.682c-1.938,0.918-3.923,1.733-5.942,2.441c-0.575,0.246-1.193,0.506-1.843,0.729
						c0.024-0.002,0.069-0.008,0.087-0.006c1.369-0.069,5.732-1.059,11.239-3.701c5.491-2.616,12.032-7.019,17.482-12.858
						c5.502-5.778,9.78-12.877,12.258-19.159c2.531-6.28,3.439-11.614,3.672-13.959c0.4-3.757,0.212-7.391-0.284-11.041
						c-0.499-3.655-1.28-7.331-2.235-11.316c-0.646-2.655-0.985-4.981-1.944-6.881c-0.244-0.136-0.734-1.073-1.247-1.998
						c-2.006-4.999-4.107-10.142-6.995-13.248c-0.925-1.129-1.987-3.773-3.138-6.136c-1.128-2.366-2.323-4.424-2.753-4.448
						c-1.597-0.061-1.79-0.062-2.247-0.672c-0.457-0.601-1.119-1.873-3.856-4.151c-0.655-0.579-3.407-1.518-4.784-2.499
						c-2.276-1.776-3.958-2.638-5.774-3.406c-1.828-0.751-3.796-1.434-6.903-2.467c-4.676-1.338-7.502-2.135-10.26-2.769
						c-2.75-0.59-5.47-1.008-9.785-0.501c-0.521,0.05-4.134,0.193-7.542,0.754c-3.417,0.514-6.604,1.384-6.602,1.386
						c-5.072,0.919-8.979,2.493-12.503,4.073c-3.532,1.604-6.707,3.209-10.483,4.843c-3.501,3.141-7.656,6.545-11.464,10.534
						c-3.802,3.964-7.226,8.506-9.354,13.027c-2.128,4.509-3.462,7.773-4.753,10.939c-1.261,3.174-2.451,6.275-3.396,10.684
						c-0.413,2.537-0.375,4.464-0.684,5.958c-0.332,1.518,0.591,5.13,0.752,7.668l-0.644-0.577c0.035,0.866,0.142,2.586,0.239,3.448
						c0.083,0.863-0.14,0.68-0.365,0.496c-0.447-0.368-0.901-0.751-0.944,0.825c0.293,3.696,0.99,7.469,2.116,11.222
						c1.563,3.549,3.438,6.88,5.563,9.934c0.333,0.06,0.691,0.144,1.135,0.481c0.667,0.874,1.36,1.721,2.067,2.546
						c0.838,0.227,1.244-0.302,1.799-0.159c0.683-0.453,1.963,0.002,3.148,0.303c1.191,0.302,2.273,0.469,2.579-0.377
						c0.063-0.291-0.726-1.585-1.537-3.165c-0.816-1.577-1.646-3.439-1.88-4.721c-0.061-0.617,1.039,0.306,1.818,0.496
						c-1.539-2.779-0.988-3.236,0.047-2.335c-0.296-0.67-0.575-1.342-0.57-1.344l1.012,0.302c-1.43-3.608-2.347-7.598-2.966-11.524
						c-0.625-3.938-0.934-7.815-1.388-11.472c-0.151-1.566-0.506-4.213-0.625-6.014c-0.08-0.901,0.5-2.804,0.67-3.49
						c-0.332-1.312-0.964-1.247-1.44-1.884c0.773-2.748,2.316-6.929,3.778-10.291c1.427-3.375,2.669-6.028,1.663-6.385
						c1.151-1.99,1.724-3.255,2.311-4.565c0.598-1.3,1.212-2.651,2.721-4.565c1.983-2.543,4.493-5.243,7.449-7.758
						c2.95-2.522,6.339-4.857,9.924-6.766c3.879-2.175,7.928-3.676,12.11-4.741c1.559-0.407,3.09-0.739,4.56-0.993
						c7.969-1.389,15.685-0.901,22.717,0.871c7.045,1.781,13.433,4.843,19.062,8.854c5.622,4.028,10.502,9.011,14.551,14.869
						c4.037,5.856,7.242,12.591,9.192,20.264c1.977,7.73,2.163,16.092,0.523,24.1c-1.627,8.014-5.088,15.651-9.931,22.075
						c-4.824,6.444-10.998,11.661-17.661,15.348c-6.666,3.702-13.82,5.845-20.687,6.609c-6.878,0.77-13.451,0.194-19.249-1.206
						c-5.809-1.405-10.842-3.615-14.981-6.041c-8.314-4.906-12.98-10.462-15.381-13.339
						C126.586,204.496,125.465,203.492,124.374,202.44z"/>
				</g>
			</g>
		</g>
	</g>
</g>
<g opacity="0.62">
	<g>
		<g>
			<g>
				<g opacity="0.7">
					<g>
						<g>
							<line fill="none" stroke="#36A9E1" stroke-width="0" x1="84.677" y1="237.228" x2="84.677" y2="237.228"/>
							<line fill="none" stroke="#36A9E1" stroke-width="0" x1="91.087" y1="245.376" x2="91.087" y2="245.376"/>
							<path fill="#36A9E1" d="M264.198,209.725c-2.019,4.455-4.183,8.942-6.438,13.064c-2.405,4.393-5.314,8.006-8.372,11.377
								c-3.069,3.376-6.294,6.512-9.637,10.036c-4.204,4.423-9.094,8.082-14.29,11.266c-5.207,3.189-10.719,5.904-16.449,8.563
								c-10.52,4.883-22.13,8.098-34.064,9.049c-11.921,0.972-24.138-0.297-35.465-3.984c-21.356-6.921-39.283-20.141-51.801-36.935
								c-12.544-16.775-19.623-37.296-19.587-58.34c-0.022-12.223,2.105-25.179,6.661-37.369
								c4.509-12.205,11.4-23.578,19.659-33.057c3.011-3.477,7.111-7.581,12.045-11.537c4.922-3.967,10.673-7.767,16.682-10.906
								c6.001-3.157,12.239-5.653,17.953-7.48c5.713-1.843,10.891-3.038,14.784-3.963c-10.542,1.671-21.092,4.818-30.938,9.488
								c-9.851,4.647-18.974,10.803-26.742,17.961c8.195-8.191,17.929-15.036,28.605-20.017c10.671-4.994,22.275-8.104,34.071-9.155
								c11.801-1.06,23.771-0.118,35.177,2.773c11.415,2.879,22.261,7.692,31.984,14.021c-9.067-5.994-19.026-10.577-29.422-13.538
								c-10.396-2.967-21.22-4.301-31.989-4.017c-10.766,0.277-21.453,2.196-31.589,5.672c-10.138,3.474-19.716,8.5-28.33,14.815
								c-17.26,12.608-30.521,30.425-37.691,50.387c-7.221,19.956-8.402,41.911-3.723,62.411c-3.231-11.842-4.464-24.655-3.35-37.56
								c1.093-12.902,4.596-25.891,10.494-37.904c5.876-12.02,14.124-23.048,24.173-32.185
								c10.037-9.149,21.866-16.395,34.586-21.146c12.716-4.773,26.297-7.025,39.7-6.768c13.406,0.23,26.613,2.974,38.72,7.879
								c12.12,4.892,23.129,11.903,32.495,20.301c9.377,8.397,17.121,18.162,23.063,28.533c3.642,6.269,6.983,13.696,9.156,19.497
								c-3.977-11.381-9.787-22.438-17.397-32.449c-7.602-10.009-17.001-18.965-27.833-26.14
								c-10.821-7.178-23.076-12.553-36.043-15.541c-12.959-2.999-26.61-3.622-39.987-1.746
								c-13.376,1.872-26.458,6.315-38.253,13.035c-11.804,6.704-22.312,15.656-30.782,26.14
								c-8.485,10.475-14.912,22.479-18.917,35.049c-4.026,12.573-5.611,25.68-5.004,38.344c0.555,11.635,3.004,23.264,7.315,34.253
								c4.302,10.99,10.448,21.334,18.155,30.455c7.698,9.127,16.955,17.033,27.321,23.23c10.357,6.207,21.832,10.683,33.777,13.113
								c12.942,2.835,26.477,3.279,39.66,1.339c13.532-1.98,26.756-6.548,38.663-13.402c11.913-6.844,22.507-15.945,31.013-26.622
								c3.789-4.725,7.908-10.72,11.431-17.447c3.538-6.715,6.444-14.155,8.306-21.367c1.883-7.21,2.734-14.16,2.792-19.808
								c0.069-5.656-0.61-9.998-1.545-12.212c-0.1,7.461-0.545,15.792-2.339,22.791c0.239-2.734,0.372-5.867,0.543-9.059
								c-0.366,3.02-1.071,6.313-1.46,9.126c0.306-2.336,0.478-4.733,0.241-5.678c-0.642,3.565-1.252,8.7-1.828,11.536
								c-0.154,0.83-0.559,3.169-1.126,5.55c-0.561,2.381-1.292,4.795-1.78,5.803c1.535-5.633,2.921-12.801,3.011-17.506
								c-0.444,1.907-0.858,3.809-1.444,5.623c0.337-2.354,1.198-6.866,0.956-8.124c-0.878,4.744-1.728,8.959-3.343,13.713
								c-1.331,3.847-2.762,7.213-4.227,10.828c0.836-2.178,1.776-4.738,2.512-7.171c0.741-2.432,1.278-4.732,1.453-6.342
								c-0.778,1.983-1.424,4.127-2.146,6.199c0.038-0.27,0.029-0.442-0.021-0.52c-0.339,0.91-0.891,2.07-1.258,3.009
								c-0.106-0.015-0.283,0.152-0.308-0.069c0.059,0.053,0.123,0.092,0.185,0.137"/>
							<line fill="#36A9E1" x1="264.198" y1="209.725" x2="264.198" y2="209.725"/>
							<path fill="#36A9E1" d="M273.429,205.844c-0.817,2.403-1.903,5.279-3.132,8.035c-1.219,2.76-2.579,5.396-3.766,7.392"/>
							<path fill="none" stroke="#36A9E1" stroke-width="0" d="M60.908,172.409c0.035,0.004-0.178-4.152,0.466-11.516
								c0.685-7.331,2.379-17.955,7.157-30.032c4.731-12.036,12.692-25.478,24.627-37.265c5.944-5.888,12.837-11.346,20.542-15.974
								c7.701-4.627,16.209-8.425,25.225-11.064c18.019-5.33,38.042-5.856,56.669-1.287c9.314,2.264,18.267,5.76,26.497,10.248
								c8.238,4.479,15.75,9.942,22.34,16.011c13.231,12.143,22.572,26.687,28.358,40.519c5.855,13.867,8.277,26.937,9.526,37.136"
								/>
						</g>
						<path fill="none" stroke="#36A9E1" stroke-width="0" d="M118.925,77.966c0.002,0.004,1.321-0.723,3.821-1.943
							c2.503-1.209,6.199-2.898,11.007-4.609c4.804-1.709,10.729-3.431,17.599-4.625c6.862-1.199,14.672-1.854,23.068-1.521
							c8.389,0.332,17.357,1.671,26.37,4.336c9.014,2.646,18.057,6.62,26.557,11.864c8.503,5.235,16.449,11.74,23.383,19.178
							c6.944,7.431,12.869,15.787,17.567,24.551"/>
					</g>
				</g>
			</g>
		</g>
	</g>
</g>
<g opacity="0.62">
	<g>
		<path fill="none" d="M188.34,133.572c-19.669-10.611-44.217-3.268-54.829,16.401c-10.611,19.67-3.268,44.217,16.402,54.829
			c19.669,10.611,44.216,3.268,54.828-16.402C215.353,168.731,208.01,144.183,188.34,133.572z M180.245,177.204
			c-4.429,6.14-12.995,7.527-19.135,3.1c-6.14-4.427-7.528-12.994-3.1-19.133c4.428-6.14,12.994-7.528,19.134-3.101
			C183.284,162.498,184.671,171.063,180.245,177.204z"/>
		<g>
			<g>
				<g opacity="0.7">
					<g>
						<g>
							<path fill="#36A9E1" d="M174.658,178.348c-0.506,0.134-0.866,0.526-1.253,0.89c-0.394,0.438-0.979,0.309-1.486,0.208
								c-0.53-0.152-0.99-0.264-1.439,0.042c-0.572,0.424-1.235,0.284-1.836,0.086c-0.302-0.123-0.598-0.229-0.894-0.314
								c-0.293-0.106-0.591-0.152-0.924-0.098c-1.206,0.133-2.566,0.095-3.843-0.361c-1.264-0.448-2.45-1.303-3.002-2.552
								c-1.047-2.309-1.474-4.591-1.157-6.72c0.134-1.057,0.5-2.058,1.039-2.92c0.525-0.866,1.251-1.594,2.153-2.068
								c2.095-1.156,3.936-1.52,5.574-2.093c0.615-0.23,1.615-0.159,2.527-0.035c0.923,0.121,1.81,0.206,2.744-0.194
								c-0.867-0.159-1.617-0.394-2.421-0.692c-0.797-0.291-1.665-0.643-2.61-0.843c1.943-0.494,4.075-0.175,5.998,0.717
								c1.962,0.913,3.646,2.369,5.161,4.32c-1.265-1.898-2.766-3.311-4.466-4.417c-0.835-0.581-1.743-0.999-2.675-1.395
								c-0.936-0.396-1.938-0.691-3-0.87c-2.126-0.401-4.503-0.353-7.059,0.354c-1.255,0.385-2.546,0.933-3.842,1.685
								c-1.25,0.781-2.531,1.739-3.697,2.953c1.753-3.184,4.779-5.662,8.111-6.773c3.341-1.136,6.881-0.923,9.815,0.204
								c2.951,1.133,5.373,3.071,7.231,5.436c1.854,2.391,3.234,5.236,4.112,8.664c0.128,0.52,0.292,1.097,0.407,1.675
								c0.141,0.584,0.287,1.18,0.402,1.717c-0.433-4.001-1.515-7.267-3.07-10.08c-1.554-2.798-3.619-5.189-6.37-6.98
								c-2.722-1.777-6.231-2.824-9.933-2.48c-3.671,0.311-7.486,2.114-10.088,5.081c-1.2,1.347-2.226,2.94-2.944,4.718
								c-0.696,1.78-1.095,3.724-1.133,5.715c-0.123,3.986,1.425,8.136,4.251,11.23c1.409,1.798,3.203,3.296,5.227,4.432
								c4.148,2.37,9.402,2.949,13.903,1.405c0.491-0.188,1.029-0.393,1.599-0.611c0.552-0.258,1.125-0.551,1.697-0.863
								c0.552-0.355,1.11-0.728,1.629-1.139c0.499-0.444,0.988-0.888,1.399-1.377c0.398-0.507,0.76-1.009,1.03-1.53
								c0.255-0.536,0.443-1.064,0.547-1.57c0.174-1.044-0.008-2.007-0.577-2.799c-0.382,0.372-0.655,0.86-0.965,1.327
								c-0.34,0.437-0.684,0.885-1.148,1.133c0.063-0.509,0.055-1.126,0.186-1.586c-0.28,0.298-0.661,0.545-0.805,0.952
								c0.113-0.349,0.15-0.764-0.035-1.11c-0.37,0.276-0.519,1.098-0.676,1.533c-0.049,0.265-0.433,1.593-0.791,1.654
								c0.143-0.537,0.321-1.063,0.426-1.603c0.093-0.555,0.135-1.093,0.063-1.596c-0.202,0.132-0.35,0.327-0.579,0.414
								c0.004-0.454,0.342-0.891,0.121-1.323c-0.378,0.393-0.581,0.934-1.078,1.25c-0.404,0.253-0.771,0.453-1.082,0.835
								c0.332-0.532,0.757-1.188,0.673-1.864c-0.277,0.008-0.421,0.21-0.574,0.407c-0.011-0.069-0.036-0.136-0.072-0.202
								c-0.08,0.066-0.239,0.066-0.312,0.149c-0.057-0.087-0.127-0.158-0.167-0.262l0.112,0.194"/>
							<path fill="#36A9E1" d="M179.347,183.869c-0.631,0.533-1.64,1.153-2.396,1.315"/>
							<path fill="none" stroke="#36A9E1" stroke-width="0" d="M156.185,160.427c0,0,0.097-0.114,0.281-0.33
								c0.201-0.199,0.497-0.492,0.875-0.867c0.359-0.387,0.897-0.764,1.454-1.24c0.613-0.417,1.283-0.908,2.095-1.32
								c1.594-0.858,3.614-1.574,5.875-1.833c2.258-0.228,4.747-0.007,7.118,0.841c2.36,0.863,4.616,2.262,6.417,4.161
								c1.844,1.864,3.202,4.184,4.125,6.627c0.921,2.451,1.331,5.042,1.467,7.555c0.138,2.52-0.045,4.941-0.085,7.192"/>
						</g>
						<path fill="none" stroke="#36A9E1" stroke-width="0" d="M170.521,157.795c0,0,0.162,0.045,0.456,0.133
							c0.295,0.085,0.728,0.184,1.249,0.382c1.051,0.355,2.487,0.953,4.035,1.976c3.107,1.974,6.631,5.837,8.357,12.156"/>
					</g>
				</g>
			</g>
		</g>
		<g>
			<g>
				<g opacity="0.7">
					<g>
						<g>
							<path fill="#36A9E1" d="M173.104,125.892c-2.048-0.197-4.164-0.241-6.106,0.153c-2.074,0.254-3.967,0.35-5.917,0.371
								c-0.968,0.034-1.918,0.189-2.887,0.352c-0.482,0.089-0.966,0.196-1.448,0.328c-0.479,0.14-0.941,0.365-1.409,0.592
								c-2.35,1.106-4.708,2.013-7.09,3.055c-1.154,0.583-2.355,1.124-3.485,1.808c-1.096,0.734-2.185,1.516-3.197,2.409
								c-3.604,3.443-6.525,7.556-8.822,11.888c-2.283,4.347-4.082,8.896-5.313,13.613c-1.187,4.439-1.598,9.003-1.325,13.487
								c0.279,4.493,1.386,8.856,2.979,13.015c1.577,4.18,3.878,8.075,6.659,11.655c1.334,1.851,2.96,3.458,4.544,5.156
								c1.721,1.535,3.424,3.167,5.373,4.521c4.414,3.3,9.948,5.945,15.954,7.193c5.991,1.276,12.375,1.141,18.152-0.31
								c1.048-0.299,2.262-0.525,3.521-0.955c1.254-0.443,2.628-0.865,4.019-1.419c1.36-0.625,2.815-1.217,4.221-1.962
								c0.69-0.398,1.387-0.8,2.084-1.203c0.69-0.416,1.409-0.792,2.046-1.29c5.344-3.63,9.55-8.537,10.906-12.059
								c-2.58,4.197-6.303,7.834-10.491,10.611c-4.196,2.781-8.854,4.755-13.496,5.805c9.918-3.194,18.81-10.064,24.324-18.998
								c5.608-8.869,7.508-19.805,5.639-29.474c0.77,4.546,0.782,9.263,0.021,13.887c-0.779,4.629-2.479,9.078-4.735,13.178
								l-1.826,3.006l-2.129,2.8l-0.538,0.694l-0.598,0.643l-1.208,1.274l-1.214,1.264l-1.326,1.143l-1.335,1.127l-0.669,0.559
								l-0.715,0.499l-2.879,1.947l-3.048,1.637l-0.764,0.397l-0.796,0.33l-1.591,0.649c-4.261,1.635-8.721,2.661-13.17,2.771
								c-4.441,0.129-8.81-0.462-12.892-1.678c-4.063-1.328-7.79-3.257-11.067-5.611c-3.201-2.486-5.983-5.285-8.115-8.419
								c5.665,6.583,14.417,11.862,24.563,13.185c5.048,0.666,10.378,0.34,15.521-1.065c5.142-1.396,10.088-3.874,14.344-7.281
								c8.563-6.776,14.079-17.34,14.682-27.878c0.332-5.254-0.475-10.435-2.194-15.052c-1.713-4.625-4.332-8.678-7.438-11.868
								c-0.481-0.469-0.976-0.951-1.474-1.437c-0.493-0.48-1.094-0.868-1.629-1.282c-0.548-0.403-1.087-0.787-1.604-1.142
								c-0.53-0.342-1.093-0.601-1.588-0.856c3.656,2.207,7.049,5.382,9.694,9.331c2.663,3.937,4.528,8.649,5.335,13.672
								c0.819,5.02,0.568,10.35-0.811,15.444c-1.37,5.098-3.85,9.938-7.178,14.082c-3.326,4.148-7.525,7.566-12.156,9.977
								c-4.63,2.42-9.678,3.842-14.674,4.257c-10.034,0.851-19.643-2.367-26.48-7.779c-3.157-2.46-5.921-5.33-8.166-8.537
								c-2.188-3.25-3.871-6.779-5.016-10.451c-0.241-0.934-0.589-1.831-0.759-2.778l-0.556-2.819l-0.298-2.852
								c-0.075-0.472-0.067-0.951-0.071-1.428l-0.024-1.429c0.008-3.808,0.558-7.593,1.613-11.259
								c1.404-3.902,3.451-7.583,5.994-10.807c5.215-6.635,12.782-11.278,21.031-13.169c0.925-0.169,1.94-0.355,3.014-0.553
								c1.09-0.103,2.24-0.211,3.418-0.323c1.188-0.011,2.405-0.022,3.619-0.033c1.207,0.11,2.435,0.115,3.622,0.22
								c1.172,0.169,2.346,0.243,3.451,0.364c1.087,0.183,2.138,0.308,3.126,0.363c1.922,0.237,3.573,0.274,4.754-0.227
								c-1.194-0.627-2.506-1.193-3.813-1.701c-1.355-0.392-2.656-0.865-3.86-1.35c1.038-0.073,2.229-0.03,3.439,0.133
								c-1.075-0.343-2.204-0.954-3.285-1.005c0.902,0.007,1.8,0.15,2.255-0.117c-1.261-0.632-3.332-0.519-4.413-0.552
								c-0.643-0.113-3.611,0.406-4.372,0.141c1.074-0.195,2.324-0.412,3.541-0.546c1.206-0.079,2.4-0.181,3.396-0.38
								c-0.736-0.21-1.486-0.339-2.19-0.597c0.966-0.093,2.789,0.157,3.367-0.078c-0.931-0.289-1.859-0.381-2.766-0.554
								c-0.913-0.154-1.821-0.349-2.819-0.463c-1.606-0.239-3.052-0.573-4.622-0.375c0.472-0.056,0.981-0.115,1.501-0.177
								c0.522-0.036,1.053-0.022,1.574-0.045c1.039-0.035,2.025-0.111,2.736-0.323c-0.846-0.273-1.787-0.322-2.694-0.375
								c0.117-0.047,0.191-0.106,0.224-0.178c-0.402-0.048-0.922-0.214-1.342-0.247c0-0.105-0.083-0.216,0.008-0.313l-0.045,0.219"
								/>
							<path fill="#36A9E1" d="M174.784,133.393c-0.413-0.049-0.869-0.103-1.344-0.16c-0.474-0.063-0.966-0.14-1.461-0.141
								c-0.986-0.045-1.952-0.126-2.713-0.267"/>
							<path fill="none" stroke="#36A9E1" stroke-width="0" d="M149.852,202.5c0,0,0.306,0.208,0.884,0.604
								c0.607,0.345,1.52,0.819,2.688,1.449c0.294,0.155,0.604,0.318,0.929,0.49c0.34,0.138,0.696,0.283,1.068,0.434
								c0.748,0.303,1.559,0.632,2.428,0.985c1.798,0.522,3.835,1.206,6.174,1.535c4.637,0.784,10.37,0.784,16.363-0.819
								c5.937-1.678,12.103-4.963,17.028-9.951c4.879-4.991,8.631-11.486,10.079-18.435c0.847-3.439,0.992-6.981,0.816-10.383
								c-0.085-0.849-0.171-1.694-0.255-2.535c-0.064-0.84-0.311-1.654-0.457-2.47c-0.271-1.64-0.837-3.189-1.324-4.711
								c-2.161-6.058-5.942-10.871-9.869-14.021c-3.956-3.184-8.095-4.659-11.321-5.066"/>
						</g>
						<path fill="none" stroke="#36A9E1" stroke-width="0" d="M192.268,205.062c0,0,0.145-0.059,0.389-0.229
							c0.246-0.167,0.61-0.413,1.083-0.732c0.471-0.325,1.05-0.724,1.728-1.19c0.694-0.448,1.365-1.119,2.176-1.788
							c3.17-2.722,7.244-7.27,10.043-13.598c1.494-3.109,2.42-6.723,3.036-10.471c0.462-3.787,0.434-7.756-0.247-11.65
							c-0.771-3.878-2.06-7.663-3.961-11.039c-0.459-0.848-1.034-1.636-1.545-2.435l-0.794-1.176l-0.908-1.09
							c-0.619-0.709-1.173-1.442-1.836-2.082c-0.67-0.619-1.337-1.234-2-1.846"/>
					</g>
				</g>
			</g>
		</g>
	</g>
</g>
<g opacity="0.62">
	<g>
		<g>
			<path opacity="0.1184" fill="#36A9E1" d="M170.405,177.091c-0.073,0.54-0.146,1.08-0.219,1.621c0.446-0.62,0.89-1.24,1.336-1.86
				c-0.634,0.789-1.27,1.577-1.905,2.364c1.73-1.743,3.459-3.485,5.189-5.228c-1.852,1.622-3.704,3.245-5.556,4.867
				c1.502-1.189,3.005-2.378,4.507-3.567c-2.649,1.177-5.3,2.352-7.949,3.528c1.918-0.631,3.838-1.261,5.758-1.891
				c-1.86,0.252-3.72,0.504-5.581,0.757c1.34-0.113,2.68-0.226,4.02-0.338c-1.304-0.159-2.607-0.318-3.912-0.478
				c0.613,0.115,1.227,0.23,1.841,0.346c-3.375-2.291-5.781-5.383-7.218-9.279c0.816,1.596,1.633,3.19,2.45,4.785
				c-0.556-2.3-1.111-4.601-1.668-6.902c0.358,1.85,0.717,3.701,1.076,5.553c0.08-1.896,0.162-3.792,0.244-5.688
				c-0.108,1.186-0.215,2.374-0.323,3.56c0.396-1.143,0.792-2.285,1.188-3.428c-0.229,0.559-0.459,1.118-0.688,1.678
				c3.151-2.378,6.303-4.756,9.455-7.134c-2.13,1.196-4.26,2.392-6.391,3.589c2.905-0.897,5.809-1.792,8.714-2.689
				c-2.506,0.6-5.012,1.199-7.518,1.798c2.688-0.057,5.375-0.114,8.062-0.17c-1.936-0.063-3.874-0.123-5.81-0.184
				c1.83,0.457,3.659,0.914,5.489,1.37c-1.202-0.386-2.403-0.771-3.606-1.157c1.571,0.879,3.142,1.758,4.714,2.636
				c-1.092-0.687-2.183-1.375-3.273-2.061c0.806,0.781,1.613,1.561,2.418,2.343c-0.469-0.524-0.938-1.048-1.409-1.572
				c1.452,3.257,2.902,6.512,4.354,9.769c0.051,0.115,0.436,1.252,0.644,0.527c0.778-1.455,1.222-3.005,1.333-4.653
				c0-1.832-0.406-3.567-1.214-5.208c-0.802-1.592-1.921-2.915-3.359-3.97c-1.154-1.073-3.716-1.285-5.128-1.528
				c-2.772-0.478-5.735,1.333-7.929,2.711c-2.404,1.511-3.145,4.441-3.794,6.966c-0.156,1.906,0.06,3.767,0.646,5.583
				c0.508,1.575,1.319,2.973,2.435,4.193c0.952,1.284,4.339,2.675,6.056,2.029c0.822-0.159,1.547-0.501,2.176-1.023
				c1.478-1.255,2.83-2.705,4.165-4.106c0.562-0.515,1.045-1.092,1.449-1.731c0.746-2.071,0.613-1.626,0.705-3.863
				c0.017-0.379-2.395,2.357-1.892,1.759c-0.95,1.136-1.877,2.291-2.784,3.462C171.186,175.758,170.754,176.397,170.405,177.091z"/>
			<path opacity="0.1184" fill="#36A9E1" d="M169.601,181.506c-0.088,0.549-0.178,1.101-0.267,1.65
				c0.608-0.9,1.215-1.799,1.823-2.699c-0.739,0.89-1.478,1.78-2.217,2.67c2.172-2.196,4.343-4.395,6.517-6.592
				c-2.666,2.383-5.33,4.766-7.995,7.149c2.282-1.884,4.565-3.766,6.847-5.648c-2.396,1.547-4.793,3.095-7.189,4.642
				c2.152-1.284,4.303-2.57,6.456-3.854c-3.82,1.024-7.642,2.048-11.463,3.074c2.561-0.375,5.12-0.75,7.679-1.125
				c-3.146-2.58-6.293-5.162-9.44-7.743c0.122,0.401,0.245,0.801,0.367,1.203c-0.175-1.468-0.349-2.936-0.523-4.403
				c0.015,0.829,0.029,1.66,0.044,2.49c3.197-2.626,6.395-5.25,9.59-7.875c-0.951,0.319-1.902,0.639-2.853,0.959
				c1.032-0.103,2.066-0.205,3.099-0.306c-0.583,0.009-1.166,0.019-1.75,0.03c1.75,0.204,3.5,0.407,5.25,0.61
				c-1.151-0.216-2.304-0.433-3.456-0.649c1.056,0.451,2.112,0.901,3.168,1.352c-0.573-0.284-1.146-0.567-1.718-0.851
				c2.374,3.428,4.748,6.856,7.121,10.284c-1.398-2.465-2.794-4.932-4.192-7.398c0.868,2.692,1.736,5.386,2.604,8.078
				c-0.248-0.77,0.937,2.894,1.111,2.548c0.422-0.833,0.843-1.667,1.265-2.501c0.663-1.86,0.764-3.758,0.307-5.69
				c-0.163-1.964-1.446-3.563-2.487-5.101c-0.536-0.793-1.38-1.538-2.245-1.909c-1.64-0.967-3.411-1.481-5.308-1.541
				c-2.103,0.061-4.096,0.552-5.982,1.477c-4.416,1.625-6.981,7.134-5.707,11.588c0.753,2.628,1.683,4.644,3.182,6.93
				c1.073,0.979,2.296,1.698,3.671,2.159c1.135,0.033,2.263-0.065,3.387-0.293c0.828-0.082,2.081-1.586,2.472-1.97
				c1.297-1.273,2.573-2.564,3.831-3.877c0.695-0.65,1.313-1.366,1.854-2.146c0.82-2.269,0.729-1.891,0.878-4.326
				c-0.443,0.126-0.794,0.396-1.052,0.812c-1.07,1.223-2.109,2.47-3.121,3.744c-1.027,1.258-2.023,2.542-2.991,3.847
				C169.818,180.645,169.629,181.045,169.601,181.506z"/>
			<path opacity="0.1184" fill="#36A9E1" d="M169.944,175.398c-0.061,0.545-0.122,1.089-0.183,1.635
				c0.186-0.376,0.373-0.753,0.559-1.13c-0.307,0.406-0.613,0.81-0.92,1.215c2.411-2.361,4.821-4.723,7.232-7.083
				c-5.028,2.213-10.058,4.427-15.086,6.64c3.655-0.773,7.311-1.547,10.966-2.32c-4.118-0.508-8.236-1.017-12.354-1.525
				c3.062,0.732,6.125,1.464,9.186,2.196c-0.562-0.288-1.123-0.577-1.683-0.865c0.312,0.258,0.625,0.514,0.936,0.771
				c-2.606-4.073-5.214-8.146-7.82-12.22c1.565,3.58,3.129,7.159,4.695,10.738c1.417-4.848,2.834-9.695,4.252-14.544
				c-1.978,3.154-3.956,6.308-5.934,9.462c4.014-2.105,8.028-4.212,12.04-6.317c-3.145,0.583-6.291,1.167-9.437,1.75
				c3.893,1.559,7.787,3.117,11.68,4.676c-2.743-1.89-5.486-3.779-8.231-5.668c2.337,3.35,4.674,6.699,7.01,10.05
				c0.249,0.287,0.363,0.241,0.34-0.138c-0.057-0.63-1.38-4.594-1.642-4.6c0.824,0.885,1.649,1.768,2.472,2.651
				c0.484-1.571,0.511-3.152,0.082-4.742c-0.368-1.554-1.05-2.958-2.048-4.206c-0.994-1.381-2.315-2.293-3.964-2.737
				c-2.497-1.15-5.098-0.291-7.53,0.452c-3.662,1.117-5.146,4.541-6.174,7.83c-0.76,2.431,0.628,5.604,1.565,7.757
				c0.736,1.43,1.846,2.466,3.329,3.107c1.217,0.696,2.509,0.903,3.881,0.619c0.859-0.026,2.177-1.317,2.657-1.698
				c1.417-1.129,2.818-2.279,4.202-3.45c0.757-0.576,1.445-1.222,2.063-1.941c1.324-3.511,1.315-2.488,1.188-5.492
				c-0.426,0.109-0.764,0.364-1.011,0.762c-1.017,1.16-2.004,2.346-2.962,3.556c-0.974,1.196-1.918,2.417-2.832,3.659
				C170.134,174.573,169.958,174.958,169.944,175.398z"/>
			<path opacity="0.1184" fill="#36A9E1" d="M168.837,177.953c-0.072,0.548-0.144,1.096-0.217,1.643
				c0.203-0.396,0.407-0.79,0.61-1.186c-0.318,0.395-0.635,0.788-0.954,1.182c2.279-2.296,4.559-4.593,6.837-6.889
				c-2.778,2.509-5.555,5.019-8.333,7.528c2.741-2.209,5.482-4.419,8.225-6.628c-3.941,2.029-7.881,4.058-11.822,6.089
				c3.091-1.244,6.18-2.489,9.271-3.733c-3.098,0.708-6.194,1.416-9.29,2.125c2.623-0.487,5.246-0.975,7.87-1.46
				c-3.102,0.054-6.202,0.109-9.304,0.165c2.387,0.076,4.776,0.151,7.164,0.227c-2.026-0.484-4.053-0.969-6.079-1.452
				c1.445,0.406,2.89,0.813,4.336,1.218c-2.692-3.016-5.383-6.034-8.074-9.051c1.489,2.162,2.98,4.322,4.469,6.483
				c-1.16-2.89-2.319-5.78-3.479-8.67c0.833,2.523,1.667,5.046,2.5,7.57c-0.243-2.665-0.487-5.328-0.729-7.992
				c0.083,1.942,0.166,3.882,0.25,5.824c0.346-1.804,0.692-3.608,1.039-5.412c-0.304,1.211-0.607,2.422-0.911,3.633
				c0.504-0.992,1.008-1.986,1.512-2.979c-0.339,0.558-0.678,1.117-1.018,1.675c3.38-1.877,6.762-3.754,10.142-5.63
				c-2.499,0.722-4.997,1.443-7.495,2.166c2.648-0.21,5.295-0.421,7.943-0.633c-1.98,0.013-3.961,0.025-5.942,0.038
				c2.447,0.487,4.894,0.975,7.341,1.461c-1.902-0.491-3.804-0.982-5.705-1.475c1.597,0.804,3.196,1.607,4.794,2.411
				c-1.203-0.689-2.406-1.379-3.608-2.067c0.803,0.723,1.605,1.445,2.408,2.168c-0.551-0.55-1.103-1.098-1.655-1.646
				c1.861,3.542,3.722,7.084,5.582,10.625c0.086,0.063,0.172,0.129,0.257,0.192c0.875-1.521,1.359-3.157,1.454-4.905
				c0.436-2.617-1.329-5.268-2.692-7.26c-1.561-2.282-4.386-2.614-6.851-2.969c-2.622-0.378-5.313,1.315-7.386,2.609
				c-1.488,1.048-2.497,2.444-3.025,4.191c-1.23,2.493-0.673,5.173-0.173,7.737c0.305,0.757,0.609,1.514,0.914,2.271
				c0.646,1.495,1.707,2.592,3.179,3.295c1.887,1.348,3.178,0.623,5.398,0.282c0.453-0.077,0.829-0.31,1.128-0.693
				c1.185-1.102,2.345-2.231,3.477-3.387c1.147-1.142,2.269-2.309,3.361-3.503c0.382-0.302,0.61-0.679,0.685-1.132
				c0.491-1.85,0.457-1.708,0.423-3.801c-0.448,0.131-0.803,0.407-1.063,0.826c-1.082,1.242-2.136,2.508-3.158,3.799
				c-1.04,1.277-2.05,2.579-3.029,3.902C169.062,177.083,168.869,177.488,168.837,177.953z"/>
			<path opacity="0.1184" fill="#36A9E1" d="M170.285,175.814c-0.066,0.529-0.133,1.058-0.2,1.586
				c0.381-0.545,0.76-1.091,1.141-1.636c-0.585,0.729-1.172,1.46-1.758,2.189c1.517-1.528,3.034-3.056,4.551-4.584
				c-1.681,1.441-3.359,2.88-5.04,4.32c1.338-1.046,2.677-2.091,4.015-3.138c-2.478,1.013-4.955,2.025-7.433,3.038
				c1.78-0.547,3.559-1.095,5.338-1.642c-1.126,0.098-2.255,0.198-3.383,0.297c0.65-0.012,1.301-0.026,1.952-0.039
				c-1.215-0.179-2.431-0.355-3.646-0.534c0.596,0.129,1.194,0.256,1.791,0.385c-0.828-0.622-1.654-1.243-2.482-1.864
				c-1.052-2.752-2.5-5.306-4.339-7.663c0.9,1.712,1.801,3.423,2.702,5.134c-0.446-1.762-0.893-3.522-1.338-5.283
				c0.267,1.354,0.536,2.706,0.803,4.06c0.017-2.001,0.035-4.004,0.051-6.007c-0.081,1.294-0.159,2.588-0.24,3.882
				c0.358-1.197,0.716-2.395,1.074-3.592c-0.229,0.612-0.456,1.225-0.684,1.836c3.878-2.22,7.756-4.44,11.633-6.66
				c-2.496,0.642-4.991,1.285-7.487,1.927c2.081-0.051,4.162-0.101,6.242-0.152c-1.259-0.043-2.519-0.084-3.778-0.127
				c1.824,0.444,3.65,0.889,5.474,1.334c-1.132-0.349-2.265-0.698-3.396-1.048c1.536,0.85,3.074,1.698,4.61,2.547
				c-0.994-0.633-1.989-1.265-2.983-1.896c1.236,1.19,2.474,2.381,3.711,3.573c-0.837-0.908-1.676-1.816-2.514-2.724
				c1.51,2.371,3.02,4.742,4.529,7.113c-0.99-1.871-1.978-3.744-2.967-5.615c0.732,2.617,1.463,5.235,2.195,7.852
				c0.042,0.149,0.37,1.091,0.6,0.472c0.523-1.401,1.441-3.377,1.216-4.941c0.006-0.908-0.135-1.783-0.42-2.625
				c-1.03-2.671-0.719-2.007-2.301-4.395c-1.114-1.495-2.576-2.472-4.383-2.931c-1.796-0.605-3.619-0.681-5.468-0.23
				c-1.854,0.382-3.53,1.147-5.029,2.298c-2.509,1.52-3.258,4.457-3.952,7.05c-0.201,1.952-0.014,3.863,0.56,5.736
				c0.485,1.595,1.305,2.993,2.458,4.191c0.591,0.77,3.077,2.057,4.14,2.051c1.249,0.22,2.421,0.02,3.516-0.602
				c1.012-0.38,2.187-1.903,2.878-2.598c0.767-0.757,1.506-1.541,2.217-2.351c0.952-1.164,0.962-2.458,1.017-3.876
				c0.042-1.074-1.821,1.372-1.685,1.208c-0.823,0.981-1.626,1.981-2.407,2.997C170.936,174.645,170.569,175.203,170.285,175.814z"
				/>
			<path opacity="0.1184" fill="#36A9E1" d="M169.457,174.126c-0.221,0.707-0.441,1.413-0.661,2.12
				c1.866-1.868,3.731-3.735,5.599-5.604c-2.363,2.097-4.726,4.194-7.088,6.291c2.319-1.823,4.636-3.646,6.954-5.468
				c-3.535,1.69-7.07,3.381-10.604,5.071c2.827-1.06,5.653-2.121,8.479-3.179c-2.057,0.38-4.115,0.761-6.172,1.142
				c1.69-0.245,3.38-0.488,5.07-0.733c-2.98,0.008-5.96,0.017-8.94,0.025c2.431,0.143,4.861,0.287,7.292,0.431
				c-1.993-0.522-3.988-1.044-5.98-1.565c1.564,0.469,3.129,0.938,4.695,1.406c-0.512-0.348-1.026-0.695-1.538-1.044
				c0.293,0.259,0.586,0.518,0.879,0.775c-2.232-3.898-4.463-7.795-6.695-11.693c1.321,3.146,2.641,6.293,3.961,9.441
				c-0.761-3.715-1.524-7.43-2.285-11.145c0.441,3.073,0.883,6.146,1.325,9.22c0.192-2.92,0.385-5.84,0.577-8.76
				c-0.306,2.396-0.612,4.791-0.918,7.187c1.88-3.232,3.759-6.465,5.639-9.697c-1.789,2.635-3.577,5.272-5.365,7.907
				c3.396-2.392,6.793-4.782,10.189-7.173c-2.956,1.259-5.913,2.519-8.869,3.778c2.832-0.537,5.663-1.073,8.494-1.61
				c-2.066,0.237-4.133,0.475-6.199,0.711c2.53,0.219,5.06,0.438,7.59,0.656c-1.894-0.317-3.787-0.632-5.68-0.948
				c2.205,0.85,4.408,1.7,6.612,2.55c-1.722-0.824-3.444-1.647-5.166-2.472c1.877,1.416,3.753,2.831,5.63,4.247
				c-1.541-1.329-3.081-2.659-4.622-3.988c1.774,3.254,3.549,6.507,5.323,9.761c0.198,0.247,0.316,0.212,0.352-0.104
				c-0.03-0.681-0.158-1.345-0.385-1.994c-0.336-1.253-0.7-2.499-1.09-3.737c1.333,3.884,2.069,4.994,2.209,3.333
				c0.36-1.513,0.321-3.018-0.115-4.516c-0.425-1.557-1.148-2.961-2.174-4.208c-0.998-1.395-2.327-2.317-3.983-2.764
				c-2.505-1.151-5.101-0.383-7.568,0.314c-3.784,1.073-5.393,4.609-6.469,7.972c-0.202,1.941-0.022,3.844,0.539,5.708
				c0.472,1.574,1.282,2.944,2.43,4.112c1.433,1.838,3.878,2.038,5.946,1.967c0.818-0.029,1.826-1.016,2.352-1.425
				c1.243-0.97,2.468-1.964,3.676-2.978c0.666-0.494,1.262-1.059,1.788-1.695c1.375-3.294,1.297-2.201,1.163-5.052
				c-0.018-0.394-2.463,2.449-1.954,1.84c-0.984,1.183-1.947,2.383-2.89,3.601C170.274,172.746,169.824,173.409,169.457,174.126z"/>
			<path opacity="0.1184" fill="#36A9E1" d="M169.212,180.096c-0.076,0.542-0.154,1.083-0.23,1.626
				c0.705-1.009,1.409-2.017,2.112-3.025c-0.783,0.956-1.567,1.914-2.35,2.871c2.487-2.514,4.974-5.027,7.463-7.541
				c-2.97,2.705-5.942,5.409-8.912,8.115c2.93-2.385,5.86-4.77,8.791-7.154c-4.086,2.171-8.173,4.342-12.259,6.512
				c3.139-1.293,6.277-2.585,9.416-3.878c-3.136,0.764-6.271,1.528-9.408,2.292c2.594-0.494,5.187-0.989,7.78-1.483
				c-3.077,0.051-6.155,0.102-9.232,0.153c2.277,0.056,4.554,0.112,6.831,0.167c-1.332-0.319-2.665-0.639-3.996-0.96
				c0.671,0.217,1.344,0.435,2.015,0.652c-2.284-3.67-4.567-7.341-6.851-11.012c0.599,2.224,1.199,4.447,1.798,6.671
				c-0.03-1.862-0.063-3.723-0.093-5.585c-0.051,1.147-0.101,2.293-0.151,3.439c0.32-1.118,0.64-2.238,0.959-3.356
				c-0.201,0.536-0.401,1.071-0.602,1.607c2.943-2.354,5.885-4.708,8.828-7.063c-2.1,1.219-4.198,2.439-6.298,3.658
				c2.88-0.936,5.759-1.873,8.638-2.81c-2.561,0.67-5.121,1.34-7.682,2.01c3.635,0.428,7.269,0.855,10.902,1.282
				c-2.579-0.655-5.157-1.311-7.737-1.967c1.691,0.862,3.383,1.725,5.074,2.588c-1.366-0.763-2.734-1.525-4.1-2.287
				c2.364,3.931,4.729,7.863,7.095,11.794c0.26,0.333,0.374,0.288,0.34-0.133c0.368-0.702,0.735-1.403,1.102-2.106
				c0.622-1.779,0.676-3.582,0.167-5.408c-0.268-2.306-2.388-5.58-4.603-6.443c-2.765-1.077-2.005-0.867-4.851-1.239
				c-1.731-0.227-3.833,0.795-5.373,1.405c-1.647,0.652-2.757,2.012-3.946,3.229c-0.383,0.806-0.732,1.625-1.049,2.459
				c-0.593,1.663-0.742,3.365-0.45,5.107c0.093,2.422,1.417,4.635,2.63,6.627c1.067,0.968,2.274,1.703,3.62,2.205
				c1.128-0.076,2.253-0.187,3.375-0.33c0.485-0.106,0.889-0.367,1.21-0.781c1.292-1.209,2.555-2.447,3.791-3.712
				c1.252-1.25,2.476-2.526,3.673-3.829c0.41-0.327,0.666-0.732,0.768-1.219c0.53-1.93,0.515-1.837,0.527-4.008
				c-0.486,0.17-0.872,0.484-1.158,0.942c-1.202,1.39-2.374,2.803-3.516,4.24c-1.16,1.424-2.29,2.872-3.387,4.343
				C169.499,179.141,169.274,179.585,169.212,180.096z"/>
			<path opacity="0.1184" fill="#36A9E1" d="M168.696,173.774c-0.047,0.516-0.092,1.032-0.14,1.55
				c0.373-0.536,0.746-1.071,1.119-1.607c-0.568,0.718-1.135,1.435-1.704,2.153c1.528-1.528,3.056-3.055,4.584-4.583
				c-1.676,1.43-3.351,2.861-5.027,4.291c1.586-1.182,3.174-2.365,4.76-3.547c-3.142,1.312-6.284,2.624-9.424,3.935
				c2.431-0.811,4.861-1.624,7.29-2.436c-1.114,0.111-2.229,0.22-3.345,0.331c0.754-0.042,1.51-0.083,2.264-0.125
				c-2.671-0.189-5.344-0.38-8.015-0.571c2.134,0.248,4.267,0.495,6.401,0.743c-3.524-3.006-6.417-6.575-8.678-10.706
				c1.654,2.523,3.31,5.048,4.963,7.571c-1.024-2.724-2.048-5.449-3.071-8.174c0.778,2.425,1.557,4.85,2.336,7.273
				c-0.332-3.059-0.665-6.116-0.998-9.175c0.139,2.314,0.277,4.627,0.415,6.941c0.438-2.772,0.875-5.546,1.311-8.318
				c-0.432,2.148-0.865,4.296-1.298,6.445c0.796-1.773,1.59-3.546,2.386-5.319c-0.665,1.298-1.329,2.597-1.995,3.895
				c0.727-0.892,1.454-1.784,2.18-2.676c-0.527,0.566-1.055,1.131-1.582,1.697c2.509-2.038,5.019-4.075,7.528-6.112
				c-2.088,1.402-4.177,2.804-6.264,4.206c3.435-0.598,6.872-1.197,10.307-1.795c-2.095,0.068-4.192,0.134-6.288,0.202
				c1.758,0.417,3.516,0.834,5.273,1.251c-0.987-0.293-1.974-0.587-2.961-0.879c1.445,0.791,2.89,1.581,4.334,2.373
				c-0.829-0.548-1.658-1.096-2.487-1.643c1.484,1.46,2.967,2.92,4.453,4.382c-1.013-1.154-2.025-2.309-3.038-3.463
				c1.046,1.891,2.093,3.78,3.138,5.671c-0.54-1.159-1.081-2.318-1.622-3.477c0.466,2.224,0.931,4.449,1.398,6.673
				c0.007,0.035,0.358,1.038,0.555,0.423c0.691-1.536,1.038-3.145,1.042-4.823c0.08-0.951-0.108-1.881-0.563-2.788
				c-0.552-2.425-2.72-4.478-4.378-6.103c-1.504-0.803-3.102-1.313-4.792-1.532c-1.82-0.089-3.578,0.202-5.272,0.873
				c-1.735,0.701-3.211,1.764-4.425,3.188c-2.17,2-2.284,5.5-2.379,8.143c0.147,1.854,0.681,3.586,1.607,5.194
				c0.843,1.429,2.01,2.508,3.499,3.242c1.764,1.212,3.967,0.796,5.773,0.108c0.573-0.343,1.083-0.766,1.533-1.265
				c0.918-0.879,1.817-1.777,2.696-2.695c1.522-1.597,1.718-2.774,1.629-4.92c-0.018-0.418-2.069,1.957-1.635,1.441
				c-0.799,0.952-1.575,1.921-2.331,2.908C169.32,172.637,168.966,173.179,168.696,173.774z"/>
			<path opacity="0.1184" fill="#36A9E1" d="M168.821,174.994c-0.24,0.72-0.478,1.439-0.717,2.159
				c2.105-2.048,4.21-4.097,6.316-6.146c-3.246,2.309-6.49,4.619-9.736,6.929c2.588-1.557,5.178-3.114,7.766-4.671
				c-3.806,0.973-7.614,1.946-11.42,2.917c3.03-0.519,6.059-1.038,9.088-1.557c-2.946-0.032-5.891-0.062-8.838-0.093
				c2.346,0.141,4.692,0.282,7.039,0.424c-1.224-0.349-2.446-0.699-3.669-1.049c0.748,0.257,1.495,0.515,2.242,0.772
				c-2.911-3.016-5.596-6.23-8.054-9.642c1.728,2.405,3.455,4.811,5.184,7.216c-1.116-2.612-2.231-5.224-3.345-7.836
				c0.834,2.318,1.669,4.637,2.504,6.955c-0.414-2.918-0.829-5.835-1.243-8.753c0.197,2.204,0.392,4.409,0.587,6.612
				c0.349-2.65,0.698-5.299,1.045-7.95c-0.364,2.061-0.728,4.122-1.092,6.183c0.727-1.703,1.452-3.405,2.177-5.106
				c-0.616,1.268-1.231,2.536-1.848,3.803c0.68-0.851,1.359-1.701,2.038-2.552c-0.507,0.567-1.013,1.134-1.521,1.701
				c3.342-1.928,6.684-3.856,10.025-5.784c-2.644,0.893-5.287,1.786-7.931,2.677c2.625-0.229,5.25-0.458,7.875-0.687
				c-1.84,0.063-3.679,0.126-5.519,0.189c2.332,0.439,4.665,0.879,6.997,1.318c-1.678-0.41-3.355-0.821-5.034-1.23
				c2.014,1.003,4.026,2.007,6.041,3.012c-1.514-0.855-3.027-1.71-4.54-2.566c1.227,1.104,2.453,2.209,3.679,3.313
				c-0.872-0.896-1.746-1.791-2.619-2.687c1.607,2.34,3.214,4.681,4.821,7.021c-1.088-1.921-2.176-3.842-3.264-5.763
				c0.847,2.678,1.694,5.355,2.542,8.033c0.054,0.17,0.404,1.142,0.627,0.491c0.836-2.421,1.626-4.979,0.591-7.519
				c-0.281-0.692-0.563-1.384-0.846-2.076c-0.812-1.495-1.897-2.753-3.258-3.775c-0.786-0.318-1.572-0.638-2.359-0.957
				c-1.683-0.527-3.387-0.601-5.111-0.22c-2.706,0.231-4.842,2.134-6.727,3.842c-0.454,0.806-0.908,1.611-1.362,2.418
				c-0.816,1.726-1.097,3.539-0.843,5.441c-0.042,2.656,1.391,4.876,2.889,6.889c1.396,1.878,3.881,2.104,5.952,2.063
				c0.81-0.015,1.864-1.048,2.368-1.441c1.252-0.981,2.487-1.983,3.705-3.006c0.671-0.5,1.273-1.068,1.804-1.709
				c1.47-3.35,1.368-2.216,1.272-5.132c-0.013-0.387-2.491,2.485-1.977,1.867c-0.997,1.199-1.972,2.416-2.926,3.649
				C169.651,173.597,169.193,174.269,168.821,174.994z"/>
			<path opacity="0.1184" fill="#36A9E1" d="M169.94,177.97c-0.068,0.544-0.136,1.086-0.204,1.629
				c0.229-0.423,0.456-0.847,0.684-1.271c-0.307,0.393-0.614,0.786-0.923,1.179c2.461-2.483,4.92-4.965,7.381-7.448
				c-2.945,2.699-5.892,5.398-8.837,8.097c2.937-2.385,5.874-4.771,8.81-7.157c-4.109,2.229-8.219,4.457-12.328,6.686
				c3.28-1.361,6.559-2.723,9.838-4.083c-3.246,0.829-6.492,1.658-9.737,2.487c2.783-0.562,5.568-1.124,8.352-1.684
				c-3.831,0.195-7.661,0.392-11.492,0.587c3.134,0.012,6.269,0.026,9.402,0.04c-2.897-0.567-5.794-1.135-8.691-1.703
				c2.333,0.563,4.665,1.125,6.997,1.688c-1.12-0.538-2.239-1.077-3.36-1.615c0.715,0.399,1.431,0.796,2.146,1.195
				c-1.784-4.317-3.567-8.634-5.351-12.953c0.364,2.987,0.727,5.972,1.089,8.959c0.28-2.661,0.56-5.321,0.839-7.981
				c-0.367,2.162-0.733,4.324-1.1,6.486c0.962-2.44,1.922-4.882,2.883-7.322c-0.923,2.098-1.848,4.197-2.771,6.295
				c3.602-2.509,7.205-5.019,10.807-7.527c-3.359,1.355-6.718,2.711-10.078,4.068c4.342,3.013,8.684,6.028,13.026,9.041
				c0.011-0.121,0.023-0.241,0.035-0.361c0.916-1.292,1.427-2.731,1.531-4.315c0.518-2.475-1.257-5.197-2.515-7.095
				c-1.479-2.232-4.266-2.628-6.646-3.027c-2.536-0.423-5.308,1.308-7.311,2.555c-1.439,1.032-2.411,2.403-2.915,4.109
				c-1.203,2.468-0.584,5.075-0.048,7.595c0.3,0.729,0.601,1.46,0.901,2.189c0.62,1.461,1.658,2.516,3.113,3.164
				c1.881,1.297,3.069,0.59,5.275,0.237c0.482-0.103,0.882-0.359,1.2-0.769c1.276-1.194,2.526-2.417,3.75-3.667
				c1.237-1.233,2.448-2.494,3.63-3.781c0.407-0.322,0.659-0.725,0.757-1.207c0.457-1.277,0.587-2.587,0.393-3.931
				c-0.478,0.161-0.857,0.466-1.138,0.917c-1.174,1.355-2.318,2.736-3.434,4.141c-1.134,1.391-2.235,2.807-3.307,4.245
				C170.213,177.034,169.996,177.47,169.94,177.97z"/>
			<path opacity="0.1184" fill="#36A9E1" d="M169.587,173.453c-0.055,0.515-0.111,1.031-0.166,1.546
				c1.232-1.523,2.465-3.049,3.697-4.573c-1.946,1.929-3.892,3.86-5.838,5.791c1.44-1.139,2.881-2.277,4.322-3.415
				c-1.639,0.879-3.375,1.524-5.207,1.934c1.129-0.292,2.259-0.584,3.389-0.875c-1.507-0.149-3.015-0.297-4.522-0.447
				c0.619,0.145,1.237,0.289,1.856,0.433c-2.357-3.178-4.576-6.453-6.655-9.823c1.161,1.996,2.323,3.992,3.484,5.987
				c-0.597-1.909-1.192-3.817-1.787-5.725c0.419,1.587,0.839,3.174,1.258,4.761c-0.206-2.995-0.413-5.992-0.62-8.988
				c0.058,2.277,0.116,4.554,0.173,6.832c0.406-2.035,0.81-4.069,1.215-6.104c-0.36,1.434-0.72,2.867-1.08,4.3
				c0.552-1.108,1.106-2.219,1.658-3.327c-0.382,0.656-0.765,1.312-1.147,1.968c2.819-2.353,5.639-4.708,8.458-7.061
				c-2.155,1.433-4.312,2.865-6.467,4.298c3.51-0.572,7.021-1.144,10.532-1.716c-2.126,0.09-4.252,0.18-6.379,0.27
				c1.307,0.319,2.615,0.639,3.921,0.958c-0.499-0.169-0.995-0.338-1.492-0.506c1.464,0.796,2.93,1.593,4.396,2.39
				c-0.813-0.527-1.625-1.055-2.436-1.581c1.467,1.437,2.934,2.872,4.403,4.309c-0.958-1.1-1.916-2.201-2.874-3.301
				c0.981,1.857,1.964,3.713,2.947,5.571c-0.489-1.083-0.977-2.164-1.466-3.244c0.4,2.13,0.8,4.26,1.2,6.392
				c0.005,0.026,0.353,0.973,0.54,0.393c0.687-1.552,1.041-3.174,1.064-4.867c0.106-0.948-0.08-1.875-0.563-2.782
				c-0.57-2.476-2.746-4.598-4.42-6.291c-1.489-0.879-3.089-1.442-4.802-1.692c-1.886-0.139-3.707,0.148-5.46,0.858
				c-1.768,0.733-3.261,1.838-4.477,3.318c-2.217,2.111-2.277,5.604-2.336,8.353c-0.051,2.315,1.301,5.888,3.3,7.233
				c0.623,0.546,1.304,0.989,2.043,1.329c2.177,0.696,1.514,0.605,3.907,0.584c1.56-0.012,3.048-1.786,4.004-2.748
				c1.79-1.796,2.659-2.866,2.711-5.5c0.021-0.974-1.556,1.044-1.452,0.922c-0.676,0.797-1.331,1.613-1.963,2.446
				C170.083,172.476,169.792,172.939,169.587,173.453z"/>
		</g>
	</g>
</g>
</svg>
